<?xml version="1.0" encoding="UTF-8"?>
<svg id="Capa_1" xmlns="http://www.w3.org/2000/svg" version="1.1" viewBox="0 0 308.09 414.37">
  <!-- Generator: Adobe Illustrator 29.5.1, SVG Export Plug-In . SVG Version: 2.1.0 Build 141)  -->
  <defs>
    <style>
      .st0 {
        fill: #fff;
      }
    </style>
  </defs>
  <g id="LOGO">
    <g>
      <polygon class="st0" points="75.7 248.24 72.52 249.59 72.49 129.56 75.69 128.23 75.7 248.24"/>
      <polygon class="st0" points="90.38 241.44 87.22 242.76 87.23 122.74 90.36 121.41 90.38 241.44"/>
      <path class="st0" d="M119.17,141.03c-3.39,17.6-4.03,18.52-4.57,27.16-.42,6.79.7,11.64,1.87,17.48,1.02,5.08,2.25,10.52,2.25,10.52l-.1,32.21,3.84-1.84.1-31.97s3.17-17.22,3.66-27.06c.57-11.83-3.6-24.5-3.6-27.41,0-7.23.04-33.71.04-33.71l-3.49,1.48c.03,23.47.03,30.2,0,33.14Z"/>
      <path class="st0" d="M102.88,115.49s.06,51.21.02,52.12c-.05,1.29-2.43,4.57-3.03,6.61-.64,2.16-1.51,4.8,2.13,7.35,1.17.83.82,3.46.91,5.19.1,1.74-.05,48.83-.05,48.83l3.47-1.46s-.02-49.7-.02-52.25c0-1.57,5.1-6.05,3.32-10.84-.58-1.58-2.74-3.47-2.77-3.76-.29-2.46-.62-53.12-.62-53.12l-3.34,1.33h-.02Z"/>
      <path class="st0" d="M134.73,129.07c-3.7,20.47-5.12,27.61-4.57,37.33.58,10.11,1.36,15.13,3.32,25.87.8,5.47,1.07,8.87,1.07,8.87l.15,19.74,3.56-1.76s.05-16.5.1-17.37c.06-.82.1-1.86.3-4.23.62-7.23,2.92-21.98,3.74-33.99,1.04-15.47-2.31-30.12-2.98-37.36-.35-3.89-.6-9.1-.44-27.56l-3.68,1.67s.56,20.19-.57,28.79h0Z"/>
      <path class="st0" d="M152.05,96.02c-2,15.48-5.55,34.11-5.95,57-.44,25.04,4.79,55.28,4.79,55.28l.51,4.77,4.14-1.99.66-7.54c3.13-27.88,3.78-30.94,4.1-53.94.28-19.2-3.04-39.84-4.52-54.57-.21-2.06-.12-4.18-.12-4.18l-3.62,1.48v3.68h0Z"/>
      <path class="st0" d="M166.78,92.68c-3.1,29.53-3.39,46.7-3.48,53.54-.26,22.6,3.76,54.73,3.76,54.73l.44,4.76,6.89-3.28.41-7.11s1.65-16.75,2.15-52.65c.27-18.98-3.21-50.84-3.59-55.05-.18-2.07-.4-4.62-.4-4.62l-5.46,2.21s-.31,3.34-.7,7.48h-.02Z"/>
      <path class="st0" d="M182.68,85.51c-2.83,28.45-2.62,47.16-2.69,53.97-.28,22.62,3.17,54.42,3.17,54.42l.42,4.31,7.66-3.67.58-6.92s1.88-16.5,2.29-52.36c.21-18.48-2.84-50.93-2.98-54.34-.09-2.07-.5-6.05-.5-6.05l-7.37,3.13s-.03,3.37-.59,7.51h0Z"/>
      <path class="st0" d="M199.5,78.3c-2.55,30.9-2.76,46.65-2.82,53.23-.18,22.88,3.05,54.52,3.05,54.52l.47,4.3,8.36-3.78.42-7.12s1.23-15.08,1.77-50.7c.32-21.41-3.09-54.25-3.15-55.29-.16-2.19-.4-6.38-.4-6.38l-7.14,3.26s-.29,3.6-.55,7.97h-.01Z"/>
      <path class="st0" d="M232.85,63.73c-2.21,30.75-2.49,43.86-2.45,53.37.1,24.49,2.83,52.83,2.83,52.83l.39,4.8,7.22-3.24s.1-115.49.05-120.38l-7.44,3.59s-.35,4.63-.6,9.02h0Z"/>
      <path class="st0" d="M216.41,70.17c-2.54,30.89-2.75,46.65-2.8,53.23-.19,22.89,3.04,54.51,3.04,54.51l.5,4.52,8.34-3.78.43-7.35c1.24-15.12,1.23-15.05,1.77-50.69.32-21.41-3.07-54.24-3.15-55.3-.15-2.18-.48-6.09-.48-6.09l-7.07,2.98s-.29,3.6-.56,7.97h-.02Z"/>
      <path class="st0" d="M100.5,263.42h3.66v9.24h-3.41c0-1.65-2.41-6.24-12.34-6.62-10.13-.39-11.16,4.59-7.72,5.65,4.42,1.35,13.15,1.07,18.56,2.82,7.13,2.31,9.15,9.99,2.91,14.07-5.61,3.68-15.41,3.24-22.38.84-1.26-.44-3.3-1.56-3.19-.09v.87h-4.22v-10.13h3.77c.05.59-.45,2.83,3.76,5.17,4.87,2.71,13.8,2.82,17.36.88,2.11-1.15,2.41-4.86-1.4-5.36-4.09-.54-10.59-.93-15.43-2.03-3.44-.8-6.08-1.78-7.64-3.81-1.21-1.56-3.21-7.68,3.71-10.8,8.58-3.87,20.47-1.18,22.57.58.86.7,1.81.48,1.46-1.27h-.03Z"/>
      <path class="st0" d="M131.86,261.92c9.52,0,19.65,4.57,19.46,15.09-.21,10.52-10.24,14.61-19.46,14.61s-20.17-4.09-20.38-14.61c-.2-10.52,11.03-15.09,20.38-15.09h0ZM142.99,276.82c0-6.96-4.88-10.91-11.3-10.91s-11.3,3.95-11.29,10.91c0,6.95,5.03,11.07,11.29,10.89,6.26-.16,11.28-3.98,11.3-10.89Z"/>
      <path class="st0" d="M235.19,268.05c-.76.77-10.24,11.99-10.24,11.99v6.03c0,.64.04.62.76.62h3.92v3.43h-17.96v-3.43s3.6.04,4.36,0c.74-.04.81-.22.82-.62v-6.07s-10.51-11.55-10.61-11.69c-.36-.52-1.34-1.41-3.06-1.42h-2.96v-3.5h18.16v3.5h-1.86c-.4,0-.95.82-.2,1.57.76.76,6.17,7.23,6.17,7.23l6.17-7.27c.36-.48.25-1.53-.5-1.53h-2.25v-3.5h14.85v3.5h-3.47c-1.12,0-1.86.92-2.11,1.17h.01Z"/>
      <path class="st0" d="M165.85,285.06c0,1.77.9,1.67,1.71,1.64h3.57v3.42h-15.75v-3.29h3.49c1.42-.1,1.62-.85,1.68-1.64v-16.26c.03-1.06.04-1.97-1.87-2.03h-3.34l-.02-3.56h13.31l17.98,16.66v-11.23c0-1.91-.93-1.91-1.73-2.01h-3.36v-3.42h15.25v3.46h-3.66c-.86,0-1.25.87-1.29,1.67v21.65h-4.98l-20.99-18.45v13.39h0Z"/>
      <path class="st0" d="M71.97,316.32v-2.13h1.88c.73,0,.89-.3.89-.91v-10.27c0-.61-.19-.94-.91-.94h-1.77v-2.18h13.94c4.79,0,6.31,1.11,6.31,4.55s-2.16,4.81-7.5,4.81h-5.89v4.05c0,.62.17.9.89.9h1.92l-.04,2.13h-9.74.02ZM78.93,307.04h5.32c2.14-.06,3.4-.58,3.4-2.5,0-1.79-1.24-2.52-3.12-2.52h-5.6v5.02Z"/>
      <path class="st0" d="M101.44,313.27c0,.62.16.92.9.92h1.88v2.12h-9.73v-2.14h1.87c.72,0,.9-.28.9-.9v-10.29c0-.62-.18-1.02-.9-1.02h-1.87v-2.14h9.73v2.13h-1.88c-.74,0-.9.41-.9,1.03v10.29Z"/>
      <path class="st0" d="M125.67,311.24c-.34,2.55-3.25,5.9-8.53,5.9-4.99,0-11.2-2.11-11.3-8.88-.1-6.61,5.84-9.41,10.72-9.32,2.92.06,5.51,1.04,6.19,1.72.42.42.96.45.76-.79h1.91v5.64h-1.78c-.16-2.95-3.6-4.84-7.27-4.38-3.88.47-5.8,3.43-5.8,7.09,0,4.06,3.35,6.83,6.74,6.83,2.22,0,5.73-.66,6.44-3.81h1.93-.01Z"/>
      <path class="st0" d="M128.35,306.12v-6.25h19.59v6.25h-1.97c.04-4.42-.39-3.99-1.91-4.17h-3.81v11.36c0,.63.16,1.03.89,1.03h1.87v2.01h-9.73v-2.01h1.87c.72,0,.91-.4.91-1.03v-11.36h-3.8c-1.69.17-1.91-.12-1.91,4.18h-2,0Z"/>
      <path class="st0" d="M161.09,317.05c-3.93,0-8.07-.9-8.07-5.97v-8.08c0-.62-.17-1.03-.89-1.03h-1.87v-2.14h9.72v2.13h-1.88c-.72,0-.9.4-.9,1.03v8.33c0,.56-.22,3.84,3.91,3.84,4.62,0,5.06-2.01,5.06-3.85l.02-8.31c0-.62-.17-1.03-.9-1.03h-1.87v-2.14h8.25v2.13h-1.88c-.46,0-.88.47-.87,1.73l.04,7.56c0,4.87-3.84,5.81-7.85,5.81h-.02Z"/>
      <path class="st0" d="M189.77,308.36c1.65.4,2.8.74,2.89,2.74v2.38c0,.46.07,1.16.88,1.16s.76-.95.72-1.85v-1.01h1.75v1.21c0,2.96-.7,3.78-3.28,3.78-2.18,0-4.27-.68-4.27-3.97v-1.81c0-1.21-1-1.77-2.87-1.77h-4.79v4.06c0,.62.17.9.89.9h1.87l.02,2.2h-9.73v-2.2h1.88c.72,0,.88-.29.88-.91v-10.27c0-.62-.18-1.08-.9-1.08h-1.77v-2.04h13.64c4.77,0,6.36,1.53,6.33,4.63-.02,2.66-2.23,3.51-4.13,3.86h-.01ZM180.79,307.04h5.31c2.03,0,3.13-.95,3.13-2.51s-1.31-2.52-2.93-2.52h-5.51v5.03h0Z"/>
      <path class="st0" d="M205.14,314.23l8.75.04c1.69-.17,1.99-.96,1.99-4.16h1.89v6.25h-19.61v-2.13h1.88c.72,0,.9-.29.9-.91v-10.26c0-.62-.17-1.04-.9-1.04h-1.88v-2.15h19.61v6.25h-1.89c0-3.18-.3-4.07-1.99-4.23h-8.75v4.94h4.07c.53-.01.89-.2.89-1.07v-1.71h1.81v7.73h-1.81v-1.72c0-.85-.34-1.05-.89-1.05h-4.07v5.21h0Z"/>
      <path class="st0" d="M236.99,300.05h1.93v5.73h-1.79c0-1-1.29-4.13-6.5-4.27-5.33-.15-6.03,2.76-4.03,3.67,2.25,1.03,6.89.65,9.74,1.71,3.74,1.4,4.8,6.02,1.51,8.5-2.93,2.22-8.07,1.96-11.71.49-.67-.26-1.74-.93-1.69-.06v.54h-2.21v-6.13h1.97c0,.35-.22,1.71,1.97,3.11,3.27,2.09,6.45,2.31,9.1.64,1.23-.76,1.75-2.97-.73-3.34-2.14-.33-5.55-.57-8.09-1.24-1.79-.46-3.18-1.07-4.01-2.29-.68-1.02-1.85-4.56,1.96-6.53,4.49-2.34,9.49-.96,11.82.34.55.31.95.3.77-.89v.02Z"/>
      <rect class="st0" x="72.1" y="325.88" width="168.53" height="3.31"/>
      <path class="st0" d="M108.05,353.91v-1.67h1.65c.72,0,1.22-.22,1.22-.99v-9.6c0-.67-.34-.96-1.38-.96h-1.48v-1.66h9.44v1.66h-1.43c-1.14,0-1.53.22-1.53,1v10.58h4.21c2.65,0,3.3-1.28,3.54-4.76h1.91v6.4h-16.15Z"/>
      <path class="st0" d="M162.95,340.69h-.59c-1.22,0-1.76.3-2.22,1.39l-5.06,11.83h-3.53l-5.05-12.04c-.43-1.02-.96-1.18-1.94-1.18h-.73v-1.66h9.13v1.66h-1.6c-.78,0-1.12.16-1.12.52s.14.62.26.91l3.2,8.17h.05l3.48-8.17c.16-.39.26-.61.26-.88,0-.41-.48-.56-1.25-.56h-1.57v-1.66h8.26v1.66h.02Z"/>
      <path class="st0" d="M209.89,340.34c4.16,0,5.27,2.93,5.27,6.14s-1.11,6.13-5.18,6.13-5.34-2.92-5.34-6.13,1.18-6.14,5.26-6.14h-.01ZM209.89,338.58c-5.6,0-9.32,3.43-9.32,7.89s3.72,7.88,9.32,7.88,9.33-3.41,9.33-7.88-3.72-7.89-9.33-7.89h0Z"/>
      <path class="st0" d="M225.53,341.86h-.05v9.49c0,.54.38.9,1.06.9h1.94v1.67h-8.54v-1.67h1.8c.79,0,1.05-.36,1.05-.9v-9.85c0-.58-.26-.81-1.05-.81h-1.8v-1.66h7.6l7.5,10.7h.06v-7.99c0-.67-.42-1.05-1.35-1.05h-1.56v-1.66h8.41v1.66h-1.53c-.91,0-1.29.34-1.29.78v12.44h-3.82l-8.44-12.06h0Z"/>
      <path class="st0" d="M95.45,351.98l7.31.03c1.41-.14,1.67-.87,1.67-3.75h1.57v5.65h-16.39v-1.92h1.58c.59,0,.74-.25.74-.81v-9.26c0-.56-.15-.93-.74-.93h-1.58v-1.94h16.39v5.62h-1.57c0-2.87-.25-3.65-1.67-3.8h-7.31v4.45h3.4c.44,0,.74-.18.74-.94v-1.55h1.52v6.97h-1.52v-1.55c0-.78-.29-.95-.72-.95h-3.42v4.69h0Z"/>
      <path class="st0" d="M131.73,351.94l7.33.04c1.41-.16,1.67-.87,1.67-3.73h1.57v5.63h-16.39v-1.91h1.57c.6,0,.75-.26.75-.83v-9.27c0-.56-.15-.93-.75-.93h-1.57v-1.94h16.39v5.64h-1.57c0-2.88-.26-3.67-1.67-3.81h-7.33v4.45h3.42c.44,0,.73-.18.73-.96v-1.54h1.52v6.97h-1.52v-1.54c0-.78-.29-.96-.72-.96h-3.43v4.69h0Z"/>
      <path class="st0" d="M170.15,351.13c0,.55.16.81.77.81h1.56v1.91h-8.13v-1.92h1.57c.6,0,.74-.25.74-.81v-9.26c0-.56-.14-.93-.74-.93h-1.57v-1.93h8.13v1.92h-1.56c-.6,0-.77.36-.77.93v9.28Z"/>
      <path class="st0" d="M197.2,351.14c0,.56.15.83.76.83h1.57v1.91h-8.13v-1.92h1.56c.61,0,.75-.26.75-.82v-9.27c0-.56-.14-.93-.75-.93h-1.56v-1.93h8.13v1.93h-1.57c-.6,0-.76.36-.76.92v9.28Z"/>
      <path class="st0" d="M187.36,339.06h1.61v5.16h-1.49c0-.9-1.08-3.74-5.43-3.86-4.46-.13-5.04,2.49-3.36,3.31,1.87.92,5.75.59,8.14,1.55,3.11,1.26,4,5.43,1.26,7.66-2.45,2-6.75,1.76-9.8.45-.56-.24-1.45-.85-1.41-.06v.48h-1.84v-5.51h1.65c0,.31-.2,1.54,1.65,2.81,2.73,1.88,5.38,2.08,7.61.57,1-.69,1.45-2.67-.62-3.01-1.79-.29-4.63-.52-6.76-1.11-1.5-.43-2.67-.97-3.35-2.08-.58-.92-1.55-4.12,1.63-5.89,3.76-2.1,7.94-.86,9.88.32.46.28.8.26.64-.8h0Z"/>
      <path class="st0" d="M72.08,344.65v-5.65h16.36v5.65h-1.64c.02-3.98-.32-3.6-1.6-3.75h-3.18v10.24c0,.56.14.92.74.92h1.57v1.81h-8.15v-1.81h1.58c.59,0,.75-.36.75-.92v-10.25h-3.16c-1.42.16-1.6-.11-1.6,3.76h-1.67Z"/>
    </g>
  </g>
</svg>