<?xml version="1.0" encoding="UTF-8"?>
<svg id="Capa_1" xmlns="http://www.w3.org/2000/svg" version="1.1" viewBox="0 0 1181 472">
  <!-- Generator: Adobe Illustrator 29.7.1, SVG Export Plug-In . SVG Version: 2.1.1 Build 8)  -->
  <defs>
    <style>
      .st0 {
        fill: #fff;
      }
    </style>
  </defs>
  <g id="Capa_2">
    <g>
      <g>
        <path class="st0" d="M346.98,284.98v-117.76h67.13v23.68h-37.07v21.23h32.34v23.52h-32.34v49.32h-30.06Z"/>
        <path class="st0" d="M419,284.98v-117.76h30.05v117.76h-30.05Z"/>
        <path class="st0" d="M459.18,284.98v-117.76h43.61c7.08,0,12.36.38,15.84,1.14,7.73,1.63,14.02,5.53,18.86,11.68,4.84,6.15,7.27,13.58,7.27,22.29,0,17.31-8.22,28.15-24.66,32.5l31.85,50.14h-34.79l-27.93-49.16v49.16h-30.05ZM489.23,190.91v29.56h7.35c11.43,0,17.15-5.12,17.15-15.35,0-9.47-5.39-14.21-16.17-14.21h-8.33Z"/>
        <path class="st0" d="M552.11,269.96l10.62-23.68c9.69,11.21,19.54,16.82,29.56,16.82,4.25,0,7.84-1.14,10.78-3.43,2.94-2.29,4.41-5.28,4.41-8.98,0-2.83-1.31-5.23-3.92-7.19-1.96-1.31-6.97-3.32-15.03-6.04-9.8-3.27-16.66-6.53-20.58-9.8-7.41-6.21-11.11-14.37-11.11-24.5,0-10.78,4.11-19.84,12.33-27.19,8.22-7.35,18.54-11.02,30.95-11.02,13.28,0,24.99,4.36,35.11,13.07l-11.92,21.72c-8.17-7.19-15.74-10.78-22.7-10.78-3.49,0-6.43.95-8.82,2.86-2.4,1.91-3.59,4.33-3.59,7.27s1.09,5.17,3.27,7.02c1.52,1.42,6.67,3.51,15.43,6.29s15.27,5.96,19.52,9.55c7.29,5.99,10.94,14.37,10.94,25.15,0,11.76-4.08,21.45-12.25,29.07s-18.78,11.43-31.85,11.43c-16.33,0-30.05-5.88-41.16-17.64h0Z"/>
        <path class="st0" d="M637.85,194.01v-26.79h82.15v26.79h-25.97v90.97h-30.05v-90.97h-26.13Z"/>
      </g>
      <path class="st0" d="M105.53,187.46l-7.73,26.2.55.33c5.34-3.18,11.05-5.46,17.12-6.84,6.08-1.37,12.98-2.06,20.71-2.06,9.57,0,18.04,1.04,25.41,3.13,7.36,2.09,13.58,4.89,18.64,8.4,5.06,3.52,8.93,7.66,11.6,12.44s4,9.86,4,15.24c0,5.93-1.93,11.45-5.8,16.56-3.87,5.11-9.07,9.53-15.6,13.27-6.54,3.74-14.13,6.62-22.79,8.65s-17.86,2.99-27.62,2.88c-9.39,0-18.37-.74-26.93-2.22s-16.16-3.76-22.78-6.84c-6.63-3.07-11.92-6.89-15.88-11.45-3.96-4.56-6.03-9.86-6.21-15.9h39.22c.92,5.27,4.23,9.48,9.94,12.61,5.71,3.13,12.98,4.7,21.82,4.7,5.15,0,9.8-.63,13.95-1.89,4.14-1.26,7.64-2.91,10.5-4.94,2.85-2.03,5.06-4.39,6.63-7.09,1.56-2.69,2.35-5.46,2.35-8.32s-.74-5.77-2.21-8.41c-1.48-2.64-3.68-4.94-6.63-6.92-2.95-1.98-6.45-3.51-10.5-4.61s-8.75-1.65-14.08-1.65c-7,0-12.7.74-17.12,2.22-4.42,1.48-8.56,3.82-12.43,7h-35.35l19.06-63.78h107.98v19.28h-79.82Z"/>
      <path class="st0" d="M198.35,197.1c3.77-7.63,8.88-13.76,15.33-18.38,6.44-4.61,13.95-7.91,22.51-9.89s17.63-2.97,27.2-2.97,18.92.99,27.48,2.97,16.11,5.27,22.65,9.89c6.53,4.61,11.69,10.74,15.47,18.38,3.77,7.64,5.66,17.06,5.66,28.26s-1.89,21.18-5.66,28.92c-3.78,7.75-8.93,13.93-15.47,18.54-6.54,4.61-14.08,7.91-22.65,9.89s-17.72,2.97-27.48,2.97-18.64-.99-27.2-2.97-16.07-5.27-22.51-9.89c-6.45-4.61-11.56-10.79-15.33-18.54-3.78-7.75-5.66-17.39-5.66-28.92s1.89-20.62,5.66-28.26h0ZM232.46,237.31c.37,4.67,1.52,9.17,3.45,13.51s5.01,8.05,9.25,11.12c4.23,3.08,10.31,4.61,18.23,4.61s14.31-1.54,18.64-4.61c4.32-3.07,7.46-6.78,9.39-11.12,1.93-4.34,3.08-8.84,3.45-13.51.37-4.67.55-8.65.55-11.95,0-1.98-.05-4.37-.14-7.17-.09-2.8-.46-5.69-1.1-8.65-.65-2.97-1.57-5.9-2.76-8.82-1.2-2.91-3-5.52-5.39-7.83s-5.43-4.17-9.11-5.6c-3.68-1.43-8.19-2.14-13.53-2.14s-9.8.72-13.39,2.14c-3.59,1.43-6.54,3.3-8.84,5.6-2.3,2.31-4.1,4.92-5.38,7.83-1.29,2.91-2.21,5.85-2.76,8.82-.55,2.97-.88,5.85-.97,8.65-.09,2.8-.14,5.19-.14,7.17,0,3.3.18,7.28.55,11.95h0Z"/>
      <path class="st0" d="M724.86,282.86v-115.66h21.12c15.64,0,26.65.83,33.04,2.49,6.39,1.66,11.99,4.44,16.8,8.33,6.32,5.11,11.1,11.64,14.36,19.59s4.89,17.12,4.89,27.49-1.62,19.45-4.85,27.37c-3.23,7.93-8.03,14.45-14.4,19.55-4.81,3.9-10.29,6.68-16.43,8.33-6.14,1.66-15.7,2.49-28.68,2.49h-25.86v.02ZM738.09,269.9h8.34c13.53,0,22.9-.62,28.12-1.86,5.21-1.24,9.55-3.36,13.01-6.36,4.51-3.95,7.94-9.04,10.3-15.29,2.35-6.24,3.53-13.39,3.53-21.45s-1.17-15.23-3.5-21.37c-2.33-6.13-5.78-11.2-10.34-15.21-3.46-3.05-7.86-5.23-13.19-6.52-5.34-1.29-14.65-1.94-27.93-1.94h-8.34v90Z"/>
      <path class="st0" d="M861.55,162.62l53.93,120.24h-15.3l-15.39-35.47h-46.32l-15.39,35.47h-15.31l53.77-120.24h.01ZM861.55,193.03l-18.87,42.58h37.74l-18.87-42.58Z"/>
      <path class="st0" d="M923.61,282.86v-102.54h-28.96v-13.11h70.1v13.11h-28.82v102.54h-12.32Z"/>
      <path class="st0" d="M969.07,282.86v-115.66h60.38v12.56h-46.77v33.18h46.77v12.8h-46.77v44.32h46.77v12.8h-60.38,0Z"/>
      <path class="st0" d="M1087.64,218.63c7.46,3.21,13.07,7.48,16.85,12.8s5.67,11.61,5.67,18.88c0,10.64-3.35,19.21-10.05,25.71-6.7,6.51-15.58,9.76-26.63,9.76-9.02,0-16.58-2.33-22.68-6.99-6.1-4.66-10.22-11.28-12.36-19.87l12.36-6.16c1.67,7,4.42,12.31,8.25,15.92,3.83,3.61,8.64,5.41,14.43,5.41,6.83,0,12.36-1.99,16.58-5.96,4.22-3.98,6.33-9.15,6.33-15.52,0-5.16-1.47-9.65-4.42-13.47-2.95-3.82-7.39-7.04-13.33-9.68l-13.92-6c-7.61-3.21-13.28-7.35-17.01-12.4-3.73-5.06-5.59-11.11-5.59-18.17,0-8.22,3.02-15.01,9.07-20.38,6.05-5.37,13.76-8.06,23.15-8.06,6.88,0,12.84,1.48,17.87,4.42,5.03,2.95,8.96,7.29,11.77,13.04l-11.26,7.27c-2.55-4.48-5.42-7.81-8.6-9.99-3.18-2.19-6.78-3.28-10.79-3.28-5.11,0-9.29,1.58-12.55,4.74s-4.89,7.19-4.89,12.09c0,4.11,1.25,7.66,3.75,10.67,2.5,3,6.39,5.66,11.65,7.98l16.35,7.27v-.03Z"/>
    </g>
  </g>
</svg>