<?xml version="1.0" encoding="UTF-8"?>
<svg id="Capa_1" xmlns="http://www.w3.org/2000/svg" version="1.1" viewBox="0 0 283.44 113.28">
  <!-- Generator: Adobe Illustrator 29.7.1, SVG Export Plug-In . SVG Version: 2.1.1 Build 8)  -->
  <defs>
    <style>
      .st0 {
        fill-rule: evenodd;
      }

      .st0, .st1 {
        fill: #fff;
      }
    </style>
  </defs>
  <g id="Capa_11">
    <g>
      <g>
        <path class="st1" d="M35.93,63.18c1.83,0,2.46.12,4.79.12.06,0,.3.27.33.41.27.86.53,1.42,1.12,2.67,1.48,3.05,4.26,8.88,4.82,9.62.06.06.24.12.27.09.68-1.24,3.99-7.76,4.94-10.07.15-.36.71-1.66.86-2.28.03-.12.3-.44.35-.44,2.07,0,4.44-.12,4.71-.12.35,0,.8.09.8.36,0,.3-.33.44-.86.56-.47.12-.86.27-1.33.5-.5.24-.71.86-.71,2.37,0,4.98.18,10.81.35,12.29.15.98.41,1.48,1.89,1.87.5.12.8.42.8.62,0,.33-.44.44-.89.44-.33,0-3.11-.15-4.17-.15-.53,0-2.13.09-2.81.09-.47,0-.86-.12-.86-.41,0-.27.41-.53.83-.62,1.21-.3,1.3-1.21,1.39-2.4.12-1.45.18-9.09.15-10.57,0-.3-.18-.44-.3-.21-.98,1.92-3.46,7.2-4.32,9.15-.77,1.72-1.39,3.29-1.78,4.24-.35.86-.68.92-.83.92s-.41-.33-.56-.65c-.15-.47-.53-1.63-1.09-3.02-1.54-3.79-4.11-9.33-4.67-10.43-.09-.18-.18-.12-.18.09-.24,1.98-.5,7.14-.47,10.34.03,1.69.3,2.07,1.8,2.55.62.21.86.38.86.65,0,.24-.36.42-.86.42-.89,0-2.01-.12-2.72-.12s-1.95.12-2.63.12c-.44,0-.92-.06-.92-.42,0-.21.3-.38.8-.56,1.63-.56,1.95-.95,2.22-3.02.27-2.25.95-9.3.98-11.94,0-.38-.06-1.51-1.12-1.78-.47-.15-.86-.27-1.21-.36-.21-.06-.62-.27-.62-.53s.21-.38.86-.38h0Z"/>
        <path class="st1" d="M71.7,63.45c.27.71.8,2.22,1.18,3.32,1.63,4.59,3.64,9.95,4.23,11.43.98,2.4,1.63,2.69,2.63,2.99.5.15.77.33.77.53s-.3.44-.98.44c-.74,0-2.96-.12-3.88-.12-.98,0-2.13.06-2.9.06-.59,0-.95-.18-.95-.44,0-.15.21-.38.77-.5,1.21-.3,1.24-.77,1.18-1.24-.06-.77-.68-2.43-1.36-4.32-.03-.12-.36-.44-.71-.44-3.14-.03-4.56.06-4.97.09-.09,0-.27.21-.33.3-.95,2.37-1.27,3.7-1.27,4.29s.3,1.01,1.39,1.3c.59.15.86.33.86.59,0,.24-.41.38-.89.38-.53,0-1.27-.06-2.37-.06s-2.48.12-2.93.12c-.68,0-.86-.18-.86-.36,0-.21.12-.42.74-.59,1.51-.42,1.83-.89,2.69-2.64.71-1.42,3.91-9.86,5.15-12.79.03-.06.15-.41.15-.53,0-.09-.03-.18.06-.24.41-.42,1.33-1.51,1.54-1.84.18-.27.38-.38.53-.38s.27.06.5.65c0,0,.03,0,.03,0ZM71.76,73.49c-.44-1.39-1.75-4.98-2.16-5.95-.06-.21-.24-.15-.33.09-.53,1.42-1.95,5.15-2.13,5.86-.03.15.09.3.21.3,1.15-.03,3.34-.06,4.29-.06.03,0,.15-.12.12-.24Z"/>
        <path class="st1" d="M82.47,63.18c.65,0,2.99.12,4.5.12.15,0,.56.3.65.38.44.53,1.27,1.45,2.49,2.87,1.45,1.78,7.25,7.79,8.82,9.45.15.15.27-.12.27-.18.15-.86.06-4.21.06-6.69,0-1.01-.09-2.4-.18-3.17-.06-.59-.36-1.27-1.83-1.66-.59-.15-.98-.33-.98-.68,0-.21.33-.36.86-.36.74,0,1.42.03,2.01.03,1.42,0,2.63-.15,3.4-.15.5,0,.71.18.71.38,0,.18-.21.44-.74.59-1.54.5-1.69,1.04-1.83,2.22-.09,1.07-.3,8.56-.3,11.08,0,1.24.18,3.85.18,4.62,0,.27-.33.56-.47.56-.62,0-1.33-.77-1.6-1.12-.56-.74-1.12-1.42-1.92-2.4-2.78-3.41-7.6-8.5-10.24-11.61-.15-.18-.33.06-.33.15-.06.8-.12,1.48-.15,3.82-.03,4.12-.09,6.37.06,7.82.12.95.44,1.45,1.86,1.9.62.18.83.39.83.56,0,.33-.42.44-.98.44-.86,0-1.54-.12-2.57-.12-.65,0-2.31.09-2.81.09-.41,0-.77-.15-.77-.38,0-.3.36-.44.65-.53,1.36-.42,2.07-.65,2.16-2.87.15-3.32.53-9,.53-11.14,0-1.18-.09-1.54-.18-1.66-.53-.65-.74-1.07-2.28-1.42-.33-.06-.77-.3-.77-.5,0-.24.36-.44.89-.44h0Z"/>
        <path class="st1" d="M114.54,63.45c.27.71.8,2.22,1.18,3.32,1.63,4.59,3.64,9.95,4.23,11.43.98,2.4,1.63,2.69,2.63,2.99.5.15.77.33.77.53s-.3.44-.98.44c-.74,0-2.96-.12-3.88-.12-.98,0-2.13.06-2.9.06-.59,0-.95-.18-.95-.44,0-.15.21-.38.77-.5,1.21-.3,1.24-.77,1.18-1.24-.06-.77-.68-2.43-1.36-4.32-.03-.12-.35-.44-.71-.44-3.14-.03-4.56.06-4.97.09-.09,0-.27.21-.33.3-.95,2.37-1.27,3.7-1.27,4.29s.3,1.01,1.39,1.3c.59.15.86.33.86.59,0,.24-.42.38-.89.38-.53,0-1.27-.06-2.37-.06s-2.49.12-2.93.12c-.68,0-.86-.18-.86-.36,0-.21.12-.42.74-.59,1.51-.42,1.83-.89,2.69-2.64.71-1.42,3.91-9.86,5.15-12.79.03-.06.15-.41.15-.53,0-.09-.03-.18.06-.24.41-.42,1.33-1.51,1.54-1.84.18-.27.38-.38.53-.38s.27.06.5.65c0,0,.03,0,.03,0ZM114.6,73.49c-.44-1.39-1.75-4.98-2.16-5.95-.06-.21-.24-.15-.33.09-.53,1.42-1.95,5.15-2.13,5.86-.03.15.09.3.21.3,1.15-.03,3.34-.06,4.29-.06.03,0,.15-.12.12-.24Z"/>
        <path class="st1" d="M140.34,63.42c.47.12,1.06.21,1.33.24.12,0,.33.27.36.68.03.86.44,2.37.44,3.55,0,.39-.18.74-.5.74-.15,0-.38-.33-.56-.77-.21-.56-.68-1.51-1.12-2.07-.65-.77-2.37-2.01-4.73-2.01-4.47,0-7.1,4-7.1,8.62,0,2.07.38,3.85,1.24,5.33,1.27,2.28,3.61,3.85,6.24,3.85.36,0,1.21-.15,1.86-.59.36-.24.62-1.07.62-2.07s-.03-2.28-.12-2.64c-.18-.68-.41-1.27-2.37-1.45-.44-.03-.86-.3-.86-.56,0-.21.41-.42,1.01-.42,1.09,0,2.75.12,3.55.12.71,0,2.34-.18,3.43-.18.56,0,.8.21.8.44,0,.18-.33.44-.68.56-1.01.27-.98.62-1.04,1.04-.06.36-.15,2.46-.15,3.67,0,.42.12.53.47.89.24.18.33.3.33.5,0,.15-.24.39-.44.44-.5.15-1.51.42-2.69.65-1.27.27-3.64.59-4.38.59-3.2,0-6.15-.98-7.93-2.58-1.36-1.3-3.05-3.47-3.05-7.38,0-3.02,1.24-5.36,3.28-7.14,1.86-1.66,4.88-2.7,7.93-2.7,2.01,0,3.67.33,4.82.62v.03h0Z"/>
        <path class="st1" d="M157.03,63.3c.98,0,2.19-.12,2.6-.18.12-.03.33.18.35.38.03.53.03,2.58.03,3.17,0,.42-.21.83-.47.83s-.5-.44-.56-.74c-.38-1.66-1.21-2.1-1.89-2.22-.56-.09-1.83-.21-4.11-.18-.12,0-.35.12-.38.83-.06.74-.15,4.86-.12,6.49,0,.09.12.3.3.3h2.37c2.1,0,2.04-.12,2.6-1.42.18-.44.38-.77.65-.77.24,0,.33.5.3.83-.06.83-.12,1.36-.12,2.04,0,.8.06,1.27.12,2.01.03.53-.15.89-.38.89s-.47-.36-.56-.65c-.38-1.3-.77-1.51-1.92-1.6-.95-.09-2.04-.09-2.96-.09-.12,0-.38.3-.38.36-.12.83-.09,3.14-.06,4.12.03.71,0,1.81.12,2.43.09.27.35.65.65.71.47.09,1.39.18,2.4.18.89,0,1.98,0,2.72-.27.89-.33,1.69-1.04,2.34-2.19.41-.77.68-1.04.92-1.04.3,0,.27.62.24.86,0,.24-.86,2.96-1.12,3.44-.09.21-.56.38-.71.38-.33,0-7.63-.15-9.85-.15-1.98,0-2.31.15-3.37.15-.56,0-1.01-.09-1.01-.38,0-.27.38-.47.89-.59,1.51-.36,1.89-.65,2.01-2.25.09-1.24.24-3.5.24-7.17s.03-4.86-.03-5.72c-.06-1.07-.3-1.66-1.57-1.9-.62-.12-.95-.24-.95-.53,0-.27.5-.44.92-.44,1.39,0,3.82.09,5.36.09h4.44-.05,0Z"/>
        <path class="st1" d="M165.11,63.18c1.83,0,2.46.12,4.79.12.06,0,.3.27.33.41.27.86.53,1.42,1.12,2.67,1.48,3.05,4.26,8.88,4.82,9.62.06.06.24.12.27.09.68-1.24,3.99-7.76,4.94-10.07.15-.36.71-1.66.86-2.28.03-.12.3-.44.36-.44,2.07,0,4.44-.12,4.7-.12.35,0,.8.09.8.36,0,.3-.33.44-.86.56-.47.12-.86.27-1.33.5-.5.24-.71.86-.71,2.37,0,4.98.18,10.81.35,12.29.15.98.42,1.48,1.89,1.87.5.12.8.42.8.62,0,.33-.44.44-.89.44-.33,0-3.11-.15-4.17-.15-.53,0-2.13.09-2.81.09-.47,0-.86-.12-.86-.41,0-.27.41-.53.83-.62,1.21-.3,1.3-1.21,1.39-2.4.12-1.45.18-9.09.15-10.57,0-.3-.18-.44-.3-.21-.98,1.92-3.46,7.2-4.32,9.15-.77,1.72-1.39,3.29-1.78,4.24-.35.86-.68.92-.83.92s-.41-.33-.56-.65c-.15-.47-.53-1.63-1.09-3.02-1.54-3.79-4.11-9.33-4.67-10.43-.09-.18-.18-.12-.18.09-.24,1.98-.5,7.14-.47,10.34.03,1.69.3,2.07,1.8,2.55.62.21.86.38.86.65,0,.24-.36.42-.86.42-.89,0-2.01-.12-2.72-.12s-1.95.12-2.63.12c-.44,0-.92-.06-.92-.42,0-.21.3-.38.8-.56,1.63-.56,1.95-.95,2.22-3.02.27-2.25.95-9.3.98-11.94,0-.38-.06-1.51-1.12-1.78-.47-.15-.86-.27-1.21-.36-.21-.06-.62-.27-.62-.53s.21-.38.86-.38h-.01Z"/>
        <path class="st1" d="M201.11,63.3c.98,0,2.19-.12,2.6-.18.12-.03.33.18.35.38.03.53.03,2.58.03,3.17,0,.42-.21.83-.47.83s-.5-.44-.56-.74c-.38-1.66-1.21-2.1-1.89-2.22-.56-.09-1.83-.21-4.11-.18-.12,0-.35.12-.38.83-.06.74-.15,4.86-.12,6.49,0,.09.12.3.3.3h2.37c2.1,0,2.04-.12,2.6-1.42.18-.44.38-.77.65-.77.24,0,.33.5.3.83-.06.83-.12,1.36-.12,2.04,0,.8.06,1.27.12,2.01.03.53-.15.89-.38.89s-.47-.36-.56-.65c-.38-1.3-.77-1.51-1.92-1.6-.95-.09-2.04-.09-2.96-.09-.12,0-.38.3-.38.36-.12.83-.09,3.14-.06,4.12.03.71,0,1.81.12,2.43.09.27.35.65.65.71.47.09,1.39.18,2.4.18.89,0,1.98,0,2.72-.27.89-.33,1.69-1.04,2.34-2.19.41-.77.68-1.04.92-1.04.3,0,.27.62.24.86,0,.24-.86,2.96-1.12,3.44-.09.21-.56.38-.71.38-.33,0-7.63-.15-9.85-.15-1.98,0-2.31.15-3.37.15-.56,0-1.01-.09-1.01-.38,0-.27.38-.47.89-.59,1.51-.36,1.89-.65,2.01-2.25.09-1.24.24-3.5.24-7.17s.03-4.86-.03-5.72c-.06-1.07-.3-1.66-1.57-1.9-.62-.12-.95-.24-.95-.53,0-.27.5-.44.92-.44,1.39,0,3.82.09,5.36.09h4.44-.05,0Z"/>
        <path class="st1" d="M208.33,63.18c.65,0,2.99.12,4.5.12.15,0,.56.3.65.38.44.53,1.27,1.45,2.49,2.87,1.45,1.78,7.25,7.79,8.82,9.45.15.15.27-.12.27-.18.15-.86.06-4.21.06-6.69,0-1.01-.09-2.4-.18-3.17-.06-.59-.36-1.27-1.83-1.66-.59-.15-.98-.33-.98-.68,0-.21.33-.36.86-.36.74,0,1.42.03,2.01.03,1.42,0,2.63-.15,3.4-.15.5,0,.71.18.71.38,0,.18-.21.44-.74.59-1.54.5-1.69,1.04-1.83,2.22-.09,1.07-.3,8.56-.3,11.08,0,1.24.18,3.85.18,4.62,0,.27-.33.56-.47.56-.62,0-1.33-.77-1.6-1.12-.56-.74-1.12-1.42-1.92-2.4-2.78-3.41-7.6-8.5-10.24-11.61-.15-.18-.33.06-.33.15-.06.8-.12,1.48-.15,3.82-.03,4.12-.09,6.37.06,7.82.12.95.44,1.45,1.86,1.9.62.18.83.39.83.56,0,.33-.41.44-.98.44-.86,0-1.54-.12-2.57-.12-.65,0-2.31.09-2.81.09-.41,0-.77-.15-.77-.38,0-.3.36-.44.65-.53,1.36-.42,2.07-.65,2.16-2.87.15-3.32.53-9,.53-11.14,0-1.18-.09-1.54-.18-1.66-.53-.65-.74-1.07-2.28-1.42-.33-.06-.77-.3-.77-.5,0-.24.35-.44.89-.44h0Z"/>
        <path class="st1" d="M246.35,63.24c1.45-.12,1.89-.24,2.28-.47.24-.15.35-.24.47-.24.15,0,.38.33.27.74-.24.83-.53,2.34-.62,3.44,0,.27-.21.77-.56.77-.21,0-.38-.15-.5-.92-.3-1.69-.68-1.96-2.13-2.01-.71,0-2.87.03-3.61.15-.18.03-.3.24-.3.36,0,1.36-.03,3.61-.03,6.16,0,3.41.03,6.55.15,8.03.09.95.33,1.54,2.31,1.96.41.09.74.41.74.59,0,.27-.5.39-.83.39-.24,0-3.61-.12-4.38-.12-.92,0-3.2.18-3.7.18-.56,0-.92-.12-.92-.36,0-.27.35-.53.65-.62,1.92-.47,2.04-.86,2.16-2.93.12-1.75.27-7.64.27-9.89,0-1.69-.03-2.7-.03-3.46,0-.27-.24-.42-.33-.42-.56-.09-2.69-.12-3.34-.12-.47,0-1.3.3-1.63.68-.3.33-.62.86-1.01,1.57-.36.59-.53.77-.65.77-.3,0-.44-.35-.44-.65,0-.56.53-2.49.56-4,0-.12.27-.59.47-.59s.33.24.5.47c.09.12.65.41,1.21.47.65.06,4.56.18,6.57.18,1.66,0,5.41-.03,6.39-.09v-.02h0Z"/>
      </g>
      <path class="st0" d="M205.66,53.71c-.74-.03-.97-.14-1.2,0-.63-.35-.26-.84-.72-1.2-.56-.08-1.12-.16-1.68-.24-.65-.38-.87-1.43-1.44-1.92v-1.2h-.96c.12-1.79.26-2.91-.96-3.84.19-2.5,1.77-1.89,2.64-3.36.72-1.21.23-4.33.24-6.24-.62-.57-1.2-1.21-1.44-2.16h-.96c-.05-.62-.11-.82-.24-1.2-.72-.18-1.51-.81-2.64-.48-.27.08-.09.56-.72.48-.07,0-.52-.44-.72-.48-.46-.08-1.1.28-1.2.24-1.11-.46-1.75-1.39-3.6-1.44v.72c-.41.08-5.76.72-5.76.72-.48-.26-.43-1.32-1.68-.96-1.47.43-3.17,1.37-5.04,1.44-.39.94-.73,2.11,0,2.88.85.54,3.19,1.35,4.32,2.4.79,1.13.11,2.89.48,4.56.52,2.35,1.3,9.18.48,10.32.02,1.17-.09,1.25.96,1.44-.27.71-.6.86-1.2,1.2-.31.44-.15.18-.48-.24-1.27,0-2.83,1.41-3.12,2.16-.31.55.35,1.57.72,2.16,1.89.35,8.66.09,10.8-.72.71-.27,1.12-.92,1.92-1.2.15-.41.05-.23.24-.48.09-3.02-2.02-3.15-4.32-3.6-.1-1.43-.93-4.21-.24-5.28.09-.9.19-.89.48-1.44,1.83.02,3.41.12,4.56-.24.53.96,1.1.82,1.92,1.44,1.58,2.06,1.12,5.77,1.44,8.88,1.17.58,4.55,2.75,6.48,1.44,2.12-.18,2.85-2.77,2.64-4.56ZM197.02,40.75c-1.03.64-2.49,1.76-3.6,2.16-.56.2-1.08,0-1.44.24-3.2.05-3.36-.76-5.04-1.92.15-.82.67-.97.48-1.92-.06-.32-.66-.5-.48-1.2.3-1.16.83-.61.24-1.92l.48-.48c1.27.03,2.8.62,3.84,0,.08-.24.16-.48.24-.72,1.18-.63,4.83,1.81,5.52,2.16.23.55.4.93.48,1.68h-.96c0,.8.07,1.43.24,1.92ZM174.7,48.67c-.1.49-.06.46-.24.72-.38.74-.82.53-1.44.96-.6.94-.15,2.95-.72,3.84v2.16c-1.89.4-4.03.25-5.52.96-1.09-1.8-1.2-.25-2.4-.72l-1.68-1.68c-1.7-2.18.61-4.66-.72-5.76.4-.41.99-.59,1.44-.96h1.92c.14.08,1.87,4.93,1.92,5.52,1.02.23,2.32.37,3.12-.24.24-.08.48-.16.72-.24,0-1.65-.11-2.59-.48-3.6v-8.16c-.34-1.12-.73-1.79-.72-2.64-.08-.08-.16-.16-.24-.24-1.73.18-2.26,1.04-3.84,1.2-.21.94-.38,1.74.24,2.4.09,2.62-.43,2.48-1.68,3.6-1.49-.16-1.82-.89-2.88-1.44.07-1.61.98-4.12.48-5.04.05-.62.11-.82.24-1.2,1.55-.34,5.89-.05,7.2-.96,2.93.18,2.52,4.59,3.84,6.48.18.17.53.32.72.48,1.15,0,1.52-.13,2.16-.48-.11-1.99,1.08-3.6.48-6.24-.35-1.55-1.06-2.94-1.2-4.56l-.24-.24c-1.73,0-1.45.43-2.4.96-.4.17-3.12-.68-3.84-1.2-.6.35-.28-.06-.48.72-1.42.16-7.31.89-7.68,1.2l-.96-.96c-1.25.07-1.12.51-1.68.72-1.05.4-1.24-.84-1.92-.72-2.19.38-3.96,1.22-6.72,1.2,0,1.36.13,2.76.72,3.6.91.7,1.82.77,2.88.72v-.72c1.27.26,2.45,1.07,3.6,1.44.33,1.78.65,6.24,1.92,6.96-.07,1.25-.49,1.87-.72,2.64l.24,4.08h.72c.02,1.06,0,1.64-.48,2.16.03.96.14,1.32-.48,1.68-.65.29-.39-.59-1.44-.24-1.28.42-2.67,1.16-4.56,1.2-.08.08-.16.16-.24.24,0,1.44.24,2.15.48,3.12,4.48,1.11,9.06.27,13.68-.96.4.08.8.16,1.2.24.73-.02,1.33-.64,1.92-.48l.72.72c1.68-.08,3.36-.16,5.04-.24,1.34-.36,2.04-1.31,3.36-1.68.8-3.94-.2-7.79-1.92-10.08-.4-.26-.63-.18-1.44-.24h0ZM152.62,52.03c.09-1.06.34-1.82-.24-2.64-.32-.58.11-.17-.48-.48-.83-.41-4.45.75-5.52,1.2-.28-.35-.48-.52-.72-.96-2.53.1-2.44,1.66-4.56,1.92v2.16h1.2l1.68,1.44c.03,4.07-.9,3.5-2.16,5.76-1.72,0-3.52-.71-4.56-1.44-1.17-.43-.81-1-1.44-1.92-.64-.94-1.51-1.56-1.92-2.88-.96-3.13.21-6.46-.48-9.12,1.62-1.49,2.4-3.58,4.32-4.8,2.16-1.18,5.8,4.09,6.24,6,.7,0,1.31,0,1.68.24.7,0,1.31,0,1.68-.24.3-.41.4-1.07.72-1.44-.04-1.25-.13-1.27-.96-1.68.05-2.21.92-4.73,0-6v-1.2c-1.91-.34-2.12.84-3.6.96-.7.06-1.21-1.04-1.92-1.2-.84-.19-1.05.38-1.44.48-.72-.08-1.44-.16-2.16-.24-3.23.83-5.7,3.34-7.92,5.28-.94,1.46-.9,6.45-1.92,7.68-.05,1.61.1,1.73,1.2,2.16-.2.82-.12.61-.72.96.03,1.32.49,1.7.72,2.4.32.97-.43,1.26,0,2.16v.24c.25.33,1.23.34,1.44.72.5.88.03,1.77.48,2.64.48.94,2.43,2.61,3.36,3.12,4.61,2.51,7.58-.8,10.56-1.44.64-.14,2.68.32,3.84.24.08-.08.16-.16.24-.24,0-3.05-.08-5.24-.48-7.44,1.04-.96,2.59-1.65,3.84-2.4h0ZM124.06,45.31c-.19-5.45,1.07-3.89,4.32-5.76-.04-2.12-.84-1.98-1.68-3.12-1.66.08-10.79,1.8-11.28,2.16-.57.34-.38.7-.72,1.2.58,1.03,1.87.25,3.12.96.68.39,1.37,1.25,2.16,1.68.04,3.78.83,7.24,1.2,10.32-2.05-.92-2.62-3.23-4.8-3.84-.06-.93.41-1.24,0-2.4-.38-1.06-1.57-1.81-2.16-2.64v-.96c-.4-.24-.8-.48-1.2-.72-.23-.31-1.56-3.48-1.68-3.84-.96-.23-1.53-.53-1.92.48-.18-.26-.15-.22-.24-.72-1.36,0-1.48.08-1.92.96-.62-.3-.69-.6-.96-1.2h-1.68c-.32,1.27-1.46,1.32-2.64,1.68.05,3.01,2.88,2.54,4.56,3.84,1.52,1.96.1,6.15,1.44,8.4v.48h.72c.2,2.05-.67,2.4-.72,4.8h.96c-.08,1.44-.16,2.88-.24,4.32-1.51.1-3.16.72-3.84,1.68-.99-.36-1.16-1.32-1.92-1.68h-1.44c-.81-.31-2.05-1.53-2.64-2.16-.23-.34-1.37-4.49-1.44-5.04h-1.2c-.03-1.58-.93-6.71-1.68-7.68-.24-.08-.48-.16-.72-.24v-.96c-.24-.16-.48-.32-.72-.48v-1.68c-.33-1.11-1.19-2.11-1.68-3.12-.41-.15-.23-.05-.48-.24-1.99.12-1.62,1.14-3.36,1.44.06.99.05.69,0,1.68-.48.16-.96.32-1.44.48-.04,1.62.15,1.91,1.2,2.4-.45.6-1.28,1.28-1.92,1.68-.18,1.56-.89,3.03.24,3.84-.46.81-.69,1.2-.48,2.16-.37.13-.4.17-.96.24-.02,2.46-.3,3.45-.24,5.76-1.99.3-.34.56-.96,1.92-.16.35-.74.71-.96,1.2-1,.22-2.47.77-2.88.72-.61.7-.86,1.66-1.44,2.4.03,1.92,2.22,3.68,4.56,2.88.34-.12.19-.53.96-.48.55.03,1.98.55,2.88.24.95-.33.58-1.16,1.44-.48,1.84.07,2.14-.49,2.16-2.16.79.38,1.34.35,1.92.72.18.26.15.22.24.72,2.94-.3,6.07,1.09,9.6.24,1.25-.3,2.68-1.26,3.84-1.44.77-.12,1.66.72,2.4.72.82,0,.37-.57.72-.72.39-.16,1.4.42,2.16.24.51-.12,1.69-.65,2.16-.72.83-.12,1.55.34,2.64,0,1.61-.5,2.34-1.64,3.6-2.16.86-.34,2.06.91,2.64,1.92,1.62-.07,2.85-1.23,4.08-1.92,0-5.18-.11-8.29-1.2-13.2-.42-1.88.29-3.83-.48-4.8h0ZM89.98,50.83c1.47,1.35,1.49,3.04,2.16,5.28-.22.22-.32.42-.48.72-.48.16-.96.32-1.44.48-.31-.49-.51-.55-.72-1.2-1.13-1.56.09-3.78.48-5.28ZM90.94,65.47l-.24.24v-.48h.48l-.24.24ZM94.54,62.35h-.72v1.44c-.16-.16-.32-.32-.48-.48-1.69.02-3.99.2-5.28-.24-.39-.96-.37-1.26-.24-2.4,4.12-.04,3.89-.45,6.72.72v.96ZM117.34,61.15s-1.96-.14-2.16-.24c-1.05-.28-.43-.28-.96-.96-.4-.24-.8-.48-1.2-.72-.41-.77.12-2.25-.24-2.88-.26-.18-.22-.15-.72-.24.09-.89.4-1.81.24-2.16-.36-.59-.1-.38-.96-.48-.2-.92-.34-1.7.24-2.4v-2.4c.75.49,1.66,1.09,2.4,1.68.83,1.04.59,2.78,1.2,4.08.24.51.92.56,1.2.96.08.56.16,1.12.24,1.68.26.68,1.16,1.17,1.44,1.68.21.39.06.94.24,1.2-.14,1.26-.32.72-.96,1.2ZM119.02,62.11v-.48c.15.36.3.1,0,.48ZM119.26,62.83v-.48l.72.72c-.24-.08-.48-.16-.72-.24Z"/>
    </g>
  </g>
</svg>