<?xml version="1.0" encoding="UTF-8"?>
<svg id="Capa_1" xmlns="http://www.w3.org/2000/svg" version="1.1" viewBox="0 0 283.44 113.28">
  <!-- Generator: Adobe Illustrator 29.7.1, SVG Export Plug-In . SVG Version: 2.1.1 Build 8)  -->
  <defs>
    <style>
      .st0 {
        fill: #fff;
      }
    </style>
  </defs>
  <g id="Layer_1">
    <g>
      <path class="st0" d="M132.39,42.06c0-9.23-8.49-11.25-8.49-11.25,0,0,6.33-1.82,6.33-10.3,0-11.25-14.41-10.64-21.89-10.64h-17.85v45.39s17.44.07,23.24.07c12.06,0,18.66-4.04,18.66-13.27ZM109.16,27.28v-5.56s3.16-.18,3.16,2.75-3.16,2.81-3.16,2.81ZM109.69,42.8v-6.4s3.64-.2,3.64,3.17-3.64,3.23-3.64,3.23Z"/>
      <rect class="st0" x="133.9" y="9.6" width="16.77" height="45.46"/>
      <path class="st0" d="M173.02,56.56c12.1,0,18.69-8.14,18.69-8.14l.11-20.88h-19.84v11.21h4.62v2.16s-1.23.92-3.01.92c-2.7,0-4.05-3.54-4.05-9.71s1.58-8.48,4.05-8.48,3.14,2.61,3.14,2.61l15.09-2.51s-.74-15.09-18.93-15.09c-13.3,0-20.12,10.42-20.12,23.83s8.15,24.07,20.24,24.07h0Z"/>
      <path class="st0" d="M100.2,58.7h-9.63l.07,45.8h9.5c6.87,0,12.59-4.31,12.59-24.25,0-17.11-5.7-21.55-12.53-21.55ZM100.46,88.4v-14.13s2.39-.61,2.39,6.64c0,7.67-2.39,7.49-2.39,7.49Z"/>
      <path class="st0" d="M116.56,58.69l-5.2,45.81h8.3l.62-5.93h3.22l.48,5.93h9.11l-4.61-45.81h-11.93,0ZM121.09,85.25l1.02-10.53.83,10.53h-1.85Z"/>
      <polygon class="st0" points="183.71 58.76 182.37 71.63 181.15 58.83 171.86 58.83 177.85 87.93 177.85 104.63 186.27 104.63 186.27 87.52 192.94 58.76 183.71 58.76"/>
      <path class="st0" d="M142.61,58.7h-8.4l.06,45.8h8.28c5.99,0,10.99-4.31,10.99-24.25,0-17.11-4.97-21.55-10.93-21.55h0ZM142.84,88.4v-14.13s2.08-.61,2.08,6.64c0,7.67-2.08,7.49-2.08,7.49Z"/>
      <path class="st0" d="M163.22,58.7h-8.4l.06,45.8h8.28c5.99,0,10.99-4.31,10.99-24.25,0-17.11-4.97-21.55-10.93-21.55ZM163.45,88.4v-14.13s2.08-.61,2.08,6.64c0,7.67-2.08,7.49-2.08,7.49Z"/>
    </g>
  </g>
</svg>