<?xml version="1.0" encoding="UTF-8"?>
<svg id="Capa_1" xmlns="http://www.w3.org/2000/svg" version="1.1" viewBox="0 0 283.44 113.28">
  <!-- Generator: Adobe Illustrator 29.7.1, SVG Export Plug-In . SVG Version: 2.1.1 Build 8)  -->
  <defs>
    <style>
      .st0 {
        fill: #fff;
      }
    </style>
  </defs>
  <g id="Layer_1">
    <g>
      <g>
        <path class="st0" d="M66.67,70.31c-5.39,6.17-12.96,9.16-22.37,9.16-8.86,0-16.62-2.81-22.09-8.16-5.84-5.71-8.49-12.96-8.49-23.93,0-19.49,11.87-32,30.4-32,16.62,0,27.48,9.61,28.67,24.93h-18.35c-.73-3.9-1.46-5.71-2.83-7.25-1.73-1.72-4.11-2.72-6.94-2.72-7.03,0-11.32,6.16-11.32,16.41,0,5.71,1,10.52,3.1,13.69,1.55,2.54,4.2,3.81,7.94,3.81s6.66-1.45,8.12-3.63c.73-1.27.91-2.27,1.92-6.07h18.53c-.64,6.89-2.37,11.42-6.3,15.77h.01Z"/>
        <path class="st0" d="M94.43,17.46v45.6h27.11v14.87h-46.29V17.46h19.18Z"/>
        <path class="st0" d="M143.55,17.46v60.47h-19.17V17.46h19.17Z"/>
        <path class="st0" d="M199.69,70.31c-5.39,6.17-12.96,9.16-22.37,9.16-8.86,0-16.62-2.81-22.09-8.16-5.84-5.71-8.49-12.96-8.49-23.93,0-19.49,11.87-32,30.4-32,16.62,0,27.48,9.61,28.67,24.93h-18.35c-.73-3.9-1.46-5.71-2.83-7.25-1.73-1.72-4.11-2.72-6.94-2.72-7.03,0-11.32,6.16-11.32,16.41,0,5.71,1,10.52,3.1,13.69,1.55,2.54,4.2,3.81,7.94,3.81s6.66-1.45,8.12-3.63c.73-1.27.91-2.27,1.92-6.07h18.53c-.64,6.89-2.37,11.42-6.3,15.77h.01Z"/>
        <path class="st0" d="M227.45,17.46v21.39l18.26-21.39h22.09l-22,24.66,23.92,35.81h-22.37l-14.15-23.21-5.75,5.8v17.41h-19.17V17.46h19.17,0Z"/>
      </g>
      <g>
        <path class="st0" d="M26.63,83.4c3.74,0,5.66,1.63,5.66,4.84,0,1.88-.77,3.36-2.21,4.18-.75.44-1.94.7-3.21.7h-2.72v4.37h-4.47v-14.09h6.96-.01ZM27.54,89.44c.34-.27.53-.7.53-1.2,0-.57-.28-1.03-.7-1.29-.23-.15-.75-.21-1.4-.21h-1.77v3.04h1.77c.83,0,1.25-.11,1.57-.34Z"/>
        <path class="st0" d="M44.6,83.4v3.34h-7.19v1.94h6.1v3.23h-6.1v2.24h7.38v3.34h-11.91v-14.09s11.72,0,11.72,0Z"/>
        <path class="st0" d="M53.22,83.4c1.68,0,2.81.3,3.59.95.94.74,1.34,1.67,1.34,3.02,0,1.77-.6,2.7-2.21,3.46.83.36,1.28.65,1.62,1.06.45.51.68,1.37.68,2.37v2.22c0,.34.06.53.38,1.01h-4.47c-.19-.42-.26-.72-.26-1.22v-1.88c0-.49-.25-1.08-.57-1.33-.36-.3-.94-.44-1.7-.44h-1.66v4.88h-4.47v-14.09h7.73ZM53.95,88.11c0-.53-.23-1.01-.55-1.18-.23-.13-.68-.19-1.3-.19h-2.06v2.72h1.91c1.45,0,2-.36,2-1.35Z"/>
        <path class="st0" d="M65.95,83.4c1.62,0,2.94.4,3.93,1.18,1.72,1.33,2.47,3.15,2.47,6.02,0,4.25-2.49,6.88-6.55,6.88h-6.59v-14.09h6.74ZM66.84,93.47c.32-.23.57-.59.72-.95.19-.59.32-1.42.32-2.07,0-2.53-.85-3.55-2.96-3.55h-1.19v7.07h1.23c.74,0,1.45-.19,1.87-.51h0Z"/>
        <path class="st0" d="M77.56,83.4v14.09h-4.47v-14.09s4.47,0,4.47,0Z"/>
        <path class="st0" d="M90.28,83.4v3.34h-7.19v1.94h6.1v3.23h-6.1v2.24h7.38v3.34h-11.91v-14.09s11.72,0,11.72,0Z"/>
        <path class="st0" d="M95.65,83.4l4.68,8.03v-8.03h4.47v14.09h-4.42l-4.72-8.03v8.03h-4.47v-14.09h4.47-.01Z"/>
        <path class="st0" d="M112.56,83.4c1.62,0,2.94.4,3.94,1.18,1.72,1.33,2.47,3.15,2.47,6.02,0,4.25-2.49,6.88-6.55,6.88h-6.59v-14.09h6.74-.01ZM113.45,93.47c.32-.23.57-.59.72-.95.19-.59.32-1.42.32-2.07,0-2.53-.85-3.55-2.96-3.55h-1.19v7.07h1.23c.75,0,1.45-.19,1.87-.51h0Z"/>
        <path class="st0" d="M132.22,85.03c1.28,1.29,1.98,3.29,1.98,5.41s-.7,4.1-1.98,5.39c-1.28,1.33-3.28,2.09-5.38,2.09s-4.08-.76-5.36-2.09c-1.28-1.29-2-3.27-2-5.39s.72-4.14,2-5.41c1.34-1.33,3.32-2.09,5.36-2.09s4.08.76,5.38,2.09ZM124.11,90.43c0,2.51.98,3.93,2.74,3.93s2.72-1.42,2.72-3.93-1-3.95-2.72-3.95-2.74,1.42-2.74,3.95Z"/>
        <path class="st0" d="M149.86,83.4v3.34h-7.19v1.94h6.11v3.23h-6.11v2.24h7.38v3.34h-11.91v-14.09s11.72,0,11.72,0Z"/>
        <path class="st0" d="M155.35,83.4v10.62h6.32v3.46h-10.78v-14.09h4.47-.01Z"/>
        <path class="st0" d="M180.92,95.71c-1.25,1.44-3.02,2.13-5.21,2.13-2.06,0-3.87-.66-5.15-1.9-1.36-1.33-1.98-3.02-1.98-5.58,0-4.54,2.76-7.45,7.08-7.45,3.87,0,6.4,2.24,6.68,5.81h-4.28c-.17-.91-.34-1.33-.66-1.69-.4-.4-.96-.63-1.62-.63-1.64,0-2.64,1.44-2.64,3.82,0,1.33.23,2.45.72,3.19.36.59.98.89,1.85.89s1.55-.34,1.89-.84c.17-.3.21-.53.45-1.42h4.32c-.15,1.6-.55,2.66-1.47,3.67h.02Z"/>
        <path class="st0" d="M195.09,85.03c1.28,1.29,1.98,3.29,1.98,5.41s-.7,4.1-1.98,5.39c-1.28,1.33-3.28,2.09-5.38,2.09s-4.08-.76-5.36-2.09c-1.28-1.29-2-3.27-2-5.39s.72-4.14,2-5.41c1.34-1.33,3.32-2.09,5.36-2.09s4.08.76,5.38,2.09ZM186.99,90.43c0,2.51.98,3.93,2.74,3.93s2.72-1.42,2.72-3.93-1-3.95-2.72-3.95-2.74,1.42-2.74,3.95Z"/>
        <path class="st0" d="M201.94,83.4l4.68,8.03v-8.03h4.47v14.09h-4.42l-4.72-8.03v8.03h-4.47v-14.09h4.47,0Z"/>
        <path class="st0" d="M215.56,97.48v-10.47h-4.13v-3.61h12.66v3.61h-4.02v10.47h-4.51Z"/>
        <path class="st0" d="M232.13,83.4c1.68,0,2.81.3,3.59.95.94.74,1.34,1.67,1.34,3.02,0,1.77-.6,2.7-2.21,3.46.83.36,1.28.65,1.62,1.06.45.51.68,1.37.68,2.37v2.22c0,.34.06.53.38,1.01h-4.47c-.19-.42-.25-.72-.25-1.22v-1.88c0-.49-.26-1.08-.58-1.33-.36-.3-.94-.44-1.7-.44h-1.66v4.88h-4.47v-14.09h7.73ZM232.85,88.11c0-.53-.23-1.01-.55-1.18-.23-.13-.68-.19-1.3-.19h-2.06v2.72h1.92c1.45,0,2-.36,2-1.35h0Z"/>
        <path class="st0" d="M250.28,85.03c1.28,1.29,1.98,3.29,1.98,5.41s-.7,4.1-1.98,5.39c-1.28,1.33-3.28,2.09-5.38,2.09s-4.08-.76-5.36-2.09c-1.28-1.29-2-3.27-2-5.39s.72-4.14,2-5.41c1.34-1.33,3.32-2.09,5.36-2.09s4.08.76,5.38,2.09ZM242.18,90.43c0,2.51.98,3.93,2.74,3.93s2.72-1.42,2.72-3.93-1-3.95-2.72-3.95-2.74,1.42-2.74,3.95Z"/>
        <path class="st0" d="M257.13,83.4v10.62h6.32v3.46h-10.78v-14.09h4.47-.01Z"/>
      </g>
    </g>
  </g>
</svg>