<?xml version="1.0" encoding="UTF-8"?>
<svg id="Capa_1" xmlns="http://www.w3.org/2000/svg" version="1.1" viewBox="0 0 283.44 113.28">
  <!-- Generator: Adobe Illustrator 29.7.1, SVG Export Plug-In . SVG Version: 2.1.1 Build 8)  -->
  <defs>
    <style>
      .st0 {
        fill: #fff;
      }
    </style>
  </defs>
  <g id="Capa_11" data-name="Capa_1">
    <g>
      <path class="st0" d="M117.99,34.29l-16.97.98-1.38-23.93,16.97-.98.4,6.92-7.1.41.11,1.91,6.29-.36.34,5.94-7.01.4.12,2.14,7.82-.45.4,7.01h0Z"/>
      <path class="st0" d="M112.58,103.98l-10.55,1.28-5.11-8.76,1.12,9.25-9.61,1.16-2.93-24.18,10.29-1.25,5.54,7.61-.99-8.17,9.31-1.13,2.93,24.18h0Z"/>
      <path class="st0" d="M122.61,7.3c1.32-.01,2.43.43,3.33,1.32.79.78,1.2,1.7,1.2,2.76s-.38,2.04-1.16,2.83c-.89.9-1.99,1.36-3.31,1.37-1.33.01-2.44-.43-3.33-1.32-.79-.78-1.19-1.71-1.2-2.78,0-1.07.38-2.01,1.16-2.81.88-.91,1.98-1.36,3.31-1.37ZM127.18,33.53l-8.86.07-.13-16.7,8.85-.07.14,16.7Z"/>
      <path class="st0" d="M122.27,102.72l-8.84-.45.84-16.67,8.84.45s-.84,16.67-.84,16.67ZM119.24,76.27c1.31.07,2.4.57,3.25,1.51.75.83,1.09,1.77,1.04,2.82-.06,1.09-.5,2.01-1.32,2.76-.94.85-2.07,1.24-3.38,1.18-1.33-.07-2.41-.57-3.25-1.51-.75-.83-1.09-1.77-1.04-2.84s.49-1.98,1.32-2.74c.93-.85,2.06-1.24,3.38-1.18Z"/>
      <path class="st0" d="M148.92,14.24l.13,16.42c.02,3.01-.85,5.31-2.62,6.9-1.92,1.73-5,2.61-9.26,2.64-4.19.03-7.09-.56-8.7-1.77l.58-1.83.7-2.26.36-1.17.16-.48c1.06.58,1.9.98,2.5,1.2,1.11.41,2.28.61,3.51.6,1.08,0,1.92-.17,2.51-.48.98-.52,1.52-1.61,1.62-3.26.02-.26.03-.52.03-.79,0-.07,0-.25-.02-.54-1.67,1.6-3.44,2.41-5.29,2.42-1.37.01-2.71-.38-4.03-1.17-2.42-1.43-3.65-3.84-3.67-7.24-.01-1.86.3-3.55.96-5.08,1.25-2.94,3.46-4.42,6.62-4.44,1,0,1.85.13,2.57.4.57.22,1.22.67,1.95,1.35.27.27.54.51.8.71l-.02-2.07,8.63-.07h-.02ZM138.44,20.77c-.55,0-1.04.21-1.45.62-.43.43-.64.96-.63,1.59,0,.61.22,1.14.66,1.58.41.4.9.6,1.46.6s1.07-.21,1.47-.62c.43-.45.64-.98.63-1.59,0-.63-.23-1.15-.68-1.58-.4-.4-.88-.6-1.46-.6h0Z"/>
      <path class="st0" d="M144.78,84.3l.67,16.41c.12,3.01-.67,5.34-2.39,6.98-1.86,1.79-4.92,2.77-9.17,2.94-4.19.17-7.11-.33-8.76-1.49l.52-1.85.63-2.28.32-1.18.15-.49c1.08.55,1.93.92,2.54,1.12,1.12.37,2.3.53,3.53.48,1.08-.04,1.91-.23,2.49-.56.96-.56,1.46-1.66,1.51-3.31,0-.26.02-.52,0-.79,0-.07-.02-.25-.04-.53-1.62,1.65-3.36,2.52-5.21,2.59-1.36.06-2.72-.29-4.07-1.03-2.47-1.35-3.77-3.72-3.91-7.12-.08-1.86.19-3.56.79-5.11,1.16-2.98,3.32-4.53,6.48-4.66,1-.04,1.85.07,2.58.32.57.2,1.24.63,1.99,1.29.28.26.56.49.82.69l-.08-2.06,8.63-.35h-.02ZM134.51,91.16c-.55.02-1.03.25-1.43.67-.41.45-.61.99-.58,1.61.02.61.26,1.13.71,1.56.42.39.92.57,1.48.55.58-.02,1.06-.25,1.45-.67.41-.46.61-1,.58-1.61-.03-.63-.27-1.15-.73-1.56-.41-.39-.9-.57-1.48-.55h0Z"/>
      <path class="st0" d="M168.86,34.27l-8.62-.57.62-9.31c.09-1.3-.33-1.98-1.25-2.04-.33-.02-.63.07-.9.27-.31.22-.48.54-.51.94l-.66,9.96-8.84-.59,1.76-26.51,8.62.57-.71,10.61c.66-.72,1.24-1.23,1.73-1.53,1.09-.67,2.4-.95,3.92-.85,1.89.13,3.38.83,4.46,2.12.93,1.1,1.34,2.32,1.25,3.69l-.88,13.26v-.02Z"/>
      <path class="st0" d="M164.34,105.25l-8.61-.57.62-9.31c.09-1.3-.33-1.98-1.25-2.04-.33-.02-.63.07-.9.27-.31.22-.48.54-.51.94l-.66,9.96-8.83-.59,1.76-26.51,8.61.57-.7,10.61c.66-.72,1.24-1.23,1.73-1.53,1.09-.67,2.4-.95,3.92-.85,1.89.13,3.38.83,4.46,2.12.92,1.1,1.34,2.32,1.25,3.68l-.88,13.26h0Z"/>
      <path class="st0" d="M182.42,23.78l-2.53.1.44,10.91-8.94.36-.44-10.91-2.55.1-.26-6.41,2.55-.1-.25-6.28,8.94-.36.25,6.28,2.53-.1.26,6.41Z"/>
      <path class="st0" d="M178.18,92.29l-2.53.1.44,10.91-8.94.36-.44-10.91-2.55.1-.26-6.41,2.55-.1-.25-6.28,8.94-.36.25,6.28,2.53-.1s.26,6.41.26,6.41Z"/>
      <path class="st0" d="M191.48,93.71c-1.26-1.23-2.48-1.94-3.65-2.13-.81-.13-1.27.08-1.36.64-.04.24.02.45.17.62.16.16.57.37,1.23.62,1.44.51,2.52.99,3.23,1.42,1.93,1.15,2.74,2.67,2.44,4.55-.27,1.65-1.19,2.89-2.77,3.71-1.15.6-2.48.97-3.97,1.11-1.1.1-2.17.07-3.21-.1-1.32-.21-2.85-.62-4.6-1.21-1.61-.55-2.92-1.23-3.94-2.04l3.36-4.56c.63.59,1.32,1.08,2.05,1.47.96.5,1.8.82,2.53.93.89.14,1.38-.04,1.46-.57.04-.24-.07-.46-.33-.65-.29-.23-1-.56-2.13-.98-1.74-.64-2.95-1.54-3.63-2.71-.5-.84-.68-1.72-.53-2.64.12-.76.47-1.51,1.04-2.23,1.74-2.2,4.49-2.99,8.25-2.38,2.07.33,4.59,1.17,7.54,2.51l-3.19,4.62h.01Z"/>
      <path class="st0" d="M90,36.52c2.48.92,3.86,1.36,4.13,1.33.71-.07,1.23-.49,1.58-1.27.35-.77.54-1.57.57-2.38l1.54-.16,1.78,17.5-1.41.14c-1.72-3.66-3.39-6.52-5-8.57-3.01-3.78-6.16-5.5-9.44-5.17-3.72.38-6.14,2.81-7.26,7.29s-1.31,10.36-.57,17.64c.54,5.36,1.45,9.72,2.73,13.08,2.37,6.3,5.89,9.22,10.54,8.74,2.85-.29,5.39-1.63,7.63-4.02,1.28-1.38,2.74-3.54,4.37-6.46l1.84,1.66c-1.84,3.48-3.5,6.04-5,7.67-2.66,2.9-5.78,4.54-9.36,4.9-5.47.56-10.28-1.17-14.43-5.17-4.59-4.43-7.31-10.75-8.14-18.95-.83-8.13.46-14.92,3.87-20.36,3.2-5.1,7.48-7.92,12.83-8.46,2.31-.24,4.71.1,7.19,1.02h.01Z"/>
      <path class="st0" d="M98.04,76.8c1.7-.04,2.87-.4,3.51-1.08.65-.68,1.01-2.19,1.1-4.54l1.04-27.99c.09-2.44-.22-4.04-.92-4.8-.47-.51-1.56-.89-3.26-1.14l.06-1.61,16.09.6c3.34.12,6.03.67,8.06,1.63,3.94,1.94,5.82,5.24,5.65,9.89-.13,3.44-1.28,6.11-3.45,8.01-1.66,1.42-3.39,2.31-5.2,2.65l9.96,18.4c.26.5.54.84.84,1,.3.17.68.28,1.14.34l-.06,1.51-10.44-.39-10.94-20.2h-.02l-.46,12.39c-.08,2.22.16,3.73.71,4.53.56.79,1.71,1.26,3.47,1.41l-.06,1.61-16.9-.62.06-1.61h.02ZM118.37,55.58c1.45-1.05,2.25-3.57,2.4-7.57.09-2.45-.11-4.4-.59-5.84-.84-2.44-2.49-3.71-4.95-3.8-1.33-.05-2.22.13-2.65.54s-.66,1.09-.7,2.06l-.59,16.09c3.28.06,5.64-.44,7.09-1.48h-.01Z"/>
      <path class="st0" d="M124.33,81.7c1.4-.21,2.48-1.03,3.24-2.47.49-.9,1.15-2.87,1.97-5.89l10.41-38.25,1.62-.11,15.49,34.97c1.74,3.92,3.01,6.44,3.81,7.56.8,1.12,1.87,1.61,3.19,1.47l.12,1.73-18.9,1.3-.12-1.73c1.89-.22,3.13-.49,3.71-.82s.83-1.08.75-2.26c-.04-.53-.24-1.33-.62-2.4-.23-.63-.54-1.39-.93-2.28l-1.77-4.03-13.11.9c-.67,2.77-1.1,4.57-1.29,5.41-.39,1.79-.56,3.08-.51,3.88.07.98.68,1.65,1.83,2.02.68.2,1.69.26,3.02.19l.12,1.73-11.92.82-.12-1.73h0ZM145.26,65.83l-6.7-15.41-.49.03-4.18,16.16,11.38-.78h-.01Z"/>
      <path class="st0" d="M153.04,74.65l23.31-37.39c-4.04-.3-6.46-.44-7.24-.4-.78.03-1.5.11-2.16.22-2.3.36-4.18,1.48-5.62,3.37-.86,1.14-1.89,3.2-3.09,6.19l-1.46-.11,2.06-12.75,27.85,2.08-.08,1-23.18,37.4c7.24.54,12.18.26,14.8-.85,2.62-1.11,4.83-4.59,6.61-10.45l1.38.1-2.5,14.89-30.77-2.3.07-1h.02Z"/>
      <path class="st0" d="M199.51,38.66l-.04,1.73c-1.97.09-3.24.24-3.8.45s-.85.67-.87,1.38c0,.31.04.65.13,1.02.09.37.32,1.03.67,2l7.2,16.54h.07l6.39-11.85c.41-.72.83-1.61,1.29-2.67.69-1.61,1.04-2.8,1.05-3.57.03-1.2-.36-2.01-1.15-2.42-.54-.28-1.72-.51-3.56-.71l.04-1.73,12.55.27-.04,1.73c-.92.18-1.65.4-2.19.65-.7.41-1.29,1.04-1.77,1.89l-11.36,20.98-.27,12.55c-.05,2.6.28,4.28,1,5.04s2.1,1.19,4.14,1.3l-.04,1.73-19.8-.42.04-1.73c2.12-.02,3.54-.42,4.25-1.21.71-.78,1.1-2.42,1.15-4.91l.21-10.02-9.95-22.87c-.66-1.5-1.48-2.56-2.47-3.18-.66-.39-1.34-.61-2.02-.64l.04-1.73,19.1.41h0Z"/>
    </g>
  </g>
</svg>