<?xml version="1.0" encoding="UTF-8"?>
<svg id="Capa_1" xmlns="http://www.w3.org/2000/svg" version="1.1" viewBox="0 0 283.44 113.28">
  <!-- Generator: Adobe Illustrator 29.7.1, SVG Export Plug-In . SVG Version: 2.1.1 Build 8)  -->
  <defs>
    <style>
      .st0 {
        fill: #ededed;
      }
    </style>
  </defs>
  <path class="st0" d="M190.68,71.15c0,.08.05.25-.06.24-.86-.29-1.7-.01-2.51,0-2.3.05-4.6-.03-6.9,0l2.21-.24h7.26,0Z"/>
  <path class="st0" d="M81.12,89.37v.48c-.29.15-.31-.38-.24-.48.01-.02.17.01.24,0Z"/>
  <path class="st0" d="M193.08,87.69s-.19-.04-.23,0c-.08.1.04.64-.02.87-.02.08-.19.07-.23.17-.33,1.06-.99,2.75-2.17,3.2-.14.05-1.26.33-1.37.32-.22-.01-1.23-.41-1.45-.54-.4-.24-1.22-1.33-1.42-1.76-.87-1.86-1.33-4.66-1.04-6.89,0-.05.2-.6.25-.82.3-1.17,1.09-3.15,2.19-3.87.1-.06.26,0,.34-.05.12-.06.1-.2.19-.22,2-.54,3.03.45,3.95,2.01.07.12.26.14.28.23.04.18-.05.54.02.63.04.05.2-.01.23,0,.75,2.13.83,4.46.48,6.71h0ZM186.96,85.47l.13.06c.06.7-.1.75.24,1.44.02.31.1.59.24.84.16.91.44,1.4.71,2.13.31.84.35.95.97,1.59.21.1.65.24.72,0,.54-.46.57-.37.96-1.08.03-.26.11-.5.24-.72.53-2.32.43-3.98.24-6.35-.12-.14-.2-.34-.24-.6-.3-.91-.47-1.87-.76-2.72-.69-.66-.91-1.7-2.03-1.47-.06.01-.76.77-.79.82-.71,1.27-.75,3.26-.73,4.69l.11,1.38h-.01Z"/>
  <path class="st0" d="M77.29,30.28c.2.35.17.54.65.61,1.83.25,4.36-.1,6.23-.13,1.53-.03,3.08.1,4.59-.09.86,1.37.68,3.64-.09,5.07-.32.59-.48.56-.84.9-.79.42-.63-.13-.24-.6.17-.77.23-1.51,0-2.28-.01-.02-.12-.05-.17-.13-.27-.5-.22-.82-.79-1.07-.23-.17-.43-.33-.6-.48l-.84-.24-.09.13c-2.43-.23-2.68,2.19-2.81,4.07-.08,1.17-.16,2.83-.12,3.99.02.47.1.8.33.77.36-.05.89-.18,1.01-.33.3-.21.98-.66,1.17-.99s-.11-.16.27-.45c.08-.4.24-.68.48-.84.21.1.25.53,0,.6.11.67.19,1.35.24,2.04l.16.37c.03,1.12-.05,2.24-.16,3.35-.26,1.74-.78.04-.96-.84-.5-.67-1.66-1.67-2.4-1.31l-.08-.14c-.09,2.42-.08,4.84.02,7.24.21.67.31,1.3.31,1.88.12.12.2.24.24.36.15.16.17.31.24.48.65,1.3,2.03,1.28,3.12.48.2-.34.61-.62.68-.75.19-.36-.07-.16.28-.45.09-.43.25-.77.48-1.02-.07-.02-.12-.03-.12-.05-.03-.68-.04-1.7,0-2.38,0-.03.06-.05.12-.08-.07,0-.12.02-.13,0-.61-1.1-.72-1.82.61-.78.08-.02.14-.03.17,0,1.04.98,1.19,3.3.79,4.56-.08.41-.16.81-.24,1.2-.15.59-.49,1.89-1.26,1.44l-.02.11c-3.12.02-6.24.04-9.37.05l-.08-.16c.2.3-.45.3-.38-.03.45-.45.88-.92,1.28-1.41.2-.16.31-.39.35-.69l.13-.03c.09-.52.21-1,.36-1.44l.12-.48c-.21-.17-.17-.52,0-.72.22-2.37.29-4.89-.48-7.19-.13-.08-.83-.9-.81-.96.27-.17.54-.37.81-.6.18-.85.14-1.72-.11-2.6,0-1.36-.25-2.7-.6-3.99-.1-.19-.18-.43-.24-.72-.13-.06-.19-.21-.18-.47-.29-.06-.32-.34-.06-.49-.45-.52-.61-.6-.48-.24.17,1.04.19,2.08,0,3.12-.12.18-.2.42-.24.72-.06.12-.18.37-.24.48-.22.36-.46.6-.72.72-.59.31-.48,0-.26-.47.4-1.4.03-3.09-.7-4.33-.02-.02-.14.02-.2-.04-.22-.21-.39-.57-.73-.65-1.66-.38-1.53.59-1.94,1.83.11,5.68-.27,11.44.23,17.07.04.49.12.97.24,1.44.07.45.7,2.39.98,2.62.07.06.17,0,.22.02.31.14.11.86-.24.48l-.16.13c-1.92,0-3.84,0-5.77-.02-.31-.1.49-.96.66-1.08.41-.14.13-.08.24-.24.7-1.77.87-3.75.86-5.72-.19-4.58-.3-9.18-.33-13.77-.07-.74-.25-1.43-.53-2.08-.09-.1-.09-.16-.24-.24-.16-.14-.23-.2,0-.24-.56-.57-1.3-.33-1.92,0l.16.02c-1.1,1.05-1.18,2.46-.99,3.96l-.12.1c.23.35.16.9-.24.48-.03.1-.07.1-.12,0-.23-.18-.35-.34-.36-.48-.15-.18-.28-.38-.41-.59.13-.36,0-.46-.22-.65-.07-.06,0-1.47.02-1.77.08-1.01.19-2.03.86-2.84,3.89-.03,7.77-.08,11.66-.14l.08.12h-.02Z"/>
  <path class="st0" d="M46.6,29.8c-.25,2.02-.54,4.05-.85,6.07-.05.72-.05,4.72.12,4.98.13.2,4.57-.42,4.77-.56.12-.09.15-.22.16-.38.05-1.28-.02-2.55-.1-3.83-.22-3.49-.46-7.11-1.08-10.49.19-.32,4.81-.11,5.51-.07l-.13.31c.18.16-.05.61-.24.72-.72,2.38-1.26,4.94-1.44,7.43.15.07.15.16,0,.24-.38,3.23-.4,6.83,0,10.07.25,1.11.5,2.5.24,3.6.05.41.13.81.24,1.2.09.02.16.05.17.1.12.5.32,1.45.06,1.82.12.39.2.79.24,1.2l.19.06c.2.87.38,1.73.53,2.58.13.21.22.61,0,.72l.14.36c-1.59.07-3.2.12-4.83.14l-.24-.12c.7-3.59.93-7.38.91-11.07,0-.35-.07-3.3-.24-3.29-1.18,0-2.93.3-4.13.52-.87.16-.9.37-.83,1.19.29,2.88.57,5.84.83,8.68.14,0,.22.17.24.48.14.31.2.83.24,1.2l.24.72c.08.16.17.32.24.48.23.79.55,1.51.96,2.16.19.04.29.48.19.65-1.82.11-3.66.16-5.53.15l-.19-.19c.5-2.61.65-5.34.61-8.04.41-2.39.37-4.71-.12-6.96-.19-.38-.19-.4-.48-.72-.27.06-.81-.76-.11-.82.03,0,.07.04.11.1.73-.35.96-1.26.84-2.02-.36-1.13-.23-1.66.23-2.72l-.12-.3c-.36-.52-.52-1.18-.48-1.98-.08-.18-.24-2.01-.16-2.08.04-.04.1-.06.16-.08l-.16-.07c-.24-.99-.51-2-.8-2.99-.08-.17-.2-.65-.24-.72-.12-.13-.11-.26,0-.4.21-.27,4.49-.18,5.16-.15-.07.28-.19.54-.36.79-.08.26.04.4-.24.72-.07.2-.15.4-.24.6h.01Z"/>
  <path class="st0" d="M94.55,29.44c.87-.46.65.56,0,.84-.32.61-.59,1.23-.82,1.88l-.14.04-.24,1.08c.24.04.11.29,0,.48l.08.18c-.34,1.93-.52,3.87-.4,5.81.06.86-.24,1.58-1.12,1.68-.23.19-.15.43.24.72.66.02.79.25.37.69-.05,1.13.02,2.27.2,3.4l.04,4.39c.09.57.2,1.1.35,1.59.07.18.15.34.24.48l.14.05c.49,1.74,2.32,1.96,3.45.67.03-.02.13.03.21-.02.15-.1.68-1.37.74-1.6.26-1.08.15-2.09,0-3.17-.09-.09-.4-1-.36-1.04.03-.03.88.14.84.33.37.23.69.5.96.84.11.15.4.45.48.6.54,1.41.69,3.14.24,4.55-.08.29-.24.69-.48,1.2.09.15-.06.37-.25.37l-9.4.11c-.88.19-1.12.11-.66-.71.41-.48.55-1.31.72-1.92.02-.41.1-.73.24-.96l.09-.41c.27-6.18.17-12.43-.27-18.6l-.54-2.09c-.1-.23-.34-.79-.48-.96-.18-.05-.2-.31,0-.36,1.84,0,3.67-.03,5.52-.12v-.02Z"/>
  <path class="st0" d="M55.47,34.71c1.06-2.94,3.86-6.09,6.89-3.47.29.25.53.56.78.84.39.52.72,1.06,1,1.64.31,0,.33.54.2.76l.06.22c.3.07.36.2.18.5.17.06.17.16,0,.24.39.14.47.3.24.48.12.12.26.25.41.38-.18.22-.08.58.07.81.19.11.24.53,0,.6.06.41.14.77.24,1.08.09.08.16.17.19.27.44,1.6.37,5.97-.02,7.61-.02.1-.09.19-.17.27-.11.25-.19.57-.24.96.22.35,0,1.09-.24,1.44l-.72,2.16c-.49.95-1.42,2.62-2.4,3.12-.93.82-2.57.99-3.6.24-1.22-.5-2.2-2.14-2.64-3.36-.44-.82-.83-1.97-.84-2.88l-.12-.36c-.14-.1-.17-.28,0-.36-.81-2.94-.69-6.11-.24-9.11-.12-.76.14-1.7.48-2.4-.07-.48.16-1.26.48-1.68h0ZM57.51,44.77c.12.77.08,1.49-.12,2.16-.28.44-.57.54-.55,1.12.02.77.8.94,1.1,1.5.55,1.02.82,2.49,1.37,3.61.46.63,1.1,1.44,1.92.96,1.72-1.64,1.8-5.22,1.82-7.57.02-2.49-.16-5.14-.63-7.53-.1-.16-.18-.4-.24-.72.24-.05.2-.4,0-.48-.11-.31-.19-.63-.24-.96.2-.16,0-.9-.24-.96-.06-.31-.14-.59-.24-.84-.07-.37-.15-.52-.24-.84-.27-.49-.51-1.01-.72-1.56-.11-.18-.1-.18-.24-.36-1.65-2.07-2.35.66-2.66,2.03-.73,3.27-.57,7.05.02,10.32l-.12.11h.01Z"/>
  <path class="st0" d="M196.92,29.2c-.55-.45-.71-.77-.48-.96l.02-.12h4.69l.08.12c.59,1.51,1.24,3.36,1.68,5.03.06.5.27.99.48,1.44.17.17.31.61.24.84,0,.28.08.48.24.6.37.88.68,1.78.94,2.7.37.25.38.71.26,1.13.36.47.41,0,.36-.41l.12-.07v-6.09c.02-1.65-.06-3.19-.91-4.69l.07-.24c0-.07.02-.12.04-.12,1.05-.04,2.26-.04,3.3,0,.03,0,.05.06.08.13-.18-.21.41-.27.46-.12.02.07-.73.72-.88.84-.14.53-.3,1.09-.48,1.68,0,.38-.09.74-.24,1.08l-.13.35c-.04,6.86-.07,14.01.13,20.74.19.28.18.8,0,1.08-.04.82-.41-.33-.36-.72-1.32-3.17-2.48-6.41-3.48-9.71-.53-1.18-.99-2.46-1.2-3.72-.46-.73-.74-1.56-.9-2.41-.29-.11-.47-.26-.54-.47.27.04.31.3.12.77-.05,4.06-.03,8.11.04,12.15l-.16.08.15-.09c.14.46.33.87.57,1.22.19-.03.51.42.48.6.02.11,0,.18-.11.18-2.55.02-5.13.05-7.68.05.16-2.55.04-5.07-.36-7.54-.96.17-1.94.33-2.94.48-.18,1.07-.3,2.29-.32,3.42-.04,2.08.14,3.92.62,5.93.11.1.54.74.49.86-.15.39-2.64.09-3.09,0-.09.31-1.35.46-1.44.36-.15-.17.16-.83.32-.98-.08-.11-.09-.26,0-.36l.24-.36c-.16-.07-.13-.27,0-.36l.24-.36c-.22-.02-.14-.47,0-.6.13-.13.2-.3.24-.48-.2-.1-.15-.56,0-.72l.24-.36c-.24-.06-.17-.46,0-.6l.24-.36c-.15-.17-.15-.45,0-.84.12-.18.2-.38.24-.6-.2-.07-.17-.49,0-.6.33-.45.25-1.55,0-2.16-.15-.07-.19-.42,0-.48l-.24-.24c-.17-.02-.2-.21,0-.24-.31-.32-.23-.6.24-.84-.23-.18,0-.42.24-.36.72-.5.9-1.74.97-2.57-.12-.68-.23-1.47.21-2.06-.18-.62-.2-1.37.22-1.89-.18-.73-.11-1.36.2-1.9-.05-.44.02-2.5.61-2.43.07,0,.13.03.18.08.1.11.08,2.73-.23,2.93,0,2.23-.2,4.45-.61,6.65.13.18.17.42.12.72.11.12,2.88.06,2.89-.57l-.13-1c-.23-.84-.42-1.7-.58-2.59l.1-.29c-.27-1.29-.49-2.59-.68-3.9l.08-.41-.09-.34c.21-1.34-.1-1.75-.91-1.24-.74.13-.58-1.72-.48-2.23-.35-.66-.67-1.3-.97-1.92l.62-.1c1.39.19,2.75.09,4.1-.04.18.03.13.37,0,.48-.07.24-.15.52-.24.84.21.81.16,1.8,0,2.64.09.25.16.49,0,.72.04.39.12.75.24,1.08.11.69.11,1.37,0,2.04.15.19.15.31,0,.36.06.41.14.81.24,1.2.44,2.97,1,5.89,1.68,8.75h.11c.36.88.64,1.75.85,2.64.16.24.38.72.24.96l.13.05c0,.37.24.97.59.67-.27-.17-.26-.43,0-.79.09-.79.2-1.58.47-2.33l-.11-.28c.62-5.66.69-11.84-1.09-17.22-.09-.32-.31-.9-.5-1.18-.04-.06-.21,0-.22-.02h.03Z"/>
  <path class="st0" d="M155.44,28c.55-.4,1.21-.59,1.86-.77.21.31.39.65.54,1.01.25.09.41.77.24.96.08.28.24.46.49.53,1.34-.07,2.65-.05,3.95.06-.11,2.1.36,4.21.84,6.25.31.75.55,1.51.72,2.28.1.45.22.88.36,1.31l-.12.13c.17.09.44.18.52-.07.26-1.17.54-2.38.91-3.53-.13-.18.08-.81.24-.96l.1-.81c.66-2.2.67-4.37-.34-6.43,1.85-.13,3.82-.09,5.7-.02.02.15-.06.24-.18.31-.4.37-.8.69-1.2.96l-.24.48c0,.12-.09.24-.24.36.1.36-.25.99-.48,1.32-.15.63-.39,1.37-.72,1.92-.08.36-.24.76-.48,1.2l-.24.6c-.56,1.78-1.19,3.56-1.89,5.36-.61,2.43-.51,4.92-.39,7.41l.23,3.71-.1.18c.09.31.17.63.24.96v.24l.24.96c.16.35.36.86.52,1.16.07.13.58.37.44.76h-5.27c-.06-.28.09-.49.24-.72.74-1.52.87-3.46.91-5.21-.09-2.76-.12-5.51-.08-8.26-.32-.74-.52-1.48-.59-2.23-.19-.25-.43-.84-.24-1.08-.71-2.73-1.72-5.32-3.01-7.77-.54-.18-.56.32-.34.7.3.75.3,1.59,0,2.52.09.24-.05.78-.24.96-.38.5-.61.92-1.2,1.2-.07.12-.23.2-.48.24-.04.11-.08.1-.12,0-.02-.23.1-.47.36-.72-.13-.2.09-.77.24-.96.27-1.04-.11-2.14-.48-3.12-.53-.89-1.03-1.65-2.16-1.38-.46.11-.36.21-.48.42-.9.92-1.02,2.3-.85,3.52l-.11.08c.05.28.13.52.24.72.19.13.32.5.24.72.58,1.33,1.22,2.61,1.92,3.84.23.49.48.96.72,1.44.5.54,1.57,2.24.24,2.16,0,.11-.09.15-.24.12.06.03.06.07,0,.12-.16.19-.14.27,0,.48.08-.16.15-.14.22.06.29.04.54.1.74.18,0-.12.42-.34.49-.33.1.02.7,1.48.71,1.77.22.04.35.54.24.72.21.4.37.84.48,1.32.29.75.43,1.84.24,2.64-.13,1.41-.37,2.75-1.2,3.96-.38.14-.86.88-1.29,1.19-1.6,1.16-4.76,1.05-5.85-.76-.2-.34-.29-.87-.53-1.15-.41-1.28-.47-2.68.24-3.96.51-.78.76-.81,1.44-1.32.17-.15.5-.15.48.12-.7,1.68-1.05,3.86.24,5.39.06.06-.02.25.37.41,1,.41,1.61.02,2.27-.65,1.15-1.67.91-4.1,0-5.99-.79-2.34-2.46-4.57-3.36-6.71-1.13-2.23-1.86-4.87-1.44-7.43.29-1.19.35-1.39.96-2.4.9-1.28,2.28-2.35,3.84-2.64l-.03-.04Z"/>
  <path class="st0" d="M117.56,23.92c.56.65,1,1.66,1.09,2.53,0,.03-.06.07-.13.11.09.3.14.62.17.95.35.16.37.53.02.68.27,1.23-.18,2.87-.91,3.88-.16.34-.27.44-.48.72-.69.41-.25-.62,0-.96l-.11-.15c.04-.75,0-1.51-.13-2.25l-.14-.02c-.09-.47-.28-.86-.58-1.18-1.47-1.55-3.33-.89-3.26,1.44-.26,6.45-.36,13.09-.18,19.63.07,2.66.16,5.6,1.36,7.97l-.07.21c.16.27.36.49.6.64l-.02.2c-.8-.1-1.57.08-2.33.29-1.35.11-2.93.17-4.23.07h.19c-.08-.19.13-.36.29-.48.24-.48.49-.95.72-1.44,0-.26.09-.42.24-.48l.32-2.06.16-.09c.28-4.62.28-9.22,0-13.78-.27-.27-.27-.8,0-1.08-.15-1.19-.13-2.37.06-3.54.49-.42.44-.86-.16-1.34-.05-.79-.05-1.58-.01-2.37-.11-1.41-.34-2.96-1.81-3.54l-.08.11c-.86,0-1.77.29-2.32.97-.5,1.1-.46,2.41-.33,3.64l-.15.07c.11.39.19.79.24,1.2.55.86.36,1.17-.48.48-.02-.02-.13,0-.19-.05-1.85-1.74-2.06-3.43-1.73-5.94.07-.28.15-.52.24-.72.32-.36.64-1.89,1.19-1.99,1.47,0,3.31.24,4.75.07.49-.06,2.84-.51,3.17-.72.66-.23,1.3-.39,1.92-.48l.13-.16c.92-.22,1.76-.57,2.5-1.03.1-.21.35-.2.48,0h0Z"/>
  <path class="st0" d="M184.69,41.42c.45-3.36.77-6.77.97-10.23.03-1.61-.13-3.21-.84-4.66,1.49-.04,2.99-.08,4.5-.1.32-.02.42.21.17.37v.16c-.28.15-.22.37-.48.56-.56,1.32-.99,2.72-1.29,4.19-.29,2.56-.74,5.04-1.34,7.44.05.09.09.18.09.27-.04.72-.12,1.44-.24,2.15-.31,1.96-.79,3.96-1.29,5.85.17.08.09.42,0,.6-.05.18-.13.3-.24.36.22.06.13.65,0,.84-.03.18-.11.3-.24.36.21.07.13.54,0,.72l-.24.72c.19.09.13.45,0,.6-.08.25-.16.48-.24.72l.1.16c-.13,1-.32,1.99-.58,2.95.1.36.03,1.2-.24,1.44-.1.13-.18,0-.24-.36-.7-2.91-1.3-5.96-1.68-8.87-.61-2.83-1.17-5.63-1.68-8.39-.13.02-.21-.1-.24-.36-.02-.48-.29-1.28-.48-1.8-.12-.29-.25-.75,0-.96.62-.71.28-1.25-.41-1.68-.64-1.74-1.07-4.59-2.22-5.99-.17-.07-.17-.23-.02-.32.23-.15,4.92-.12,5.53-.04.4.06.41.24.2.56-.19.29-.38,3.07-.36,3.73.12,3.84.87,7.8,1.61,11.53.2.08.21.29,0,.36.06.36.14.72.24,1.08.1.04.1.08,0,.12.12.55.32.74.6.59.08-1.56.31-3.15.6-4.67h-.02Z"/>
  <path class="st0" d="M171.02,33.51l-.12-.08c-.06-1.27-.34-2.46-.85-3.58,0-.25.15-.33.47-.23.55-.04,4.52-.23,4.68-.05.15.16-.08.81-.34.6-.55,1.16-.96,2.2-1.14,3.53-.25,1.9-.38,3.65-.46,5.57-.12,2.96-.22,6.58.02,9.52.13,1.61.36,3.31,1.58,4.39l.12-.09c.79.19,1.39.02,2.04-.39.19-.2,0-.26.48-.48,1.08-1.5,1.09-3.76.35-5.44.05-.48,1.57.78,1.56,1.12.23.1.46.57.24.72.06.33.14.65.24.96.07.02.14.05.16.1.42.77-.11,3.33-.4,4.21.11.18-.05.35-.24.24-3.21.18-6.6.32-9.79.03l.21-.27c-.2.03-.2-.05,0-.24.03-.02.13.03.21-.03.06-.04.19-.34.27-.45.09-.4.25-.72.48-.96.33-1.36.48-2.77.5-4.23.04-4.76.08-9.78-.26-14.47h-.01Z"/>
  <path class="st0" d="M209.53,29.74l.02-.11c1.74-.06,3.55-.01,5.26.03-.06.29-.21.55-.37.8-.11.25-.32.5-.48.72l-.48,1.68c-.14.81-.23,1.58-.48,2.4-.66,4.49-.51,9.2,0,13.66.3.76.33,1.62.48,2.4l.12.02c.03.46.15.85.36,1.18.15.25.34.49.48.72.06.14.09.21-.02.32-.16.17-4.02.03-4.66-.08.75-7.31,1.07-14.87.21-22.19-.21-.52-.37-1.04-.45-1.54h0Z"/>
  <path class="st0" d="M213.46,30.4l-.06.72-.42.96c.12-.68.06-1.07.48-1.68Z"/>
  <path class="st0" d="M194.52,29.08c.02.33.12.96-.24.84,0-.35-.15-.95.24-.84Z"/>
  <path class="st0" d="M122.36,27.76c.48-.19,1.56.13,1.92.48.32,0,.56.09.72.24.38.2.95.6,1.44.96.66.44,1.3,1.44,1.68,2.16.17.25.43,1.31.28,1.49l-.52.19c-.14.17-.14.33,0,.48,0-.17.71.12.77.18.22.22.05,2.5-.05,2.94.15.58.07,1.22-.24,1.92-.09.71-.32,1.43-.72,2.16-.42.68-1.24,1.81-1.92,2.16v.12c-.46.02-1.11.44-.72.84.12.07.23.15.29.26,1.34,2.38,2.63,5.01,3.76,7.5.05.11.05.25.03.39.74,2.87,1.52-3.24,1.57-3.88-.05-.5,0-.93.11-1.28-.09-.55-.34-1.16-.72-1.56l-.26-.26c1.29-.72,1.43-1.37,1.66-2.84l.25-2.83.15-.07.12-.72c-.24-.05-.18-.61,0-.72l.12-.48c-.18-.07-.18-.16,0-.24l.12-.48c-.21-.12-.14-.66,0-.84l.12-.6c-.1-.04-.1-.08,0-.12l.12-.6c-.18-.31-.11-.85,0-1.2l.12-.72c-.17-.21-.18-.51,0-.72l-.12-.48c-.17-.1-.19-.39,0-.48-.34-.58-.74-1.14-1.21-1.66l.08-.13h5.2l.14.29c-.33,5.86.34,11.72,1.78,17.32.42,1.42.91,2.94,1.44,4.31.3.12.32.14,0,.24.68,1.01.81-1.24.84-1.73l.12-.07.12-.6c-.15-.08-.1-.36,0-.48l.12-.48c-.17-.07-.17-.17,0-.24.27-5.34.41-10.85-.96-16.06-.17.17-.33-.07-.48-.72-.04-.04-.32-.71-.48-.96-.39-.33-.66-.68-.79-1.07,1.46-.06,2.92-.1,4.39-.13.3,0,.72.21.48.48.15.18.15.3,0,.36.21.41.37.85.48,1.32.33.3.49.98.48,1.44.38.94.7,1.9.96,2.88.15.06.14.15,0,.24.11.09.14.2,0,.24.19.31.31.68.36,1.1-.03-.2,0-.17.12.1.07-.02.13-.03.19-.02.06.02.39,1.08.29,1.21l.24.72c.17.09.18.4,0,.48.1.09.18.25.24.48.17.17.25.41,0,.48.17.8.43.98.78.55.07-2.52.09-5.23.04-7.75-.03-1.59-.21-2.61-.93-4.01.17-.07,3.18-.02,3.63,0,.03,0,.05.08.08.19-.26.28-.49.6-.72.96-.71,1.22-.79,3.13-.85,4.66.07,6.62.15,13.29.25,20.01-.15.44-.31.14-.36-.22-.32-.76-.64-1.59-.72-2.4-.42-.83-.82-1.88-.96-2.76-.23-.37-.39-.77-.48-1.2-.11,0-.1-.05,0-.12-.2-.29-.28-.57-.24-.84-.21-.38-.37-.78-.48-1.2-.32-.32-.49-1.09-.48-1.56-.11-.03-.1-.07,0-.12-.86-2.15-1.65-4.33-2.16-6.59-.18-.14-.34-.14-.48,0-.15.18-.15.34,0,.48l.11.4v11.62c0,.25.6,1.67.85,1.88.3.23.39.43.27.6h-7.55l-.21-.08c.12-2.55,0-5.08-.33-7.59-.06.13-.09.13-.14-.02-.98.06-2.11.21-3.03.46-.19.78-.23,1.6-.14,2.47l-.12.09c-.24,1.11-.26,2.49,0,3.6.11.35.19.9,0,1.2.04.21.12.37.24.48.17.14.22.47,0,.6.28.35.49.75.64,1.2.43.45.99,1.1.02.84l-.04.12h-1.52c-.07.21-.16.1-.24-.12,0,.68.42,1.2.9,1.68.76.57,1.63,1.25,2.7,1.32.76.05,1.85-.18,2.48-.6.13-.09.08-.22.09-.23l.15-.11c.14-.74.34-1.02.57-.85.29.95.38,1.02-.12,1.98-.46.89-1.08,1.07-1.95,1.39-.1.04-.09.21-.18.23-6.44,1.44-8.71-5.03-10.46-9.82-.26-.34-.42-.74-.48-1.2-.09-.23-.16-.48-.24-.72-.27-.29-.34-.82-.36-1.2-.52-1.08-.97-2.21-1.32-3.36-.39-.05-.66-.99-.24-1.2l.1-.29c.94-.55,1.61-1.39,2-2.53l.3-.06c.06-.33.23-.8.48-.96.52-3.36.94-7.58-1.44-10.31l-.15.1c-1.11-.8-1.26.15-1.19,1.14l-.1.44c.22.07.2.27,0,.36-.1.67-.18,1.35-.24,2.04l.09.51c-.34,4.56-.38,9.12-.1,13.65l.63,5.64-.14.32c.1.16.21,1.26.16,1.32-.15.17-4.34.09-4.56.03-.05,0-.09-.04-.13-.06.81-2.04,1.18-4.19,1.11-6.45.07-1.02.18-2.06.67-2.95-.21-.31-.27-.44-.31-.82.23-3.52.33-7.16.31-10.75-.01-1.97-.25-4-1.07-5.76-.53.09-.51-.5-.35-.56.66-.23,2.7-.04,3.45.11h-.02ZM132.67,44.06c.86-.11,1.51-.24,2.4-.24v-.16c.34-.14.22-.27.24-.56-.43-.2-.18-.84-.25-1.25-.03-.2-.18-.29-.23-.42-.05-.49-.13-.97-.24-1.44-.11-1.74-.53-3.39-.72-5.1-.02-.18-.09-.36-.24-.18l-.96,8.87v.48h0Z"/>
  <path class="st0" d="M232.88,23.68c.45-.19,1.23-.16,1.68,0,.7.03.67.21.8.24.25.06.55-.05.79,0,.06.01.92.46,1,.51.1.07.49.62.55.65.15.07.41,0,.44.04s-.03.29.04.44c.03.06.35.22.41.31.16.26.43,1.04.56,1.36,1.37,3.39-.25,6.96-2.15,9.67-.62.89-.97,1.2-1.68,1.92-.33.33-.62.71-1.01.97,0,.16.61.74.76.86.09.07,1.02.48,1.12.55,2.27,1.7,3.2,4.01,3.84,6.53.07.27.28.75.28.8.17,1.33,0,3.81-.25,5.02-.02.09-.21.07-.24.16-.12.5.05.55-.2,1.16-.19.46-.55,1.42-.76,1.76-.34.73-.5,1.56-.48,2.52-.04.02-.2-.04-.23,0-.07.09.03.45,0,.63-.02.09-.22.07-.24.16-.14.64-.12,1.14-.52,1.8-.08.13-.46.25-.44.51l-.24-.06c.18-.55-.51-2.7-1.05-2.81-.2-.04-1.08-.05-1.27,0-.1.02-.03.22-.25.25-.53.07-2.24.07-2.77,0-.23-.03-.11-.23-.34-.26s-.96-.03-1.18,0c-.05,0-.74.71-.77.75-.19.3-.21.76-.28,1.08-.02.09-.21.07-.24.16-.07.29.2.97-.24.88.13-.42-.14-.42-.23-.58-.24-.43-.88-1.8-.97-2.14-.14-.58-.1-1.65-.24-2.23-.02-.09-.22-.07-.24-.16-.1-.43-.68-2.3-.96-2.55-.12-.15-.22-.35-.3-.6l-3.29.02c-.91.14-1.4-.3-.96-1.09.05-2.05.03-4.26-.12-6.32-.02-.23-.1-1.34-.38-1.34-.34,0-2.87.27-3,.35-.16,1.08-.27,2.16-.34,3.23-.22.94-.16,1.93,0,2.88.12.19.14.55,0,.72.12.65.28,1.29.48,1.92.24.59.48,1.15.72,1.68.22.32.21.47-.04.48-1.64.03-3.28.04-4.92.04.74-2.51,1.48-5.06,1.83-7.68.14-1.09.29-2.28-.23-3.26-.24,0-.81-.82-.36-.84.04-.1.08-.1.12,0,.5-.34.86-.69,1.2-1.2.49-3.62.95-7.35,1.32-11.03.11-1.04-.04-2.48-.6-3.36-.17,0-.84-.47-1.07-.66-.25-.21-.48-.44-.12-.64,2.14-.06,4.26-.04,6.36.06,0,2.03.05,4.07.11,6.12.05.49-.03.86-.25,1.11-.13.12-.33.2-.6.24-.26.23-.3.47-.12.72.55.18.64.2,1.2,0,.05.88-.07,1.82,0,2.69.11,1.2.48,2.78.71,4.02.09.39.09.75,0,1.08.66,2.78,1.36,5.64,2.45,8.35.26.65.47.53.67-.08.1-.44,0-.57.24-1.11.41-.91,1.58-2.28,2.49-2.72s1.92-.44,2.78-.73c.44-.19.69-.05.24.24-.98.54-1.34.88-1.72,1.88-.02.04-.18.04-.2.12-.04.18.03.38,0,.55-.02.09-.21.07-.24.16-.1.43-.08,3.75,0,4.3.03.25.46.38.48.5.07.35-.05.47.16.9.03.07,1.01,1.09,1.08,1.13.09.06.26.02.4.08.04.02.04.18.12.2.17.04,1.34.04,1.51,0,.08-.02.08-.18.12-.2.14-.06.31-.02.4-.08.36-.23.99-1.11,1.2-1.49.06-.11.23-.14.25-.17.08-.2.21-1.25.27-1.57.02-.09.21-.07.24-.16.14-.56.08-4.41,0-5.14-.1-.97-.61-1.97-.92-2.73-.27-.66-.9-1.81-1.28-2.32-.75-1-2.09-1.84-3.04-2.47-.24-.16-.25-.6-.76-.44-.13-.45.15-.41.23-.57.04-.08-.04-.28.03-.36.03-.04.35-.05.53-.25,1.58-1.71,2.71-3.91,3.48-5.8.29-.7.34-1.33.52-2.05.23-.91.37-2.05.24-3.01-.03-.22-.23-.16-.25-.25-.05-.24.04-.53,0-.79-.02-.09-.41-.3-.44-.36-.08-.2,0-.4-.15-.64-.12-.2-.56-.38-.75-.54-.1-.08-.34-.43-.36-.44-.22-.07-.99-.08-1.24-.05-.2.03-.14.18-.27.24-.09.04-.25-.01-.34.05-.18.11-1.32,1.68-1.41,1.88-.15.33,0,.77-.07,1.13-.16.97-.38,1.97-.24,3.01.03.22.23.16.25.25.09.41.03.87.29,1.32.06.1.33.23.4.32.07.11,0,.31.08.4.2.26,1.25.8.26.99-.74.15-.77-.22-.86-.23-.38-.08-.67-.23-.72-.24-.17-.04-.37.03-.55,0-.35-.08-1.57-1.86-1.75-2.25-.29-.65-.12-.93-.25-1.49-.02-.1-.22-.03-.25-.25-.04-.27-.04-1.06,0-1.33.03-.22.23-.16.25-.25.22-1.01.28-1.95,1-2.7,1.08-1.95,3.22-2.91,5.23-2.97l.04-.02ZM218.97,33.75c-.51.73,0,1.75-.48,2.52v.24c-.05,2.36-.43,4.71-.6,7.07.85-.26,1.63-.28,2.52-.24.14-.17,0-.68,0-.96-.36.07-.23-.18-.24-.41-.08-1.62-.52-3.44-.72-5.1-.43.07-.2-.73-.25-1.01-.03-.21-.19-.34-.23-.67-.03-.22,0-.49,0-.72s0-.48,0-.72Z"/>
  <path class="st0" d="M97.43,79.78c-.1-.41-.15-.98-.24-1.35-.02-.08-.4-.15-.24-.56h3.12s.23.31.24.32c.11.56-.16.44.24.99.08.25.16.45.24.6.11.66.18.59.38,1.11s.7,2.42,1.45,2.24c.37-.09.28-.67.33-.87,0-.03.15-.11.24-.56.08-.1.16-.26.24-.48.16-.68.34-1.4.51-2.07.1-.41.32-.88.45-1.29h2.7c.11,0,.21.27.18.42-.01.06-.21.04-.24.15-.11.45-.15,1.08-.25,1.51-.02.1-.22.03-.25.25-.11.87.12,2,.01,2.89-.14,1.24-.32,2.15-.25,3.48s.21,3.5.72,4.61c.18.31.18.51,0,.6-.8.03-1.6-.03-2.4,0,.01-.29-.03-.6.01-.89.13-.97.39-2.15.47-3.12.14-1.65-.12-3.49,0-5.16-.19-.45-.64-.61-.93-.14-.07.11-.01.28-.08.4-.53.94-1.12,1.92-1.62,2.78-.07.12-.23.6-.26.62-.28.24-.23-.35-.27-.45-.02-.05-.35-.22-.4-.31-.48-.78-1.03-2.07-1.52-2.8-.36-.54-.71-.65-1.1-.04.03,1.52-.18,3.09-.06,4.61.09,1.21.48,2.83.75,3.92.07.27.33.21.09.57-.25.19-.58.15-.84,0h-.6c-.93.32-1.19-.09-.84-.96,0-.18-.01-.35,0-.53.35-3.06.39-6.3.23-9.42-.14-.33-.22-.69-.24-1.08h.03Z"/>
  <path class="st0" d="M108.69,77.86c.4-.01,3.01-.12,3.12,0,.03.04-.04.28,0,.39.45,1.14.9,2.34,1.43,3.54.25.56.21,1.69,1.08,1.29.5-.23.28-.69.37-1.05.02-.08.18-.08.2-.12.41-1,.69-2.02.97-3.17.07-.27.01-.82.45-.87.52-.06,1.94-.06,2.46,0,.16.21.16.53,0,.96-.99,2.73-.84,7.22-.48,10.13.09.7-.08.75.2,1.42.19.45.33.9.52,1.4-.56,0-1.12.01-1.68,0-.33.1-.91.29-.96-.12-.04-1.23.34-2.99.48-4.26-.21-1.37.25-3.35,0-4.64-.04-.18-.43-.37-.63-.33-.04,0-.5.48-.53.51-.51.68-1.02,1.94-1.52,2.75-.11.18-.14.38-.2.49-.24.43-.22-.23-.27-.36-.02-.05-.35-.22-.41-.31-.54-.87-.87-1.96-1.53-2.79-.37-.47-.8-.85-1.16-.11.11,1.52-.12,3.19,0,4.68.06.7.16,1.7.25,2.39s.65,1.36.47,2.1h-2.22c-.4,0,.02-.7.03-.81.51-3.53.16-7.18.27-10.77-.07-.07-.23-.39-.25-.41-.11-.17-.19-.41-.24-.72-.03-.48.18-.66-.24-.72-.19,0-.19-.42,0-.48h.02Z"/>
  <path class="st0" d="M194.76,80.74c-.23-.78-.3-1.42-.77-2.11-.16-.24-.66-.43-.67-.77h3.6c.49,1.64,1.23,3.19,1.88,4.77.17.41.35,1.17.53,1.61.2.49.78.42.96-.08-.15-1.43.18-3.18,0-4.57-.08-.63-.53-1.16-.73-1.73h2.58s.12-.23.3-.19c.96.22-.29.73-.48,1-.16.24-.23.6-.25.62-.16.23-.24.55-.24.96-.07,3.87.05,7.75,0,11.63-.26-.07-.2-.35-.28-.56-.52-1.26-1.6-2.99-2.31-4.4-.41-.81-.84-2.08-1.28-2.8-.08-.12-.57-.55-.74-.53-.13.01-.41.29-.43.43-.23,1.86.19,4.21,0,6.12.16.33.21.79.36,1.09.12.25.84.65.19.77-.55.09-1.84.03-2.46,0-.19,0-.19-.63,0-.72.16-.22.21-.57.24-.84.06-.23.14-.43.24-.6-.19-.07-.13-.34,0-.48v-.24c.08-.4.16-.8.24-1.2.04-1.48.03-3.07,0-4.55-.08-.38-.16-.7-.24-.96v-.48l-.24-1.2h0Z"/>
  <path class="st0" d="M92.99,77.86c.89.22,1.27.14,2.19.15.17,0,.59.03.58.27,0,.1-.2.76-.25.92-.7,2.3-.73,4.78-.72,7.35,0,1.03.17,2.01,0,3.1-.06.35-.68,1.7-.94,1.94-.24.22-1.19.61-1.5.65s-1.77.05-2.02,0c-.08-.02-.08-.18-.12-.2-.4-.17-1.14-.4-1.35-.8-.29-.53-.22-1.19-.5-1.72-.63-3.02.12-6.65-.26-9.57-.02-.16-.39-1.03-.49-1.53-.03-.13-.38-.02-.24-.32.38.1.83-.11,1.15-.11.24,0,.45.11.7.11.23,0,1.45-.06,1.5,0,.24.25-.23.53-.24.57-.04.13.02.28,0,.39-.31.85-.47,1.81-.48,2.88-.34,2.33-.48,6.06,0,8.31.02.08.19.08.23.18.13.35.25.84.65,1.07.13.08.26.02.32.04.31.11.54.19.84,0,.1-.03.28.03.47-.06.69-.35.74-1.15.87-1.77.47-2.19.33-6.66-.02-8.9-.13-.81-.03-1.2-.49-1.97-.16-.25-.18-.89.12-.96v-.02Z"/>
  <path class="st0" d="M126.19,77.86c.35.18.73.17,1.08,0,.28.02.79,0,.85.41.1.82-.06,2.22-.49,2.94-.56.3-.78.1-.48-.48.18-.31.34-.47.24-.87-.02-.08-.18-.08-.19-.12-.28-.71-.46-.87-1.14-1.17-.15-.07-.03-.25-.39-.24-.59,0-1.41.43-1.71.95-.59,1.03-.4,2.33-.4,3.5-.17.3-.14.46,0,.6.19.19.25.52.63.46.19-.03,1.2-.83,1.26-.97.1-.23-.11-.52.27-.45.11,1.22.01,2.38,0,3.59-.38.08-.18-.22-.27-.45-.03-.06-.97-.9-1.05-.92-.29-.1-.77-.04-.83.26-.12.6-.08,3.37,0,4.04.02.14.25,1,.3,1.14.17.47,1.04,1.07,1.54,1.04.39-.03.83-.27,1.1-.55.54-.57.75-1.47.65-2.21-.03-.19-.19-.36-.23-.67-.21-.11-.2-.36,0-.48.19,0,.95.74.97.89.05.39-.03.91-.01,1.33.03.96.14,1.2-.3,2.08-.03.07-.2.25-.23.25h-6.41c-.11-.45.35-.47.55-.71.94-1.13.69-3.56.65-5.04l-.12-.1c.05-.43,0-.71-.12-.86-.07-.08-.48-.62-.49-.66-.1-.76.58-.59.58-1.32,0-.64-.25-1.26-.33-1.81-.05-.33.04-.7,0-1.01-.19-.34-.38-.7-.48-1.08-.11-.19-.41-.56-.51-.75-.06-.1-.27-.51-.21-.57.61-.08,1.26.07,1.84.07,1.29,0,2.59-.09,3.92-.08l-.04.02Z"/>
  <path class="st0" d="M174.86,89.6c.09-1.1,0-2.01,0-3.05,0-1.48.28-5.55,0-6.69-.02-.08-.18-.08-.2-.12-.11-.27-.3-.87-.57-1.05-.68-.45-1.46.31-1.8.86-.06.1-.05.28-.12.43-.02.04-.19.05-.2.11-.03.25.41.71.25,1.31-.11.22-.39-.15-.47-.28s-.49-1.32-.5-1.51c-.02-.22.27-1.22.36-1.45.27-.67.88-.22,1.39-.27.58-.06.91-.12,1.56-.1,1.7.06,3.38-.02,5.09.1.34,1.24.78,1.71.23,3.01-.11.26-.11.16-.22.58-.24.2-.53.4-.48,0-.06-.4.09-.99,0-1.35,0-.06-.52-.89-.59-.98-.37-.42-.85-.75-1.44-.48-.05.02-.59.7-.6.74-.15.69,0,2.44,0,3.27-.23.29-.15.64,0,.96,0,2.14-.35,5.74.68,7.52.05.1.52.36.28.62-.09.09-2.18,0-2.52,0-.72.13-1.38.21-.84-.48.32-.2.34-.42.48-.72.07-.33.15-.65.24-.96v-.02Z"/>
  <path class="st0" d="M82.32,90.32c.37.44.86,1.23,1.65.92.07-.03.97-.94.98-1.01.06-.27.05-1.36.01-1.66-.12-.84-1.17-2.36-1.64-3.15-.4-.67-.96-1.54-1.31-2.29-.4-.86-.6-2.17-.38-3.16.07-.28.49-.92.73-1.12.81-.66,1.54-.76,2.51-1.01.1-.03.09-.41.72-.21.34.11.76,1.58.81,1.95.1.82-.03,1.36-.48,1.98-.47.29-.8.32-.43-.28.07-.58.06-1.37-.41-1.75-.49-.51-.64-.9-1.44-.65-.45.14-.51.53-.64.85-.02.04-.17.04-.19.12-.04.17-.03.51,0,.69.26,1.36,2.19,3.35,2.89,4.67.86,1.64,1.57,4.43.23,5.97-.53.61-1.16.76-1.92.81-.33.17-.76.19-1.08,0-.38-.14-1.07-.2-1.28-.52-.06-.1-.02-.26-.05-.34-.28-.51-.44-.61-.47-1.3-.19-.11-.21-.39,0-.48.45-.07.12-.11.25-.38.2-.45.63-.57.95-.82.18.05.18.25,0,.6-.17.34-.2.29-.24.72.05.39.13.67.24.84h-.01Z"/>
  <path class="st0" d="M139.86,77.86c1.03-.04,2.08.03,3.12,0,.18.55-.23,1.08-.25,1.5,0,.31.21.89.25,1.38,0,.46.09.86.24,1.2.07.49.13.94.24,1.44,0,.32.08.56.24.72.13.51.33,2.38,1.12,2.16.08-.02.08-.17.12-.2.08-.05.19-.04.2-.04.1-1.02.34-2.02.72-3-.19-.02-.13-.24,0-.36.23-1.54.33-2.47.24-4.08-.21-.14-.18-.56,0-.72.79-.04,1.6.03,2.4,0,.17.18-.8,2.08-.96,2.4l-.24.72c-.61,1.1-1.03,3.37-1.45,4.7-.48,1.53-.68,3.17-1.2,4.79-.03.1-.2.1-.22.18-.1.41.11.94-.06,1.35-.25-.15-.12-.45-.19-.63-.15-.4-.32-.87-.45-1.38-.17-.67-.26-1.3-.49-1.93-.27-.74-.27-1.44-.51-2.2-.53-1.75-1.08-3.83-1.67-5.37-.03-.18-.1-.35-.24-.48-.19-.45-.6-1.37-.96-1.68-.2-.02-.21-.42,0-.48h0Z"/>
  <path class="st0" d="M159.76,78.34c.06.13-.02.21-.24.24-.8.94-1.08,1.1-1.2,2.4-.1.39-.18.79-.24,1.2,0,.5-.07,1.28,0,1.75.03.22.22.16.25.25.17.71-.06,1.14.24,2.08,0,.36.08.68.24.96.08.33.16.47.24.72,0,.36.08.68.24.96.1.51.13.34.22.58.27.66.44,1.06.97,1.58.56.27,1,.27,1.32,0,.28-.28.67-.5.87-.87l.69-1.53c.05.27.24.49.25.78.03.64-.45,1.7-1,2.06-.1.06-.26.01-.34.05-.13.06-.06.21-.27.24-.45.07-2.23.07-2.62-.01-.04,0-.62-.41-.71-.48-1.43-1.06-1.41-2.41-2.01-3.71-.04-.26-.12-.49-.24-.72-.14-2.1-.23-3.98.48-5.87.04-.28.12-.52.24-.72.2-.23.35-.7.53-.92.08-.1.89-.94.95-.97.14-.07.24-.01.32-.04.07-.1.15-.14.24-.12.15-.1.58-.1.6.12h-.02Z"/>
  <path class="st0" d="M183.97,91.76c-.6.01-1.69.09-2.22,0-.63-.11,0-1.29.06-1.73.23-2.02.03-4.67,0-6.71-.02-1.09.14-2.58,0-3.59-.08-.56-.55-1.26-.59-1.86h3.24c.15.41-.18.46-.2.52-.18.41-.21.6-.28,1.04-.07.21-.15.41-.24.6-.16,2.45-.26,4.7-.24,7.19,0,.65.09,1.29.24,1.92.08,1.01,0,1.13.48,2.04.22.35.21.55-.24.6v-.02Z"/>
  <path class="st0" d="M160.12,77.86c.5-.05,1.58-.31,1.95-.24.04,0,.52.47.53.51.11.31.13.46.26.79.5,1.24.37,2.63-.74,3.46-.12.09-.24,0-.56.28-.37.21-.74.07-.36-.24.5-.6.62-1.7.47-2.45-.09-.47-.61-.87-.91-1.19-.06-.06-.03-.18-.04-.2-.36-.06-.68-.14-.96-.24-.16-.02-.26-.14-.6-.12-.08-.04-.08-.08,0-.12.1-.02.25.02.36,0,.16-.1.36-.18.6-.24h0Z"/>
  <path class="st0" d="M183.73,80.02c.02-.24-.06-.51.24-.6-.04.22.08.51-.24.6Z"/>
  <path class="st0" d="M166.23,83.61c.13-.64.14-1.31.25-1.85.06-.33.42-1.02.47-1.33.06-.39.07-1.61-.11-1.92l-.84-.65h3.84v.48c-.11.46-.19.94-.24,1.44v1.68c.05.49.13.97.24,1.44,0,.16,0,.32,0,.48.07.28.14.56.24.84.07,1.47.51,2.81.93,4.28.21.75.46,1.42.73,2.17.07.19.37.98.26,1.1-.92-.07-1.97.09-2.88,0-.47-.12-.5-.87-.24-1.2.03-.74.16-1.43.13-2.22,0-.35-.08-1.53-.15-1.77-.27-.93-1.84-.57-2.26.09-.1.17-.07.33-.13.45-.05.11-.21.09-.22.17-.07.41-.07,2.35,0,2.74s.66.95.75,1.18c.07.16,0,.57-.04.57h-2.82c-.28,0-.1-.71-.05-.86.03-.09.17-.1.19-.14.31-.74.43-1.47.78-2.26.04-.09.2-.1.22-.19.11-.5.07-1.68-.23-2.07-.13-.14-.21-.41,0-.48.43-.16.46-.38.72-.72.03-.14.11-.3.24-.48v-.24c.05-.3.13-.54.24-.72h-.02ZM167.39,81.89s-.18.04-.2.12c-.06.25.03.6,0,.87-.17.34-.25.74-.24,1.2-.12.46-.44.74.17,1.08.38.21,1.45.24,1.51-.3.07-.59.04-1.02-.25-1.5-.09-.6-.17-1.2-.24-1.8-.54-.7-.55-.19-.76.32h.01Z"/>
  <path class="st0" d="M129.55,91.28c.47-.57.37-1.02.48-1.61.49-2.57.83-7.58.48-10.2,0-.04-.19-.47-.25-.81,0-.05-.68-.51-.48-.8.07-.11,2.33-.03,2.57,0,.09.01.81.23.93.27.2.07,1.71.93,1.78,1,.06.07.67,1.56.68,1.68.13.89.04,1.84-.22,2.69-.05.17-.6,1.31-.75,1.49-.39.52-1.09.55-1.41,1.17.05.35.84.86.93,1.06.58,1.29,1.28,2.55,2.2,3.71.14.17.6.47.65.57.49.98-1.1.26-1.44.26-.3,0-.74.38-1.03.17-.41-.52-.37-1.16-.61-1.77-.25-.65-1.06-2.48-1.43-2.97-.14-.43-.55-.74-.72-.48-.02.02-.21-.05-.24.08s-.03.56,0,.71c.12.72.42,1.62.48,2.39.05.61-.03,1.24,0,1.86-.88-.03-1.76.04-2.64,0-.21-.04-.2-.41,0-.48h.04ZM131.71,81.69c-.02.94-.15,2.95,0,3.77.19,1.01,1.25.22,1.62-.22.45-.53.57-1.25.81-1.83.02-.04.18-.04.2-.12.06-.24.06-2.69,0-2.95-.02-.09-.21-.1-.27-.23-.12-.26-.15-.57-.25-.77-.02-.05-.75-.67-.8-.69-1.1-.51-1.01,1.48-1.08,2.09-.13.26-.21.58-.24.96h.01Z"/>
  <path class="st0" d="M150.89,78.58c-.17-.35-.24-.56-.72-.48v-.24h3.72c.3,0-.11,1.13-.12,1.25-.27,3.19.61,6.7,1.41,9.63.12.44.17,1.08.28,1.49.03.11.42.31.44.36.08.22,0,.42.04.61,0,.04.65.3-.06.56-.63-.1-1.23,0-1.86,0-.87,0-1.19-.17-.96-.48.13-.19.06-4.17,0-4.62,0-.07-.53-.64-.57-.65-.17-.04-.62-.04-.79,0-.09.02-.07.21-.16.24-.17.04-.37-.03-.55,0-.14.03-.51.63-.54.8-.11.57-.11,2.49-.04,3.09.02.17.98,1.36.73,1.61l-3-.06c-.25-.16.25-1.1.36-1.38.1-.09.18-.21.24-.36.17-.84.62-1.48.72-2.33.03-.25.04-.83,0-1.08-.04-.21-.46-.68-.35-.78.02-.02.21.03.31-.04.11-.08.43-.43.52-.56.07-.25.15-.49.24-.72v-.12c.05-.29.13-.53.24-.72.1-1.2.4-2.12.48-3.36.18-.51.31-1.21,0-1.68v.02ZM151.61,81.22s-.21-.05-.24.08c-.05.19.05.47,0,.69-.15.71-.43,1.61-.47,2.34-.16.19-.21.58,0,.72.43.44.23.46.96.48.85-.1,1.38-.58.96-1.44-.26-.75-.16-.97-.24-1.68-.13-.25-.21-.57-.24-.96-.18-.35-.12-.14-.24-.24-.07-.19-.44-.18-.48,0h0Z"/>
  <path class="st0" d="M111.52,19.06c.51-.05.86-.13,1.35-.27,1.94-.55,4.11-1.74,6.05-2.88.31-.18.4-.82,1.15-.44l2.45,2.43c.32.74.79,1.64,1.24,2.27.07.09.82.81.89.82h95.79c.56-.16.97-.3,1.58-.28,1.1-.86,2.06-1.85,2.9-2.93.12-.15.2-.56.27-.61.14-.09.42.09.54-.26h16.76c.37.03.94,1.31,1.18,1.63,1.05,1.37,2.88,2.29,4.06,3.36.2-.07,1.24.76,1.27.84.09.34-.22,1.15-.36,1.49-.85,2.14-1.65,4.76-2.14,7.05-.09.13-.17.37-.24.72-.1,1.27-.41,2.11-.48,3.48-.13.34-.21.7-.24,1.08v.24c-.12.38-.2.78-.24,1.2,0,.48,0,.96,0,1.44-.12.63-.2,1.27-.24,1.92-.03,2.69.17,5.51.48,8.15.03.38.11.74.24,1.08.05.82,0,.85.24,1.56.11.34.11.62,0,.84.09.26.17.46.24.6.19,1.37.58,2.46.95,3.69.16.54.16,1.02.25,1.5.02.1.45.31.47.41.12.55.31,1.27.52,1.86.15.42.62.78.46,1.34-.03.11-.29.09-.43.19-1.54,1.19-3.86,2.47-5.06,4-.07.09,0,.31-.08.4-.21.28-.71.44-.7.98l-17.07.03c-.15-.24-.45-.18-.61-.29-.4-.26-1.11-1.34-1.51-1.6-.09-.06-.26-.02-.4-.08-.04-.02-.04-.18-.12-.2-.77-.19-3.01.02-3.99,0-.48-.09-.96-.17-1.44-.24-2.44-.08-4.93-.28-7.37-.48-2.79-.23-5.59-.2-8.39-.48-1.74-.18-3.84.09-5.64.01-.89-.04-.76-.13-1.68,0-.42.06-.79-.37-1.25.17-.05.06-.58.91-.59.96-.04.22-.04.95,0,1.17.02.1.45.31.47.41.09.45.24,1.15.24,1.59-.11.31-.19.63-.24.96-.14.3-.47.5-.49.66-.17,1.22,1.48.71,2.23.68.82-.03,1.68-.12,2.51-.15,1.84-.05,3.71.02,5.55.04.29.24.38.62.56.88.15.22.4.64.47.73,1.13,1.49,3.06,2.38,4.55,3.36.13.08.35-.03.46.1s.02,1.51,0,1.8c-.14,1.31-.39,2.51-.49,3.89-.02.15-.05.28-.13.15l-.11,2.25c0,2.49.42,4.74.71,7.14.03.23.09,1.24,0,1.4-.15.28-1.46.65-1.82.83-1.25.62-2.89,2.23-3.68,3.44-.09.13-.11.34-.21.48-.13.17-.26.12-.28.14-.12.1-.28.18-.48.24-.33-.03-.67-.21-1.02-.24-5.57-.42-11.59.18-17.13-.49-20.68-.07-41.34-.32-62.04-.23-6.75.16-13.35.24-19.78.24h-.24c-3.29.12-6.48.2-9.59.24-3.49.07-7.15.47-10.61.36-.13,0-.61-.08-.69-.12-.17-.08-.12-.27-.21-.39-1.24-1.74-3.06-3.32-5.17-4.18-.2-.08.02-.2-.58-.22-.17-.24-.19-.49,0-.72.04-.29.12-.53.24-.72.02-.28-.05-.62,0-.87.01-.06.4-.24.47-.63.07-.43,0-1.03,0-1.49.11-.39.15-.8.11-1.21l.13-.11c.02-.46.12-1.15.12-1.5v-2.16c0-.21-.1-.81-.12-1.14-.19-.06-.18-.41,0-.48-.12-.26-.2-.58-.24-.96,0-.49.06-1.09,0-1.56-.29-.56-.4-1.18-.48-1.8-.02-.05-.21-.44-.24-.48-.21-.1-.19-.61,0-.72.01-.01-.04-.16.03-.21.1-.07.31,0,.42-.06,2.01-1.28,3.19-1.76,4.71-3.74.15-.2.45-.43.56-.58.07-.1.05-.55.36-.68,1.66.16,3.78-.24,5.37-.01,1.29.18,2.6.38,3.96.25.38-.04.37-.09.65-.25.15-.16.14-.36,0-.72-.02-.02-.44-.16-.47-.33-.04-.2,0-.42,0-.63-.21-.45-.21-1.22,0-1.68.26-.29.35-.73.48-1.08.2-.4.17-.95,0-1.08-.06-.07-.46-.53-.47-.57-.05-.2-.05-.96-.27-1.09-.06-.04-1.26-.13-1.47-.15-4.7-.26-9.58.27-14.27.37-5.71.13-11.34.1-17.02.48-3.24.21-6.42.63-9.65.72-.4.08-.8.16-1.2.24h-.72c-.48.07-.96.15-1.44.24h-.72c-.4.08-.8.16-1.2.24-.95.03-1.18.04-2,.24-.17.04-2,.07-2.07,0-.05-.06,0-.34,0-.47-.13-.24-.21-.56-.24-.96v-.24c-.12-.29-.2-.61-.24-.96-.45-.47-.29-.55-.6-1.02-.12-.18-.39-.33-.53-.55-.13-.19-.98-1.43-1-1.52-.07-.32.15-.81.21-1.23.07-.33.15-.65.24-.96v-.48c.03-.39.11-.71.24-.96.14-.66.2-.97.24-1.68.03-.44.11-.84.24-1.2,0-.2,0-.4,0-.6.08-.28.16-.56.24-.84,0-.32,0-.64,0-.96.02-.45.1-.85.24-1.2.33-4.56,0-8.01-.24-12.46-.11-.17-.19-.41-.24-.72-.05-1.99-.64-3.78-.96-5.51-.09-.16-.17-.36-.24-.6-.16-1.06-.71-2.17-1.11-3.15-.21-.52-.3-1.07-.57-1.52-.12-.29-.22-.56,0-.84.16-.11.34-.1.44-.16.77-.55,1.51-1.02,2.29-1.59,1.18-.88,2.01-1.82,2.98-2.96.41-.49.17-.82,1.18-.92,4.99.31,10.42-.38,15.36,0,.43.03,1.27.16,1.57.47.1.1.49.61.61.77.07.09,0,.31.08.4.61.77,1.97,1.97,2.9,2.19.68.16,1.26.19,2,.5.52.22,1.29.87,1.95.95h32.25c.95-.59,1.13-1.78,1.6-2.71.56-1.12,1.45-2.54,2.29-3.46.24-.26.89-.84,1.25-.79.07,0,.06.19.11.21,1.07.46,2.18.7,3.32.76.48.08.96.16,1.44.24h.6c.44-.07.88-.15,1.32-.24.2-.01.4,0,.6,0,.27-.1.54-.18.84-.24l-.04-.02ZM100.25,26.98s.07.29-.17.25h-35.38c-.4-.13-.68-.52-.93-.69-.1-.07-.31,0-.4-.08-.69-.52-.07-.44-1.15-.68-.1-.02-.03-.22-.25-.25-.81-.1-1.65,0-2.43-.51-.2-.13-.9-1.07-1.03-1.13-.15-.07-.41,0-.44-.04s.03-.29-.04-.44c-.1-.23-1.32-1.1-1.49-1.47h-13.75c-.15.03-.69.3-.8.4-.18.17-.18.39-.28.5-.8.86-1.97,1.94-2.87,2.63-.74.56-1.91.7-1.63,1.89.02.09.22.07.24.16.1.45.1.63.28,1.08.29.7.5,1.3.71,2.1.28,1.1.68,2.26.92,3.29.09.37-.05.98,0,1.41.05.37.42,1.16.48,1.56.16,1.16.21,3.28.23,4.5.04.4.12.76.24,1.08.07,1.79.23,5.11,0,6.78-.03.22-.22.16-.25.25-.13.55.08,1.53,0,2.14-.03.23-.23.11-.26.34-.06.48.08,1.1.02,1.57-.03.24-.19.85-.26,1.3-.24,1.54-.61,3.04-.95,4.46-.24,1,.3.88.68,1.39.06.07.39.58.48.72.42.65.6,1.45.96,2.16.07.15.11.61.37.67.66.15.59-.21.8-.24,1.4-.18,3.27-.04,4.69-.22.23-.03.11-.23.34-.26.5-.06,1.2.02,1.75,0,.37-.05.73-.13,1.08-.24.73-.03,1.66.1,2.35,0,.23-.03.11-.23.34-.26.71-.09,1.71.03,2.47,0,.31-.05.55-.13.72-.24.55-.03,1.23.08,1.74,0,3.47-.48,7.05-.32,10.54-.73,2.22-.26,5,.41,7.07-.25h25.79c.25.3.86.37,1.09.53.09.06,1.07,1.26,1.2,1.44.08.12.06.64.45.69.37.05,1.45.05,1.81,0,.22-.03.16-.22.25-.25,1.4-.33,3.07-.28,4.54-.47.22-.03.16-.22.25-.25.34-.08.95.02,1.36,0,.14-.08.34-.16.6-.24,1.82-.06,4.46,0,6.18-.23.23-.03.11-.23.34-.26.9-.11,2.22.03,3.18,0,.57-.02,1.13-.1,1.68-.24,2.82-.11,5.91.29,8.56-.25,19.37-.5,38.76-.04,58.15,0,3.01.79,7.08-.19,10.19.24,1.44.2,2.66.07,3.96.24.23.03.11.23.34.26,1.57.2,3.07-.29,4.62.23,1.51.02,2.99.1,4.44.24,2.67.1,5.21.18,7.85.48.77.09,2.08-.16,2.74,0,.08.02.08.18.12.2.14.06.31.02.4.08.59.38,1.35,1.79,2.13,1.88h12.96c.9-.11,2.49-2.22,3.26-2.88.45-.38,1.37-1.08,1.87-1.4.22-.15.6-.08.81-.56.36-.84-.15-.62-.32-.95-.34-.67-.54-1.76-.77-2.5-.37-1.18-.9-2.59-1.18-3.77-.11-.47.11-1.28,0-1.75-.1-.44-.41-1.23-.48-1.82-.15-1.24-.07-2.64-.23-3.85-.03-.23-.23-.11-.26-.34-.16-1.27-.16-5.57,0-6.85.03-.23.23-.11.26-.34.13-1.01-.02-1.49.23-2.55.18-.79.03-2.28.25-3.19.24-1,.49-2.22.72-3.25.29-1.3.8-2.62,1.18-3.87.22-.7.35-1.35.49-1.99.02-.09.33,0,.25-.62-.04-.28-1.49-1.11-1.83-1.39-.99-.8-1.8-1.61-2.62-2.56-.3-.35-.61-.69-.93-1.02h-13.97c-.18.04-2.12,2.28-2.53,2.58-1.48,1.09-3.13,1.15-4.92,1.49l-96.41-.05c-.3-.3-.39-.73-.55-1.12-.33-.8-.81-1.47-1.35-2.24-.12-.17-.15-.39-.3-.58-.09-.11-.92-.99-.98-1.02-.47-.21-.44.18-.53.2-.98.21-.37.09-.92.44-.73.48-2.35,1.12-3.12,1.44-.83.34-1.6.44-2.5.77-.73.27-.87.09-1.45.23-1.99.47-4.61.27-6.62,0-.27-.04-.39-.2-.6-.24-.93-.19-1.28.64-1.69,1.29-.48.75-1.05,1.62-1.24,2.46-.02.09-.22.07-.24.16-.14.64-.41,1.27-.48,1.84l-.24.48.02.1ZM82.54,72.56c-.12.04-1.45,1.57-1.75,1.83-.95.81-2.05,1.35-3.03,2.01-.14.1-.68.75-.7.91,0,.06.16.52.2.63,1.12,2.86.68,8.13.46,11.36-.13.26-.21.58-.24.96v.24c-.08.25-.16.49-.24.72-.19.16-.19.33,0,.48.32.19.84.79,1.08.9.83.37,1.83,1,2.52,1.67.35.34,1.45,1.87,1.76,1.96,2.69.04,5.38.03,8.07.02.91-.11,1.82-.11,2.73-.11l.14-.13c30.27-.56,60.62-.58,90.93-.24,2.29.3,4.59.21,6.89.24.7.1,1.42.18,2.16.24,2.69.02,5.38,0,8.06,0,.17-.03,1.79-2.22,2.28-2.59.57-.43,1.77-.89,2.32-1.27.26-.18.72-.66.76-.98.12-.9-.14-1.52-.24-2.29-.27-2.31-.3-4.64-.25-7,.07-.4.15-.8.24-1.2.04-.76.16-1.09.25-1.73.04-.28.03-2.14-.04-2.31,0-.03-.42-.43-.45-.45-1.23-.84-2.53-1.39-3.58-2.55-.25-.28-.44-.84-.77-1.05-.68-.44-2.39-.34-3.25-.29-11.64.67-23.67.68-35.36.84-20.03.27-40.07.17-60.05-.36-5.46-.14-10.9-.15-16.37-.23-1.16-.12-2.31-.2-3.48-.24-.33,0-.75-.06-1.05.04v-.03ZM93.06,71.08c14.13.6,28.35.44,42.5.59,15.26.16,30.56-.22,45.84-.35,3.14-.14,6.28-.18,9.43-.12l.04-.12c.13-.94-.43-.82-.48-1.05-.04-.18.03-.38,0-.55-.02-.11-.22.04-.24-.56-.1-.18-.09-.3,0-.48.22-.37.16-.79.25-1.11.03-.12.45-.31.47-.42.05-.23.04-.93,0-1.18-.03-.22-.19-.16-.28-.32-.08-.13-.16-.51-.23-.55-.09-.06-.28.01-.36-.03-.12-.06-.1-.23-.17-.24-.17-.02-.45.15-.7.14-5.91-.29-11.94-.2-17.84-.3-18.85-.32-37.76.02-56.47,1.13-1.37-.08-2.66.17-4.02.23-.31.09-.63.17-.96.24-.47.01-1.08-.07-1.51,0-.22.03-.16.23-.25.25-1.12.25-2.7.38-3.87.48-.61.22-2.22.47-2.52-.24-.26-.56-.37-1.12-.77-1.63-.72-.92-1.11-.48-2.04-.52-.45-.02-.97-.23-1.44-.25-.51-.02-3.17-.07-3.42.06-.28.14-.17.46-.28.62-.16.25-.6.53-.67.94-.04.23-.05.94,0,1.17.01.07.66.55.68.6.13.33.03,2.65-.22,2.83-.08.06-.33-.04-.44.04-.06.05-.01.2-.03.21-.18.08-.21.47,0,.48h0Z"/>
</svg>