<?xml version="1.0" encoding="UTF-8"?>
<svg id="Capa_1" xmlns="http://www.w3.org/2000/svg" version="1.1" viewBox="0 0 283.44 113.28">
  <!-- Generator: Adobe Illustrator 29.7.1, SVG Export Plug-In . SVG Version: 2.1.1 Build 8)  -->
  <defs>
    <style>
      .st0 {
        fill: #fff;
      }
    </style>
  </defs>
  <g id="Capa_11" data-name="Capa_1">
    <g>
      <g>
        <path class="st0" d="M39.09,52.55l9.31-2.43,9.49,36.35c.71,2.73,2.91,9.59-1.58,13.75-2.92,2.89-10.92,5.64-15.68,4.36-6.02-1.68-6.23-6.4-7.29-10.44l-.96-3.67,8.73-2.28.32,1.24c.39,1.49,1.16,6.8,3.7,7.4,1.17.29,2.74-.19,3.44-.9,1.87-1.95.16-6.42-.11-7.47l-9.38-35.92h.01Z"/>
        <path class="st0" d="M57.99,47.75l10.64-2.78,22.83,47.01-9.56,2.5-3.56-7.9-8.48,2.21.63,8.66-9.43,2.46-3.07-52.17h0ZM68.97,80.92l6.18-1.61-7.93-19.17,1.75,20.78Z"/>
        <path class="st0" d="M109.78,53.94l-9.43,2.46-.73-2.8c-.47-1.8-1.2-7.72-4.47-8.52-1.47-.41-4.02.25-5.1,1.33-2.27,2.25-.76,5.44-.09,7.99l5.75,22c.49,1.86.76,6.04,3.67,6.74,1.52.33,4.18-.43,5.21-1.43,2.19-2.3.28-7.77-.24-9.76l-.7-2.67,9.31-2.43,1.25,4.78c1.12,4.29,3.42,9.46-1.88,14.43-3.58,3.26-12.72,6.04-18.09,4.52-5.81-1.67-6.58-5.38-7.64-9.69l-6.57-25.17c-1.17-4.47-2.51-8.84,2.24-13.33,4.15-3.94,13.1-6.14,18.31-4.72,6.08,1.66,6.97,7.67,8.06,11.83l1.15,4.41v.03Z"/>
        <path class="st0" d="M106.45,35.16l9.5-2.48,4.84,18.52,5.22-21.21,9.75-2.55-4.24,17.64c-2.05,8.57-2.87,4.93,2.35,11.6l15.55,20.17-10.26,2.68-16.28-20.9,6.15,23.55-9.62,2.51-12.93-49.52h-.03Z"/>
      </g>
      <g>
        <path class="st0" d="M163.12,24.14l9.3-2.43,9.49,36.35c.71,2.73,2.91,9.59-1.58,13.76-2.92,2.89-10.92,5.64-15.68,4.36-6.02-1.68-6.23-6.4-7.29-10.44l-.96-3.67,8.73-2.28.32,1.24c.39,1.49,1.16,6.8,3.7,7.4,1.17.29,2.74-.19,3.44-.9,1.87-1.95.16-6.42-.11-7.47l-9.38-35.92h.02Z"/>
        <path class="st0" d="M177,20.72l9.18-2.4,12.93,49.53-9.18,2.4s-12.93-49.53-12.93-49.53Z"/>
        <path class="st0" d="M190.18,17.21l9.43-2.46,10.94,41.88,14.09-3.68,2.01,7.71-23.52,6.14-12.95-49.59h0Z"/>
        <path class="st0" d="M214.59,10.83l9.43-2.46,10.94,41.88,14.08-3.68,2.01,7.71-23.52,6.14-12.95-49.59h.01Z"/>
      </g>
      <g>
        <path class="st0" d="M134.71,39.22l3.49-.91,7.48,15.4-3.13.82-1.17-2.59-2.78.73.21,2.84-3.09.81-1.01-17.09h0ZM138.3,50.09l2.03-.53-2.6-6.28s.57,6.81.57,6.81Z"/>
        <path class="st0" d="M141.72,37.38l3.76-.98,5.75,10.15-2.86-10.95,2.69-.7,4.25,16.29-3.74.98-5.82-10.31,2.89,11.08-2.69.7-4.24-16.25h.01Z"/>
        <path class="st0" d="M152.08,34.68l.16-.08c.12,0,.18,0,.25-.07l3.84-1c1.27-.33,2.65-.87,4.05-.1,1.28.71,1.61,2.34,1.83,3.17l2,7.66c.29,1.1.64,2.29-.05,3.49-.9,1.52-2.51,1.76-3.69,2.09l-4.28,1.12-4.23-16.21.11-.07h0ZM158.69,47.68c.44-.11,2.04-.49,2.29-.73.76-.68.19-1.99.06-2.52l-1.7-6.5c-.07-.29-.36-1.73-.92-2.07-.62-.34-2.22.21-2.72.34l2.99,11.46v.02Z"/>
      </g>
    </g>
  </g>
</svg>