<?xml version="1.0" encoding="UTF-8"?>
<svg id="Capa_1" xmlns="http://www.w3.org/2000/svg" version="1.1" viewBox="0 0 283.44 113.28">
  <!-- Generator: Adobe Illustrator 29.7.1, SVG Export Plug-In . SVG Version: 2.1.1 Build 8)  -->
  <defs>
    <style>
      .st0 {
        fill: #fff;
      }
    </style>
  </defs>
  <g id="Capa_11" data-name="Capa_1">
    <g>
      <g>
        <path class="st0" d="M42.54,38.17v18.44c0,5.2-.58,7.01-1.9,8.66-2.06,2.68-5.53,4-8.62,4-.74,0-10.23,0-10.27-10.39h8.29c.08,1.4.29,3.55,2.35,3.55,2.35,0,2.35-2.47,2.35-3.88v-20.38h7.8Z"/>
        <path class="st0" d="M65.88,68.69h-6.48v-2.43h-.08c-1.4,2.93-4.21,3.18-5.94,3.18-1.4,0-4.7-.33-6.72-2.89-1.82-2.27-2.06-3.92-2.06-7.05v-13.69h6.85v12.66c0,1.57,0,4.58,3.67,4.58,1.98,0,3.92-1.03,3.92-4.66v-12.58h6.85v22.89h0Z"/>
        <path class="st0" d="M78.17,52.24c-.04-.5-.12-1.73-2.15-1.73-1.44,0-1.94.91-1.94,1.53,0,1.24,1.69,1.94,3.51,2.47,3.88,1.07,8,2.23,8,7.18s-4.25,7.8-9.32,7.8c-3.46,0-8.7-1.57-9.32-7.59h6.81c.29,2.1,2.31,2.1,2.6,2.1,1.16,0,2.39-.66,2.39-1.77,0-1.77-1.69-1.98-6.06-3.67-2.97-.95-5.44-2.89-5.44-5.98,0-4.54,4.12-7.55,8.87-7.55,3.01,0,8.21,1.2,8.79,7.22h-6.74Z"/>
        <path class="st0" d="M95.33,45.8h3.3v5.2h-3.3v17.69h-6.85v-17.69h-3.38v-5.2h3.38v-7.63h6.85v7.63Z"/>
      </g>
      <path class="st0" d="M132.42,52.06c.04.54.04.99.04,1.61,0,10.23-7.84,16.37-16.29,16.37-9.24,0-16.21-7.22-16.21-16s7.34-15.71,16.33-15.71c7.3,0,13.57,4.91,15.26,10.81h-8.74c-1.2-2.14-3.42-3.96-6.72-3.96-3.84,0-8.33,2.85-8.33,8.87,0,6.39,4.54,9.16,8.37,9.16s6.48-1.94,7.3-4.91h-9.11v-6.23h18.11,0Z"/>
      <g>
        <path class="st0" d="M159.11,38.9l4.08,19.84h.08l4.5-19.84h5.98l4.41,19.92h.08l4.17-19.92h7.88l-8.08,30.52h-6.85l-4.58-19.76h-.08l-4.58,19.76h-7.05l-7.88-30.52h7.92Z"/>
        <path class="st0" d="M198.5,44.1h-6.85v-5.2h6.85v5.2ZM198.5,69.42h-6.85v-22.89h6.85v22.89Z"/>
        <path class="st0" d="M210.26,46.53h3.3v5.2h-3.3v17.69h-6.85v-17.69h-3.38v-5.2h3.38v-7.63h6.85v7.63Z"/>
        <path class="st0" d="M215.12,38.9h6.85v9.73h.08c1.15-2.06,3.46-2.89,5.9-2.89,2.19,0,4.78.78,6.23,2.52,1.94,2.27,2.14,4.29,2.14,8.37v12.79h-6.85v-12.46c0-1.11,0-4.78-3.67-4.78s-3.84,3.42-3.84,4.54v12.7h-6.85v-30.52h.01Z"/>
        <path class="st0" d="M239.79,38.9h6.85v30.52h-6.85s0-30.52,0-30.52Z"/>
        <path class="st0" d="M258.39,46.53h3.3v5.2h-3.3v17.69h-6.85v-17.69h-3.38v-5.2h3.38v-7.63h6.85v7.63Z"/>
      </g>
      <path class="st0" d="M141.92,50.77c8.33,0,12.33,6.56,12.33,12.17s-4,12.17-12.33,12.17-12.33-6.56-12.33-12.17,4-12.17,12.33-12.17ZM141.92,68.71c2.97,0,5.49-2.43,5.49-5.77s-2.52-5.77-5.49-5.77-5.49,2.43-5.49,5.77,2.52,5.77,5.49,5.77Z"/>
    </g>
  </g>
</svg>