<?xml version="1.0" encoding="UTF-8"?>
<svg id="Capa_1" xmlns="http://www.w3.org/2000/svg" version="1.1" viewBox="0 0 1181 472">
  <!-- Generator: Adobe Illustrator 29.7.1, SVG Export Plug-In . SVG Version: 2.1.1 Build 8)  -->
  <defs>
    <style>
      .st0 {
        fill: #fff;
      }
    </style>
  </defs>
  <g id="Capa_11">
    <g>
      <g>
        <path class="st0" d="M268.61,206.39c10.55,0,19.6,3.55,27.16,10.64,7.56,7.1,11.34,15.59,11.34,25.5v119.29c0,9.98-3.78,18.5-11.34,25.55-7.56,7.06-16.61,10.58-27.16,10.58H84.86v-191.56h183.75ZM181.03,354.91h14.95c4.07,0,7.58-1.36,10.53-4.09s4.42-6.04,4.42-9.94v-77.42c0-3.82-1.48-7.11-4.42-9.88-2.95-2.77-6.46-4.15-10.53-4.15h-14.95v105.49h0Z"/>
        <path class="st0" d="M825.03,206.39c10.55,0,19.6,3.55,27.16,10.64,7.56,7.1,11.34,15.59,11.34,25.5v119.29c0,9.98-3.78,18.5-11.34,25.55-7.56,7.06-16.61,10.58-27.16,10.58h-183.75v-191.56h183.75ZM737.45,354.91h14.95c4.07,0,7.58-1.36,10.53-4.09s4.42-6.04,4.42-9.94v-77.42c0-3.82-1.48-7.11-4.42-9.88-2.95-2.77-6.46-4.15-10.53-4.15h-14.95v105.49h0Z"/>
        <path class="st0" d="M908.38,206.39h150.04c10.89,0,20.25,3.55,28.05,10.64,7.81,7.1,11.71,15.59,11.71,25.5v29.35h-99.21v-8.42c0-3.82-1.52-7.11-4.57-9.88-3.05-2.77-6.67-4.15-10.87-4.15s-8.06,1.38-11.07,4.15c-3,2.77-4.5,6.06-4.5,9.88v6.2c0,3.74,2.06,6.08,6.18,7.02l103.59,21.28c13.64,2.81,20.46,10.6,20.46,23.39v40.46c0,9.98-3.9,18.5-11.71,25.55-7.81,7.06-17.16,10.58-28.05,10.58h-150.04c-10.98,0-20.35-3.53-28.12-10.58-7.76-7.05-11.65-15.57-11.65-25.55v-29.35h99.34v8.42c0,3.9,1.5,7.21,4.5,9.94s6.69,4.09,11.07,4.09,7.83-1.36,10.87-4.09,4.57-6.04,4.57-9.94v-6.08c0-3.82-2.06-6.16-6.18-7.02l-103.59-21.4c-13.73-2.73-20.59-10.53-20.59-23.39v-40.46c0-9.9,3.88-18.4,11.65-25.5,7.76-7.09,17.13-10.64,28.12-10.64h0Z"/>
        <polygon class="st0" points="471.64 251.95 471.64 206.39 410.33 206.39 410.33 206.39 312.19 206.39 312.19 397.95 369.68 397.95 410.33 397.95 471.64 397.95 471.64 353.8 410.33 353.8 410.33 315.56 471.64 315.56 471.64 271.42 410.33 271.42 410.33 251.95 471.64 251.95"/>
        <polygon class="st0" points="636.19 251.95 636.19 206.39 574.88 206.39 574.88 206.39 476.74 206.39 476.74 397.95 534.22 397.95 574.88 397.95 636.19 397.95 636.19 353.8 574.88 353.8 574.88 315.56 636.19 315.56 636.19 271.42 574.88 271.42 574.88 251.95 636.19 251.95"/>
      </g>
      <g>
        <path class="st0" d="M232.05,117.46v88.93h-35.97V73.38h64.53l17.85,65.94,17.58-65.94h64.53v133.01h-40.37v-88.93l-23.89,88.93h-40.37l-23.89-88.93Z"/>
        <path class="st0" d="M490.18,100.55v15.2c0,15.2-10.25,21.28-27.87,24.13,17.62,2.85,27.87,8.93,27.87,24.13v42.37h-49.33v-41.99c0-6.08-2.88-11.4-15.7-11.4h-5.13v53.4h-49.33V73.38h75.28c25.31,0,44.21,11.4,44.21,27.17h0ZM425.15,126.39c12.81,0,15.7-4.94,15.7-11.4v-4.94c0-6.08-2.88-11.4-15.7-11.4h-5.13v27.74s5.13,0,5.13,0Z"/>
        <path class="st0" d="M526.89,184.54v21.85h-29.53v-21.85h29.53Z"/>
      </g>
    </g>
  </g>
</svg>