<?xml version="1.0" encoding="UTF-8"?>
<svg id="Capa_1" xmlns="http://www.w3.org/2000/svg" version="1.1" viewBox="0 0 283.44 113.28">
  <!-- Generator: Adobe Illustrator 29.7.1, SVG Export Plug-In . SVG Version: 2.1.1 Build 8)  -->
  <defs>
    <style>
      .st0 {
        fill: #fff;
      }
    </style>
  </defs>
  <path class="st0" d="M33.79,47.72c-.48,9.95-13.14,9.56-13.14,9.56v19.23h-3.09s-.29-39.59,0-39.61c7.54-.68,16.71.87,16.23,10.82ZM20.85,39.8c-.19.29,0,14.3,0,14.3,0,0,10.24.68,10.24-7.15s-10.24-7.15-10.24-7.15Z"/>
  <path class="st0" d="M35.53,39.79s3.68-.3,3.38,0c-.23.23-.1,19.09-.03,27.52.02,2.21,1.82,3.99,4.03,3.99h0c2.22,0,4.03-1.8,4.03-4.03v-27.48h3.57v28.19c0,3.7-3,6.7-6.7,6.7h-1.57c-3.7,0-6.7-3-6.7-6.7v-28.19h0Z"/>
  <path class="st0" d="M147.78,39.79s3.68-.3,3.38,0c-.23.23-.1,19.09-.03,27.52.02,2.21,1.82,3.99,4.03,3.99h0c2.22,0,4.03-1.8,4.03-4.03v-27.48h3.57v28.19c0,3.7-3,6.7-6.7,6.7h-1.57c-3.7,0-6.7-3-6.7-6.7v-28.19h-.01Z"/>
  <path class="st0" d="M166.02,39.65h4.06l6.47,23.04v-22.91h2.8v34.31h-3.38s-6.96-24.73-6.76-24.73,0,24.73,0,24.73h-3.19v-34.45h0Z"/>
  <path class="st0" d="M53.16,39.65h4.06l6.47,23.04v-22.91h2.8v34.31h-3.38s-6.96-24.73-6.76-24.73,0,24.73,0,24.73h-3.19v-34.45h0Z"/>
  <path class="st0" d="M81.33,44.83l2.32-1.74s-1.64-3.58-5.22-3.43-9.76,2.08-9.76,18.21,10.07,16.82,13.14,14.98c2.7-1.63,2.8-4.93,2.8-4.93l-1.93-.58s-.87,3.19-3.86,3.96-7.63-5.8-7.05-16.23c.58-10.43,4.15-12.56,6.09-12.75s3.48,2.51,3.48,2.51h-.01Z"/>
  <polygon class="st0" points="95.14 39.65 95.14 55.26 89.25 55.26 89.25 39.65 86.35 39.65 86.35 73.63 89.25 73.63 89.25 57.96 95.14 57.96 95.14 73.63 98.04 73.63 98.04 39.65 95.14 39.65"/>
  <rect class="st0" x="102.63" y="54.11" width="5.95" height="3.05"/>
  <path class="st0" d="M112.63,36.97s19.23-2.2,18.82,20.2c-.4,21.43-16.03,19.09-18.82,19.09v-39.29ZM115.78,72.86s12.6,1.93,12.2-15.27c-.44-19.07-12.2-17.34-12.2-17.34v32.61Z"/>
  <polygon class="st0" points="183.16 39.65 186.18 39.65 186.39 52.92 192.88 39.65 195.47 39.65 188.7 55.62 196.26 73.55 193.09 73.55 186.47 59.37 186.47 73.55 183.16 73.55 183.16 39.65"/>
  <polygon class="st0" points="211.58 72.9 211.58 36.96 208.36 36.96 208.36 75.62 209.97 75.62 211.58 75.62 220.81 75.62 220.81 72.9 211.58 72.9"/>
  <path class="st0" d="M229.23,70.25c-.85.58-1.98.58-2.83,0-1.82-1.23-4.76-4.62-4.76-13.64,0-8.3,2.49-11.78,4.31-13.22,1.1-.87,2.66-.87,3.75,0,1.82,1.44,4.31,4.92,4.31,13.22,0,9.02-2.94,12.41-4.76,13.64h-.02ZM237.07,56.92c0-10.13-3.72-14.38-6.45-16.14-1.64-1.06-3.98-1.06-5.62,0-2.72,1.76-6.45,6.01-6.45,16.14,0,11.01,4.4,15.15,7.13,16.65,1.27.7,2.97.7,4.24,0,2.73-1.51,7.13-5.64,7.13-16.65h.02Z"/>
  <polygon class="st0" points="236.61 39.34 240.01 39.34 244.71 67.3 249.03 39.34 252.62 39.34 246.68 73.55 242.69 73.55 236.61 39.34"/>
  <path class="st0" d="M254.24,39.34h11.77v3.39h-8.97v9.29h6.82v3.44h-6.82s-.18,14.75,0,14.57,8.97,0,8.97,0v3.52h-11.77s0-34.21,0-34.21Z"/>
  <path class="st0" d="M136.86,39.65c1.79,0,8.36.62,8.36,8.08s-4.96,8.83-4.96,8.83l5.49,17.07h-3.38l-5.04-14.85v14.85h-3.4v-33.98s2.93,0,2.93,0ZM137.28,43.14v11.64s5.02-.39,5.1-6.63c.06-5.1-5.1-5.02-5.1-5.02h0Z"/>
</svg>