<?xml version="1.0" encoding="UTF-8"?>
<svg id="Capa_1" xmlns="http://www.w3.org/2000/svg" version="1.1" viewBox="0 0 283.44 113.28">
  <!-- Generator: Adobe Illustrator 29.7.1, SVG Export Plug-In . SVG Version: 2.1.1 Build 8)  -->
  <defs>
    <style>
      .st0 {
        fill: #fff;
      }
    </style>
  </defs>
  <g id="Capa_4">
    <g>
      <path class="st0" d="M35.61,47.36v3.51c-4.13-.29-6.7,1.84-6.7,7.19v11.28h-4.5v-21.7h4.5v3.68l1.84-2.98c.98-.78,2.25-1.23,3.35-1.23.61,0,1.06.08,1.51.25Z"/>
      <path class="st0" d="M55.47,59.74h-15.57c.37,5.19,2.74,6.91,5.68,6.91,2.62,0,4.66-1.59,5.11-4.33h4.54c-.94,5.15-5.07,7.6-9.81,7.6-5.8,0-10.18-3.68-10.18-11.36,0-6.86,4.37-11.48,10.62-11.48s9.68,4.74,9.68,10.87c0,.41,0,1.02-.08,1.8h.01ZM39.94,56.6h10.99c-.33-4-2.08-6.25-5.23-6.25s-5.27,2.08-5.76,6.25Z"/>
      <path class="st0" d="M63.15,42.66c0,1.51-1.14,2.62-2.66,2.62s-2.62-1.1-2.62-2.62,1.1-2.57,2.62-2.57,2.66,1.1,2.66,2.57ZM58.25,69.35v-21.7h4.49v21.7h-4.49Z"/>
      <path class="st0" d="M86.85,63.95c0,1.35,0,3.02-.04,4.21-.25,6.58-4.33,9.89-10.87,9.89s-9.56-2.62-10.01-7.27l-.04-.41h4.41l.04.37c.29,2.33,2.29,3.92,5.64,3.92,3.92,0,6.17-2.12,6.33-6.01.04-.94.04-1.72.04-2.49v-.45l-1.63,2.37c-1.23.98-3.35,1.63-5.56,1.63-6.25,0-9.89-4.58-9.89-10.95,0-7.93,4.9-11.69,10.5-11.69,1.8,0,4.04.49,5.15,1.35l1.43,2.17v-2.94h4.5s0,16.3,0,16.3ZM82.35,58.52v-.94c0-5.27-3.19-7.23-6.09-7.23-3.55,0-6.25,2.62-6.25,8.01,0,4.7,2.17,8.09,6.05,8.09,3.39,0,6.29-2.12,6.29-7.93Z"/>
      <path class="st0" d="M110.3,57.13v12.22h-4.5v-11.73c0-1.02,0-1.96-.08-3.06-.2-2.45-1.51-4.17-4.58-4.17s-5.64,2.45-5.64,9.23v9.73h-4.5v-21.7h4.5v3.6l1.47-2.49c1.72-1.31,3.31-1.68,5.48-1.68,4.66,0,7.31,2.41,7.72,6.21.08,1.1.12,2.08.12,3.84h0Z"/>
      <path class="st0" d="M141.35,58.48c0,6.33-3.72,11.44-10.99,11.44s-10.99-5.11-10.99-11.44,3.68-11.4,10.99-11.4,10.99,5.07,10.99,11.4ZM136.57,58.48c0-4.9-2.29-8.13-6.21-8.13s-6.25,3.23-6.25,8.13,2.29,8.17,6.25,8.17,6.21-3.27,6.21-8.17Z"/>
      <path class="st0" d="M154.47,69.35h-5.23l-8.29-21.7h4.94l6.09,18.39,6.01-18.39h4.78l-8.29,21.7h-.01Z"/>
      <path class="st0" d="M182.17,59.74h-15.57c.37,5.19,2.74,6.91,5.68,6.91,2.62,0,4.66-1.59,5.11-4.33h4.54c-.94,5.15-5.07,7.6-9.81,7.6-5.8,0-10.18-3.68-10.18-11.36,0-6.86,4.37-11.48,10.62-11.48s9.68,4.74,9.68,10.87c0,.41,0,1.02-.08,1.8h.01ZM166.64,56.6h10.99c-.33-4-2.08-6.25-5.23-6.25s-5.27,2.08-5.76,6.25h0Z"/>
      <path class="st0" d="M196.14,47.36v3.51c-4.13-.29-6.7,1.84-6.7,7.19v11.28h-4.5v-21.7h4.5v3.68l1.84-2.98c.98-.78,2.25-1.23,3.35-1.23.61,0,1.06.08,1.51.25Z"/>
      <path class="st0" d="M235.53,56.39v12.95h-5.64v-11.32c0-1.27-.04-2.45-.16-3.56-.29-2.25-1.51-3.47-3.68-3.47-2.53,0-3.96,2.17-3.96,7.19v11.16h-5.6v-11.32c0-1.27-.04-2.45-.16-3.56-.29-2.25-1.55-3.47-3.72-3.47-2.53,0-3.92,2.17-3.92,7.19v11.16h-5.64v-21.74h5.64v3.31l1.59-2.62c1.23-.86,2.66-1.27,4.62-1.27,3.55,0,5.8,1.76,6.66,4.13l2.12-2.86c1.23-.86,2.7-1.27,4.66-1.27,4.13,0,6.5,2.41,6.99,5.39.16,1.1.2,2.21.2,3.96v.02Z"/>
      <path class="st0" d="M260.46,59.95h-15.45c.37,4.58,2.41,6.01,5.03,6.01,2.41,0,4.17-1.35,4.54-3.68h5.64c-1.1,5.07-5.19,7.64-10.3,7.64-5.97,0-10.58-3.72-10.58-11.36,0-6.66,4.37-11.52,11.03-11.52s10.17,5.07,10.17,10.99c0,.53,0,1.18-.08,1.92h0ZM245.17,56.27h9.56c-.37-3.43-1.92-5.27-4.62-5.27s-4.45,1.68-4.95,5.27h0Z"/>
    </g>
  </g>
</svg>