<?xml version="1.0" encoding="UTF-8"?>
<svg id="Logo_x5F_Anger_Management_xA0_Imagen" xmlns="http://www.w3.org/2000/svg" version="1.1" viewBox="0 0 283.44 113.28">
  <!-- Generator: Adobe Illustrator 29.7.1, SVG Export Plug-In . SVG Version: 2.1.1 Build 8)  -->
  <defs>
    <style>
      .st0 {
        fill: #fff;
      }
    </style>
  </defs>
  <path class="st0" d="M49.31,42.05c-3.52.8-2.13,1.07.32,1.01s5.07-.16-.37.75-13.81,4.27-15.68,5.39,4.43.85,13.97.69,20.21,2.77,22.72,4.11,2.24,5.12,2.24,7.47-1.87,2.99-4.8,3.79-23.15,4.27-27.73,5.33-26.56,5.12-26.56,5.12c0,0-4.43,1.17-2.08,0s-1.81-.43-1.01-.75-1.65-.21-1.12-1.01-1.6-.64-.75-1.39c.85-.75-.64-.64-1.33-1.07s.75-.85,6.45-2.03c5.7-1.18,50.24-10.24,50.24-10.24,3.95-.96-4.64-2.77-14.13-2.72s-16.37.37-19.15-.52c-1.83-.59-5.33-5.93-4.37-8.49s6.23-5.13,6.23-5.13c8.91-4.94,25.84-7.27,26.81-7.34s1.5,1.35,1.42,3.3-1.42,2.02-1.42,2.02c0,0-6.38.91-9.9,1.71ZM45.1,43.17c-9.4,2.1-11.89,5.39-11.89,5.39,2.77-2.4,11.89-5.39,11.89-5.39ZM62.7,65.86c4-.67,4.96-2.27,4.96-2.27-3.84,1.81-22.09,4.45-22.24,4.53-2.83,1.55,13.28-1.6,17.28-2.27h0Z"/>
  <path class="st0" d="M78.21,28.01s.05-.54.21-1.17c.19-.76.54-1.65,1.15-1.87,1.12-.4,2.95,2.55,3.04,4.72.07,1.7-.5,8.69-.64,12.55-.09,2.59-3.12,11.27-.88,8.87s8.31-7.67,11.35-3.12,6.08,10.95,4.32,10.95-3.04-.51-4.08-3.34-2.16-4.1-4.08-3.14-7.51,7.36-8.47,9.83-3.52,1.04-4.4.4-1.2-2.72-.48-8.47c.72-5.76,3.44-21.03,2.96-26.22h0Z"/>
  <path class="st0" d="M101.58,58.81c-1.97,0-5.24-2.87-2.82-7.43s9.41-8.28,12.11-9.58,3.38.51,4-.23,2.31-.51,2.08,1.07,0,8.51.73,10.87,1.69,5.97.62,5.18-2.54-3.44-2.87-4.45-2.59.39-2.59.39c-2.42,2.08-9.3,4.17-11.27,4.17h0ZM103.38,51.32c-1.69,1.35-2.65,3.27-1.18,2.99s9.63-3.21,11.15-4.31.68-3.01.45-4.08-1.3-.39-1.3-.39c-2.76,1.3-7.44,4.45-9.13,5.8h.01Z"/>
  <path class="st0" d="M125.69,26.3s.56-4.23,2.03-2.48,1.92,5.18,1.35,7.89-2.59,9.91-.85,8.73,16.17-11.04,17.69-12,1.97-.62,1.52.39-1.13,1.46-.56,1.86-.62,1.18-1.24,1.86-.85,1.58-2.25,2.65-8.06,6.2-8.84,6.76,2.82,2.76,2.82,2.76c0,0,4.11,3.1,3.83,4.73s-1.35,1.41-3.15,0-4.62-2.28-5.69-4.15-2.2-.32-2.99,0-2.03-.24-3.32.89-2.82,7.49-3.32,8.14-1.63,2.15-2.54,1.65,1.3-7.71,2.14-11.09,3.83-14.7,3.38-18.59h-.01Z"/>
  <path class="st0" d="M144.19,45.3c-1.25-3.36,4.35-7.77,6.91-9.68s8.49-4.41,10.17-.56.8,4.65-1.61,6.9,1.04,1.04,3.21-.08,2.41,0,.32,2.45-8.5,4.29-8.5,4.29c-4.07,1.48-9.25.05-10.5-3.32h0ZM147.6,43.96c-.4,1.07,4.92,1.43,3.85.71-.67-.45-1.58-1.35-2.16-1.95-.32-.33-.87-.28-1.12.11-.2.3-.41.69-.57,1.12h0ZM158.19,37.77c1.01-1.07-.54-.77-2.38-.54s-4.59,2.98-4.59,2.98c2.92,1.37,5.95-1.37,6.97-2.44Z"/>
  <path class="st0" d="M154.32,49.99s17.14-5.87,20.53-6.21,3.32-.68,0-1.03-4.91-.87-6.29-2.16-2.07-2.81-.07-4.2,9.19-5.94,10.71-4.22c1.52,1.72.62,3.46-1.04,3.94s-5.53,1.59-2.97,2,8.43,1.92,8.71,5.66-8.36,4.15-11.06,4.71-11.54,2.97-12.86,3.18-3.04.28-2.83-.62c0,0-3.2.32-2.83-1.05h0Z"/>
  <path class="st0" d="M94.37,66.46s.09,6.32-.9,11.91c-.99,5.6-2.44,11.28-2.35,15.34s4.06-10.92,4.42-13.63c0,0,4.24-.18,6.95-1.99,0,0-2.11,10.65-1.01,12.27s1.37,1.81,3.36-1.35,6.5-7.67,7.67-5.78.9,3.52,2.62,4.33,1.57.09-.88-5.14-6.25-3.34-9.32.18c0,0-.27-4.24.27-5.87,0,0,5-1.08,8.34-4.96,0,0,1.99-1.99-.72-1.08s-7.17,2.62-7.17,2.62c0,0,1.4-5.75-.71-8.38-.29-.37-.89-.29-1.08.14-.45,1.02-1.05,3.51-1.11,9.59,0,0-6.32,3.28-5.96,1.55s.85-2.72,1.1-6.69-.83-5.95-2.45-5.82-1.08,2.75-1.08,2.75h.01Z"/>
  <path class="st0" d="M132.05,81.24c1.24-.61-.07,2.63-2.93,4.19s-7.3,2.02-9.16,1.17-3.94-2.41-.74-5.99,6.97-5.02,8.8-5.15c1.83-.13,2.54,1.69,2.74,3.6s-2.94,3.65-2.74,3.64c1.76-.13,2.8-.85,4.04-1.45h0ZM127.95,78.39c-2.8-.66-5.08,2.41-5.08,2.41,2.79,1.1,5.08-2.41,5.08-2.41ZM122.87,84c-.98-.52-1.89-1.89-1.89-1.89-3.06,3.13,2.87,2.41,1.89,1.89Z"/>
  <path class="st0" d="M172.45,58.81s2.09-.8,2.09-2.83-.33-2.48-2.54-2.02-11.99,1.77-23.85,9.75-12.9,11.24-12.19,14.3,1.89,7.23,5.34,7.43,18.38.07,35.32-5.41c0,0,1.37-1.3,0-1.37s2.8-.6,4.82-3.2-.33-2.27-5.67-.91-23.6,5.8-31.47,5.54-4.95-2.54-3.26-4.24,13.82-12.15,31.41-17.05h0Z"/>
  <path class="st0" d="M183.6,76.18c-.13.2-.33,2.74,1.17,1.76s1.95-1.5,3.52-7.75c1.56-6.26,5.99-16.49,5.28-24.04s-2.61-5.86-3-5.02-.59,5.19-1.3,10.67c-.72,5.49-5.67,24.38-5.67,24.38Z"/>
  <path class="st0" d="M210.18,64.25c1.11,4.11-.52,4.69-.52,4.69-4.24,4.5-9.38,6.13-12.71,6.45s-5.86-2.22-6.65-5.21c-.78-3,5.54-9.12,7.82-10.03s2.02.33,3.39.39,2.54-.36,2.74-.39c2.74-.39,4.82,0,5.93,4.11h0ZM194.54,68.95s-1.89,2.41,1.89,1.89,7.17-2.93,9.51-4.63.26-1.5-1.89-1.63-3.52.26-4.04-.33-1.3.07-2.67,1.43-2.8,3.26-2.8,3.26h0Z"/>
  <path class="st0" d="M211.88,62.64c-.08-.78.02-1.56.28-2.29.29-.78.7-1.6,1.21-1.63.98-.07.98,2.67,1.3,4.5s.65,5.28,4.69,2.8,7.43-6.97,8.73-8.6,2.15-1.37,2.48,0,1.5,5.67,4.95,4.89,8.6-6.19,10.69-9.19,2.09,1.24,1.95,2.87-1.89,4.17-3.71,6.12-4.43,4.66-7.17,4.77-6.06-2.56-7.04-3.34-1.69.39-2.74,1.63c-1.05,1.24-4.99,6.51-10.43,5.74-4.87-.69-4.97-5.89-5.21-8.27h.02Z"/>
  <path class="st0" d="M251.28,50.68c.03-.36.1-.7.26-1.02.45-.89,1.4-2.48,1.84-1.12.59,1.82.78,4.76.78,4.76,0,0,5.28-4.82,8.15-5.02s4.43,2.41,5.21,5.28,3.13,7.95.78,7.3-2.61-3.19-3.32-4.89-.59-2.93-3.52-1.04-6.39,6.19-7.17,7.3-.65,1.63-3,.72-2.48-2.41-1.76-5.21c.66-2.58,1.59-5.1,1.74-7.06h0Z"/>
</svg>