<?xml version="1.0" encoding="UTF-8"?>
<svg id="Capa_1" xmlns="http://www.w3.org/2000/svg" version="1.1" viewBox="0 0 283.44 113.28">
  <!-- Generator: Adobe Illustrator 29.7.1, SVG Export Plug-In . SVG Version: 2.1.1 Build 8)  -->
  <defs>
    <style>
      .st0 {
        fill: #fff;
      }
    </style>
  </defs>
  <g id="Capa_11" data-name="Capa_1">
    <g>
      <path class="st0" d="M39.23,65.75c2.68,1.81,5.84,2.72,9.4,2.72s6.36-.9,8.57-2.66c2.25-1.79,3.38-4.09,3.38-6.83,0-1.55-.42-2.93-1.26-4.09-.83-1.15-2.08-2.11-3.73-2.85-1.61-.73-4.42-1.45-8.35-2.15-2.74-.48-4.61-.94-5.58-1.35-.92-.4-1.61-.91-2.06-1.53-.45-.61-.66-1.3-.66-2.12,0-1.32.59-2.42,1.8-3.35,1.23-.95,2.86-1.43,4.83-1.43,2.38,0,4.51.71,6.33,2.11,1.83,1.4,3.24,3.68,4.18,6.78l.11.36h2.45l-.16-11.47h-2.46l-2,2.34c-1.33-.89-2.64-1.54-3.89-1.94-1.37-.44-2.84-.66-4.36-.66-3.18,0-5.83.85-7.88,2.53-2.09,1.7-3.14,3.92-3.14,6.59s1.07,4.62,3.19,6.03c1.48.98,4.13,1.83,8.12,2.6,3.49.66,5.85,1.23,7.01,1.69,1.12.44,1.93.97,2.43,1.59.49.61.72,1.29.72,2.1,0,1.47-.66,2.69-2.02,3.73-1.38,1.06-3.21,1.6-5.43,1.6-2.77,0-5.3-.86-7.51-2.56-2.2-1.69-3.64-4.04-4.28-6.97l-.09-.4h-2.62v12.13h2.42l2.53-2.53h.01Z"/>
      <path class="st0" d="M70.39,72.65c-.07-.05-.29-.2-.29-.79v-6c.69.7,1.44,1.27,2.25,1.69,1.19.62,2.53.93,4,.93,2.56,0,4.79-.83,6.63-2.45,2.22-1.96,3.34-4.52,3.34-7.62,0-1.93-.46-3.7-1.36-5.24-.9-1.55-2.1-2.74-3.56-3.55-2.81-1.55-6.14-1.56-8.76-.26-.97.48-1.92,1.23-2.82,2.22-.11-.91-.28-1.84-.53-2.79l-.1-.4-8.08.37v2.27h.49c1.82.06,2.56.32,2.86.53.38.27.57.76.57,1.48v19.14c0,.15-.04.35-.34.55-.29.19-.79.29-1.44.29h-2.14v2.38h12.91v-2.38h-2.14c-.65,0-1.15-.12-1.49-.38h0ZM70.06,58.61c0-2.44.56-4.31,1.67-5.57,1.1-1.26,2.41-1.87,4-1.87,1.49,0,2.68.53,3.63,1.63.96,1.1,1.44,3.03,1.44,5.71s-.54,4.52-1.61,5.81c-.81.95-1.95,1.42-3.48,1.42-1.66,0-2.98-.56-4.04-1.7s-1.6-2.97-1.6-5.42h0Z"/>
      <path class="st0" d="M93.84,58.51c-2.9,1.33-4.37,3.07-4.37,5.16,0,1.43.67,2.61,2,3.5,1.27.86,3.11,1.29,5.48,1.29,1.65,0,3.1-.23,4.29-.68,1.06-.4,2.28-1.17,3.62-2.27.53.98,1.14,1.71,1.83,2.15.82.53,1.82.8,2.99.8,1.52,0,2.93-.53,4.17-1.57l.37-.31-1.43-1.82-.38.23c-1.06.65-2.07.81-2.66.09-.27-.32-.4-.86-.4-1.62v-9.94c0-1.52-.78-2.81-2.31-3.85-1.47-.98-3.6-1.48-6.34-1.48-2.95,0-5.37.56-7.21,1.66-1.92,1.15-2.89,2.48-2.89,3.94,0,.84.33,1.54.98,2.08.62.51,1.4.78,2.3.78s1.57-.22,2.12-.66c.58-.47.88-1.08.88-1.82,0-.53-.27-1.09-.82-1.72-.37-.4-.43-.57-.44-.57,0-.02.1-.24.78-.57.93-.43,2.05-.65,3.35-.65,1.37,0,2.51.32,3.39.95.83.6,1.24,1.3,1.24,2.12v2.3c-4.34.43-7.89,1.27-10.55,2.5v-.02ZM104.39,58.32v2.04c0,1.61-.61,2.91-1.88,3.97-1.27,1.08-2.8,1.62-4.53,1.62-.93,0-1.65-.24-2.21-.72-.54-.47-.8-1.11-.8-1.96,0-1.25.54-2.19,1.64-2.87,1.53-.93,4.15-1.63,7.79-2.08h-.01Z"/>
      <path class="st0" d="M139.73,65.15c-.23-.18-.35-.52-.35-1.01v-8.85c0-1.35-.33-2.59-.97-3.69-.65-1.11-1.53-1.93-2.62-2.44-1.06-.5-2.38-.76-3.92-.76-1.78,0-3.4.35-4.82,1.04-1.08.53-2.07,1.27-2.94,2.2-.14-1.07-.32-2.05-.55-2.91l-.1-.39-8.27.41v2.24h1.64c.85,0,1.49.17,1.91.5.39.3.58.75.58,1.37v11.75c0,.13-.04.33-.37.55-.32.21-.83.31-1.5.31h-2.05v2.46h12.79v-2.46h-2.05c-.92,0-1.35-.17-1.54-.32-.24-.18-.36-.51-.36-1v-6.74c0-1.77.54-3.15,1.64-4.24,1.11-1.09,2.46-1.62,4.12-1.62s2.85.51,3.64,1.55c.56.72.84,1.88.84,3.46v7.79c0,.38-.12.63-.39.8-.23.15-.74.33-1.91.33h-1.62v2.46h12.74v-2.46h-2.07c-.92,0-1.34-.17-1.52-.32h.02Z"/>
      <path class="st0" d="M169.12,48.53c-.61-.48-1.38-.73-2.28-.73-1.37,0-2.86.63-4.43,1.86-.91-.47-1.85-.83-2.81-1.07-1.07-.27-2.19-.4-3.33-.4-2.8,0-5.12.63-6.89,1.88-1.83,1.28-2.76,2.91-2.76,4.84,0,1.22.38,2.33,1.13,3.27.52.66,1.24,1.26,2.12,1.78-1.06.38-1.85.82-2.37,1.33-.74.71-1.12,1.56-1.12,2.53,0,1.05.47,1.94,1.39,2.64.46.35,1.03.65,1.72.91-1.02.29-1.8.64-2.38,1.08-.96.73-1.45,1.57-1.45,2.5,0,1.18.74,2.23,2.19,3.13,1.72,1.07,4.36,1.61,7.84,1.61,4.21,0,7.43-.79,9.58-2.35,1.62-1.16,2.44-2.61,2.44-4.33,0-1.59-.74-2.85-2.2-3.76-1.4-.87-3.58-1.29-6.68-1.29l-5.86.1c-1.58,0-2.25-.19-2.54-.34-.42-.23-.48-.51-.48-.73,0-.44.2-.74.63-.97.36-.19,1.25-.41,3.43-.41h2.59c1.47,0,3.03-.35,4.63-1.03,1.62-.69,2.8-1.51,3.51-2.44.73-.95,1.1-2.05,1.1-3.29,0-.71-.14-1.4-.42-2.02-.23-.52-.61-1.08-1.15-1.73.38-.29.74-.43,1.04-.43.06,0,.11.08.17.25.39,1.11,1.18,1.7,2.3,1.7.6,0,1.13-.2,1.58-.6.47-.42.7-.94.7-1.57,0-.75-.33-1.4-.97-1.91h.03ZM162.11,72.36c-1.3.69-3.29,1.05-5.92,1.05-2.19,0-3.88-.32-5.04-.95-.77-.41-1.14-.95-1.14-1.64,0-.74.52-1.37,1.6-1.94,1.16-.62,3.18-.93,6-.93,1.76,0,3.1.12,3.99.34.84.21,1.44.52,1.8.91.34.37.51.74.51,1.14,0,.7-.61,1.38-1.8,2.02h0ZM153.07,51.57c.83-.77,1.86-1.14,3.15-1.14s2.32.39,3.16,1.18c.83.79,1.23,1.84,1.23,3.23,0,1.5-.4,2.61-1.21,3.39-.82.79-1.85,1.17-3.16,1.17s-2.34-.39-3.16-1.21c-.83-.81-1.23-1.93-1.23-3.44,0-1.39.4-2.44,1.22-3.19h0Z"/>
      <path class="st0" d="M183.69,65.47h-2.85c-.47,0-.86-.1-1.16-.29-.1-.07-.2-.17-.2-.43v-26.89l-9.82.37v2.44h2.5c.75,0,1.37.17,1.88.53.18.13.43.37.43,1.01v22.13c0,.37-.11.62-.35.81-.26.21-.71.32-1.31.32h-2.74v2.46h13.62v-2.46h0Z"/>
      <path class="st0" d="M188.43,51.65c.38.28.55.67.55,1.23v11.46c0,.38-.1.65-.31.83-.23.19-.64.3-1.21.3h-2.85v2.46h13.67v-2.46h-3.02c-.45,0-.81-.1-1.08-.29-.04-.03-.17-.12-.17-.5v-16.16l-9.87.24v2.45h2.33c.88,0,1.54.15,1.96.46v-.02Z"/>
      <path class="st0" d="M188.63,42.49c.62.51,1.36.76,2.21.76s1.58-.25,2.19-.75c.64-.52.97-1.17.97-1.9s-.33-1.4-.99-1.94c-1.24-1.02-3.09-1.04-4.37,0-.66.54-.99,1.19-.99,1.92s.33,1.38.98,1.91Z"/>
      <path class="st0" d="M214.05,65.17c-.84.56-2.08.84-3.7.84-1.76,0-3.25-.41-4.43-1.21-1.19-.8-2.27-2.29-3.21-4.43l-.13-.3h-2.46l.54,8.25h1.93l1.6-1.5c1.87,1.1,3.91,1.66,6.07,1.66,2.48,0,4.55-.59,6.18-1.76,1.68-1.21,2.53-2.72,2.53-4.48,0-1.28-.4-2.39-1.2-3.29-.77-.88-1.87-1.53-3.25-1.94-.83-.26-2.53-.56-5.22-.94-2.18-.29-3.65-.67-4.37-1.15-.64-.41-.96-.89-.96-1.48,0-.7.35-1.29,1.07-1.79.77-.54,1.86-.81,3.26-.81,1.64,0,3.02.38,4.12,1.13,1.1.75,1.99,2,2.64,3.73l.12.32h2.49l-.71-7.49h-1.62l-1.44,1.25c-1.64-.92-3.42-1.38-5.32-1.38-2.66,0-4.77.75-6.28,2.22-1.19,1.18-1.79,2.52-1.79,3.99,0,.98.3,1.9.89,2.74.58.82,1.4,1.47,2.43,1.94,1,.45,2.69.86,5.17,1.26,3.09.47,4.21.73,4.61.86.52.17.91.42,1.19.76.27.32.4.68.4,1.1,0,.77-.38,1.4-1.17,1.92l.02-.02Z"/>
      <path class="st0" d="M247.22,65.47c-.79,0-1.17-.15-1.34-.28-.13-.1-.32-.29-.32-.81v-8.64c0-1.58-.34-2.98-1-4.15-.67-1.18-1.51-2.03-2.49-2.51-1.21-.59-2.57-.89-4.07-.89s-3.08.33-4.49.97c-1.07.49-2.1,1.18-3.07,2.05v-13.35l-9.44.37v2.44h2.12c.83,0,1.46.16,1.87.47.37.28.55.72.55,1.34v21.71c0,.45-.12.76-.37.95-.2.15-.64.33-1.62.33h-1.83v2.46h12.76v-2.46h-2.4c-.79,0-1.16-.16-1.32-.29-.21-.17-.32-.5-.32-.99v-7.26c0-.98.3-1.93.89-2.82.6-.9,1.33-1.58,2.19-2.02s1.8-.66,2.81-.66c1.27,0,2.28.37,3.09,1.13.8.76,1.19,1.8,1.19,3.18v8.64c0,.37-.11.61-.36.78-.17.12-.63.31-1.82.31h-1.83v2.46h13.03v-2.46h-2.41Z"/>
      <rect class="st0" x="33.82" y="69.82" width="28.24" height="2.61"/>
      <rect class="st0" x="72.34" y="69.82" width="70.59" height="2.61"/>
      <rect class="st0" x="170.72" y="69.82" width="77.85" height="2.61"/>
    </g>
  </g>
</svg>