<?xml version="1.0" encoding="UTF-8"?>
<svg id="Capa_1" xmlns="http://www.w3.org/2000/svg" version="1.1" viewBox="0 0 283.44 113.28">
  <!-- Generator: Adobe Illustrator 29.7.1, SVG Export Plug-In . SVG Version: 2.1.1 Build 8)  -->
  <defs>
    <style>
      .st0 {
        fill: #fff;
      }
    </style>
  </defs>
  <g id="Capa_11" data-name="Capa_1">
    <g>
      <g>
        <path class="st0" d="M81.11,93.2v-18.67l-6.64,18.67h-6.4l-6.64-18.67v18.67h-10.11v-32.01h13.04l6.89,19.21,6.94-19.21h13.04v32.01h-10.12Z"/>
        <path class="st0" d="M100.79,93.2v-12.38l-12.73-19.62h12.11l6.03,11.75,6.08-11.75h12.06l-12.73,19.62v12.38h-10.82Z"/>
        <path class="st0" d="M208.57,93.2v-12.38l-12.73-19.62h12.11l6.03,11.75,6.08-11.75h12.06l-12.73,19.62v12.38h-10.82Z"/>
        <path class="st0" d="M135.21,93.2v-32.01h18.57c3.69,0,6.53.66,8.52,1.98s2.99,3.39,2.99,6.21c0,1.73-.41,3.12-1.24,4.17-.82,1.05-2.01,1.93-3.56,2.66,3.79,1.21,5.68,3.67,5.68,7.38,0,1.7-.3,3.15-.91,4.35s-1.46,2.19-2.54,2.98c-1.09.79-2.38,1.37-3.88,1.73s-3.14.55-4.91.55h-18.72,0ZM145.48,68.06v5.28h6.17c.39,0,.8-.04,1.21-.11.41-.08.77-.21,1.09-.41.31-.2.57-.46.77-.8s.3-.76.3-1.27c0-1-.33-1.7-.99-2.09s-1.4-.59-2.22-.59h-6.33ZM152.19,86.32c1.05,0,1.93-.27,2.64-.82s1.06-1.32,1.06-2.32c0-.61-.12-1.12-.35-1.53-.23-.41-.54-.74-.91-.98-.38-.24-.79-.41-1.23-.5s-.86-.14-1.26-.14h-6.67v6.28h6.72Z"/>
        <path class="st0" d="M183.12,94.54c-2.73,0-5.18-.43-7.33-1.3s-3.98-2.09-5.46-3.66-2.62-3.45-3.41-5.65c-.79-2.19-1.19-4.62-1.19-7.27s.39-5.08,1.19-7.27c.79-2.19,1.93-4.08,3.41-5.65,1.48-1.57,3.3-2.8,5.46-3.68s4.6-1.33,7.33-1.33,5.18.44,7.33,1.33c2.16.88,3.98,2.11,5.46,3.68,1.48,1.57,2.62,3.46,3.41,5.65.79,2.19,1.19,4.62,1.19,7.27s-.4,5.08-1.19,7.27-1.93,4.08-3.41,5.65c-1.48,1.57-3.3,2.79-5.46,3.66s-4.6,1.3-7.33,1.3ZM183.12,86.1c.99,0,1.9-.18,2.74-.54.84-.36,1.57-.92,2.2-1.69.62-.77,1.11-1.75,1.46-2.95.35-1.19.52-2.61.52-4.25,0-3.31-.66-5.71-1.98-7.22-1.32-1.5-2.96-2.26-4.94-2.26s-3.62.75-4.94,2.26-1.98,3.91-1.98,7.22c0,1.64.17,3.05.52,4.25s.83,2.18,1.46,2.95c.62.77,1.36,1.33,2.2,1.69s1.75.54,2.74.54h0Z"/>
      </g>
      <g>
        <path class="st0" d="M73.49,52.31v-24.45h-8.74v-7.56h27.04v7.56h-8.74v24.45h-9.56Z"/>
        <path class="st0" d="M113,52.31v-12.47h-9.97v12.47h-10.12V20.31h10.07v11.66h10.02v-11.66h10.07v32.01h-10.07Z"/>
        <path class="st0" d="M146.82,52.31l-1.58-5.05h-11.08l-1.63,5.05h-10.74l12.42-32.01h10.93l12.42,32.01h-10.74ZM139.67,29.6l-3.31,10.56h6.67s-3.36-10.56-3.36-10.56Z"/>
        <path class="st0" d="M159.67,52.31v-24.45h-8.72v-7.56h26.98v7.56h-8.72v24.45h-9.54Z"/>
        <path class="st0" d="M212.3,29.73c-1.2-1.02-2.57-1.82-4.1-2.4-1.53-.57-3.19-.86-4.98-.86-1.41,0-2.46.19-3.15.56-.69.37-1.03.87-1.03,1.49s.35,1.09,1.06,1.51c.7.42,2.09.81,4.15,1.19,2.68.5,4.94,1.09,6.78,1.77s3.33,1.47,4.46,2.38c1.13.9,1.95,1.91,2.45,3.03s.75,2.34.75,3.68c0,1.55-.31,2.98-.93,4.28s-1.57,2.42-2.86,3.35c-1.29.93-2.93,1.66-4.92,2.19s-4.37.79-7.12.79c-1.55,0-3.01-.08-4.38-.23-1.38-.16-2.68-.43-3.92-.81-1.24-.39-2.43-.91-3.58-1.56-1.15-.65-2.28-1.46-3.38-2.42l6.5-6.19c2.51,2.33,5.48,3.49,8.92,3.49,3.23,0,4.85-.71,4.85-2.14,0-.34-.09-.66-.28-.96-.19-.29-.57-.58-1.13-.86s-1.38-.57-2.42-.86c-1.05-.29-2.45-.61-4.2-.95-3.68-.71-6.53-1.87-8.56-3.47-2.03-1.6-3.04-3.83-3.04-6.68,0-1.46.33-2.82.98-4.07.65-1.26,1.61-2.34,2.86-3.26s2.81-1.64,4.67-2.17,4-.79,6.45-.79c1.68,0,3.22.1,4.62.3,1.39.2,2.7.51,3.92.91s2.37.9,3.46,1.49c1.08.59,2.14,1.27,3.17,2.05l-6.03,6.24-.04-.02Z"/>
        <path class="st0" d="M187.74,25.6c0,5.2-.21,6.7-1.48,8.27-1.27,1.71-2.96,2.21-7.11,2.21v-3.99h.56c2.18,0,3.31-.93,3.31-2.71v-.57h-3.87v-8.27h8.59v5.06Z"/>
      </g>
    </g>
  </g>
</svg>