<?xml version="1.0" encoding="UTF-8"?>
<svg id="Capa_1" xmlns="http://www.w3.org/2000/svg" version="1.1" viewBox="0 0 283.44 113.28">
  <!-- Generator: Adobe Illustrator 29.7.1, SVG Export Plug-In . SVG Version: 2.1.1 Build 8)  -->
  <defs>
    <style>
      .st0 {
        fill: #fff;
      }
    </style>
  </defs>
  <g id="Capa_11" data-name="Capa_1">
    <g>
      <g>
        <path class="st0" d="M24.14,75.49h5.42v6.8h-14.41v-40.5h8.99s0,33.7,0,33.7Z"/>
        <path class="st0" d="M52.51,70.09c0,6.38,0,7.17-.32,8.26-.51,2-1.66,3.22-3.57,3.64-1.15.3-2.74.42-6.7.42-4.27,0-5.61-.12-6.82-.67-2.23-.97-3.06-2.85-3.06-6.74v-24.95c0-3.46.13-4.55.7-5.59.77-1.58,2.04-2.43,4.08-2.67,1.08-.12,3-.18,5.55-.18,5.8,0,7.08.24,8.48,1.58.89.91,1.4,2.06,1.53,3.52.13,1.34.13,2.19.13,7.1v16.27h0ZM40.97,71.73v1.76c0,1.52.38,2.19,1.34,2.19.83,0,1.21-.55,1.21-1.88v-23.74c0-1.21-.38-1.76-1.21-1.76-.64,0-1.15.36-1.28,1.09-.06.24-.06,1.15-.06,2.43,0,0,0,19.91,0,19.91Z"/>
        <path class="st0" d="M77.31,82.29h-9.18l-3.95-19.37v19.37h-7.52v-40.5h8.74l4.15,20.46v-20.46h7.78v40.5h-.02Z"/>
        <path class="st0" d="M101.99,61.29v21.01h-3.83l-1.66-3.04c-1.53,2.37-3.25,3.16-7.08,3.16s-5.29-.49-6.63-1.94c-.7-.85-1.08-2.06-1.28-4.01-.06-1.03-.06-2.31-.06-5.4v-18.88c0-4.86,0-5.22.19-6.25.38-1.94,1.47-3.22,3.38-3.83.76-.24,1.72-.36,3.63-.42.38,0,.76-.06,2.1-.06h2.1c4.85,0,6.31.3,7.65,1.76,1.08,1.21,1.47,2.73,1.47,6.62v5.71h-8.99v-4.8c0-1.09,0-1.58-.13-1.88-.19-.42-.7-.79-1.21-.79-.83,0-1.28.61-1.28,1.94v22.04c0,2.31.32,2.92,1.34,2.92.96,0,1.28-.49,1.28-1.94v-5.34h-1.28v-6.56h10.27l.02-.02Z"/>
        <path class="st0" d="M115.12,75.56h4.97v6.74h-13.96v-40.5h13.96v6.5h-4.97v8.38h4.97v6.62h-4.97v12.26Z"/>
        <path class="st0" d="M134.89,55.7v-4.8c0-1.27-.06-1.7-.19-2-.26-.42-.64-.73-1.08-.73s-.96.3-1.15.73c-.13.37-.19.67-.19,2v2.98c0,1.33.38,1.82,2.04,2.67l3.83,2c5.04,2.67,5.74,3.76,5.74,9.23v6.5c0,3.52-.25,4.68-1.28,5.95-1.4,1.82-2.93,2.19-9.56,2.19-5.29,0-6.76-.3-8.16-1.82-.83-.85-1.21-1.82-1.4-3.34-.13-.79-.13-1.7-.13-4.43v-7.29h8.93v7.83c0,1.64.38,2.31,1.34,2.31.83,0,1.27-.67,1.27-1.82v-5.53l-.06-.85c-.06-1.52-.25-1.82-1.79-2.61-.57-.3-1.02-.49-1.08-.55l-3.76-2c-4.14-2.25-4.85-3.52-4.85-8.56v-4.74c0-3.34.38-4.8,1.72-5.95,1.4-1.21,3.06-1.52,9.25-1.52,5.42,0,6.89.36,8.23,2.06,1.08,1.34,1.34,2.61,1.34,6.38v5.71h-9.01Z"/>
        <path class="st0" d="M159.24,82.29h-8.99v-33.94h-4.53v-6.56h17.92v6.56h-4.4v33.94Z"/>
      </g>
      <g>
        <path class="st0" d="M28.82,38.91h-2.35v-6.67h-1.18v-1.29h4.69v1.29h-1.15v6.67h-.01Z"/>
        <path class="st0" d="M36,38.91h-2.34v-3.72h-.68v3.72h-2.35v-7.96h2.35v2.92h.68v-2.92h2.34s0,7.96,0,7.96Z"/>
        <path class="st0" d="M39.52,37.58h1.3v1.32h-3.66v-7.96h3.66v1.28h-1.3v1.65h1.3v1.3h-1.3v2.41Z"/>
      </g>
      <g>
        <path class="st0" d="M192.17,65.96v16.33h-9.44v-16.33l-6.06-24.16h8.61l2.17,15.79,2.04-15.79h8.67l-5.99,24.16h0Z"/>
        <path class="st0" d="M219.27,82.29h-8.48l-.7-8.01h-3.44l-.64,8.01h-8.42l5.36-40.5h11.03l5.29,40.5ZM208.36,51.88l-1.21,15.72h2.42l-1.21-15.72h0Z"/>
        <path class="st0" d="M232.53,41.8l3.19.06c6.25.12,7.78,1.7,7.78,7.83v4.25c0,5.65-.89,7.59-4.02,8.38,1.53.49,2.42,1.15,3.06,2.25.83,1.4.96,2.49.96,7.22v10.5h-8.93v-12.14c0-4.01,0-3.95-2.23-4.01h-.38v16.15h-8.99v-40.5h9.57-.01ZM232.59,58.74c1.72,0,1.98-.36,1.98-2.97v-4.37l-.06-1.09c0-1.46-.38-1.88-1.59-1.88h-.96v10.32h.64,0Z"/>
        <path class="st0" d="M256.69,41.8c7.72,0,8.8.18,10.27,1.82,1.34,1.46,1.66,3.04,1.66,8.62v19.97c0,4.98-.19,6.31-1.21,7.77-1.21,1.7-3,2.25-7.4,2.25l-4.53.06h-7.52v-40.5h8.74-.01ZM257.78,75.68c1.4,0,1.72-.42,1.72-2.12v-22.89c0-1.82-.32-2.25-1.72-2.25-.19,0-.51.06-.83.06v27.2h.83Z"/>
      </g>
      <rect class="st0" x="14.32" y="30.86" width="9.84" height="8.13"/>
      <rect class="st0" x="42.35" y="30.86" width="225.38" height="8.13"/>
    </g>
  </g>
</svg>