<?xml version="1.0" encoding="UTF-8"?>
<svg id="Capa_1" xmlns="http://www.w3.org/2000/svg" version="1.1" viewBox="0 0 283.44 113.28">
  <!-- Generator: Adobe Illustrator 29.7.1, SVG Export Plug-In . SVG Version: 2.1.1 Build 8)  -->
  <defs>
    <style>
      .st0 {
        fill: #fff;
      }

      .st1 {
        fill: none;
        stroke: #000;
        stroke-miterlimit: 10;
        stroke-width: .6px;
      }
    </style>
  </defs>
  <g id="Capa_11" data-name="Capa_1">
    <g>
      <g>
        <path class="st0" d="M32.91,22.43h4.86l1.28,2.64s.03.09.05.18c.02.08.05.25.07.5l.12.65.05-.65.15-.68,1.24-2.64h4.88l-4.11,7.02v5.27h-4.47v-5.27l-4.13-7.02h.01Z"/>
        <path class="st0" d="M43.81,28.58c0-1.87.65-3.41,1.94-4.61,1.3-1.2,2.96-1.8,5-1.8,1.89,0,3.47.61,4.74,1.84,1.27,1.23,1.91,2.75,1.91,4.58s-.64,3.37-1.93,4.58c-1.28,1.21-2.91,1.82-4.88,1.82s-3.58-.61-4.86-1.82-1.93-2.74-1.93-4.58h.01ZM50.61,26.25c-.66,0-1.21.22-1.66.67s-.67,1-.67,1.66.22,1.21.67,1.65,1,.67,1.65.67,1.21-.22,1.65-.67c.44-.44.66-.99.66-1.65s-.22-1.2-.66-1.65c-.44-.45-.99-.68-1.64-.68Z"/>
        <path class="st0" d="M69.16,22.43v7.6c0,1.51-.51,2.71-1.53,3.61-1.02.89-2.4,1.34-4.15,1.34s-3.14-.44-4.16-1.33c-1.02-.89-1.53-2.09-1.53-3.61v-7.6h4.55v7.23c0,.28.02.5.05.64s.1.27.2.39c.1.12.23.21.38.28s.32.1.5.1c.35,0,.64-.12.87-.38.17-.2.26-.55.26-1.04v-7.23h4.56Z"/>
        <path class="st0" d="M75.01,34.72v-12.29h5.73c1.75,0,3.18.57,4.3,1.72,1.11,1.15,1.67,2.63,1.67,4.43s-.55,3.31-1.66,4.44-2.57,1.7-4.37,1.7h-5.67ZM79.56,26.11v4.71h.2c1.42,0,2.13-.78,2.13-2.34,0-.75-.18-1.33-.55-1.75-.37-.41-.89-.62-1.56-.62,0,0-.22,0-.22,0Z"/>
        <path class="st0" d="M86.96,28.58c0-1.87.65-3.41,1.94-4.61,1.3-1.2,2.96-1.8,5-1.8,1.89,0,3.47.61,4.74,1.84s1.91,2.75,1.91,4.58-.64,3.37-1.93,4.58-2.91,1.82-4.88,1.82-3.57-.61-4.86-1.82c-1.28-1.21-1.93-2.74-1.93-4.58h0ZM93.76,26.25c-.66,0-1.21.22-1.66.67-.45.45-.67,1-.67,1.66s.22,1.21.67,1.65.99.67,1.65.67,1.21-.22,1.65-.67.67-.99.67-1.65-.22-1.2-.67-1.65-.99-.68-1.64-.68Z"/>
        <path class="st0" d="M100.94,34.72v-12.29h4.45l2.92,4.86c.17.28.31.55.42.81s.34.92.71,2c-.17-.69-.29-1.23-.35-1.61s-.09-.79-.09-1.22l-.1-4.84h4.42v12.29h-4.5l-2.83-4.57-.78-1.82-.29-.92c.12.57.2.95.24,1.16.09.51.14,1.02.14,1.53l.08,4.62h-4.44Z"/>
        <path class="st0" d="M113.59,28.18c.36-.35.64-.64.83-.87s.42-.55.68-.96c-.09-.05-.21-.1-.35-.17s-.24-.12-.28-.15c-.26-.17-.47-.41-.63-.72s-.24-.63-.24-.96c0-.6.21-1.11.61-1.54s.9-.63,1.48-.63,1.12.24,1.55.73.65,1.07.65,1.76c0,.48-.12.96-.35,1.43-.23.48-.49.9-.78,1.27s-.79.92-1.51,1.65l-1.67-.85h0Z"/>
        <path class="st0" d="M118.62,26.37l.14-3.94h9.91l-1.14,3.94h-2v8.35h-4.57v-8.35h-2.34Z"/>
        <path class="st0" d="M132.67,34.72l1.96-12.29h4.52l1.48,5.2c.09.32.15.61.19.87.03.26.05.53.05.82,0-.42.02-.73.05-.93s.1-.45.19-.76l1.48-5.2h4.5l1.98,12.29h-4.45l-.38-4.76c0-.09-.02-.18-.03-.27v-.6c0-.25,0-.5.02-.75,0-.25.02-.5.03-.75l-.19,1.01-.26,1.33-1.36,4.79h-3.17l-1.35-4.79-.27-1.33-.19-1.01.05,1.5v.87l-.39,4.76h-4.46Z"/>
        <path class="st0" d="M149.55,34.72v-12.29h9.29l-.96,3.44h-3.79v1.04h3.43v3.29h-3.43v1.07h4.76l-1.01,3.44h-8.3.01Z"/>
        <path class="st0" d="M158.78,33.56l1.18-3.63c.33.26.59.46.78.59.19.13.41.26.67.4.62.35,1.19.53,1.71.53.27,0,.49-.06.65-.17.16-.11.24-.27.24-.48,0-.16-.07-.28-.21-.38-.14-.09-.42-.18-.84-.27-.43-.09-.71-.16-.86-.2s-.35-.12-.61-.22c-1.56-.53-2.34-1.55-2.34-3.05,0-1.28.47-2.34,1.42-3.17.94-.83,2.14-1.24,3.58-1.24.6,0,1.27.09,2,.27.42.11.75.22.99.32s.62.3,1.16.61l-1.01,3.19c-.57-.36-1.02-.61-1.35-.75-.47-.2-.88-.31-1.23-.31-.65,0-.97.22-.97.65,0,.13.07.23.2.32.13.09.37.17.72.26l.94.24c.44.13.78.23,1.01.32s.44.19.65.3c.47.26.83.64,1.09,1.12.26.49.39,1.05.39,1.67,0,1.31-.5,2.39-1.5,3.26-1,.86-2.26,1.3-3.79,1.3-.64,0-1.26-.08-1.88-.23-.61-.15-1.07-.3-1.37-.43-.3-.14-.77-.4-1.41-.78v-.04Z"/>
        <path class="st0" d="M168.99,33.56l1.18-3.63c.33.26.59.46.78.59.19.13.41.26.67.4.62.35,1.19.53,1.71.53.27,0,.49-.06.65-.17.16-.11.24-.27.24-.48,0-.16-.07-.28-.21-.38-.14-.09-.42-.18-.84-.27-.43-.09-.71-.16-.86-.2s-.35-.12-.61-.22c-1.56-.53-2.34-1.55-2.34-3.05,0-1.28.47-2.34,1.42-3.17.94-.83,2.14-1.24,3.58-1.24.6,0,1.27.09,2,.27.42.11.75.22.99.32s.62.3,1.16.61l-1.01,3.19c-.57-.36-1.02-.61-1.35-.75-.47-.2-.88-.31-1.23-.31-.65,0-.97.22-.97.65,0,.13.07.23.2.32.13.09.37.17.72.26l.94.24c.44.13.78.23,1.01.32s.44.19.65.3c.47.26.83.64,1.09,1.12.26.49.39,1.05.39,1.67,0,1.31-.5,2.39-1.5,3.26-1,.86-2.26,1.3-3.79,1.3-.64,0-1.26-.08-1.88-.23-.61-.15-1.07-.3-1.37-.43-.3-.14-.77-.4-1.41-.78v-.04Z"/>
        <path class="st0" d="M183.3,22.43h4.31l1.23,5.37c.03.1.07.26.09.49s.04.4.04.52l.15,1.45.1-1.43c0-.22,0-.4.03-.55.02-.15.05-.32.11-.5l1.35-5.34h3.7l1.35,5.34s.03.16.07.38c.03.22.05.44.05.68l.12,1.43c0-.74.03-1.32.1-1.74.09-.35.15-.59.17-.72l1.26-5.37h4.31l-3.89,12.29h-3.96l-1.09-5.17c-.08-.31-.14-.55-.17-.73-.12-.6-.19-1.47-.19-2.59,0,.98-.03,1.71-.1,2.18,0,.11-.1.49-.26,1.14l-1.09,5.17h-3.96l-3.85-12.29h.02Z"/>
        <path class="st0" d="M202.46,34.72v-12.29h4.55v12.29h-4.55Z"/>
        <path class="st0" d="M207.69,26.37l.14-3.94h9.91l-1.14,3.94h-2v8.35h-4.57v-8.35h-2.34Z"/>
        <path class="st0" d="M218.15,34.72v-12.29h4.55v4.01h2.8v-4.01h4.55v12.29h-4.55v-4.26h-2.8v4.26h-4.55Z"/>
        <path class="st0" d="M235.23,26.37l.14-3.94h9.91l-1.14,3.94h-2v8.35h-4.57v-8.35h-2.34Z"/>
        <path class="st0" d="M244.95,34.72v-12.29h4.55v4.01h2.8v-4.01h4.55v12.29h-4.55v-4.26h-2.8v4.26h-4.55Z"/>
        <path class="st0" d="M257.62,34.72v-12.29h9.29l-.96,3.44h-3.79v1.04h3.43v3.29h-3.43v1.07h4.76l-1.01,3.44h-8.3,0Z"/>
      </g>
      <g>
        <path class="st0" d="M29.34,87.45l19.94-31.82c.22-.36.42-.63.6-.81.4-.45,1.59-1.52,3.56-3.22-1.43.76-2.56,1.28-3.39,1.54-.83.27-1.58.4-2.25.4h-17.93l4.16-14.5h44.92l-19.27,30.82c-.36.63-.82,1.24-1.38,1.85s-1.4,1.42-2.52,2.45c.98-.31,1.89-.59,2.72-.84s1.58-.37,2.25-.37h17.93l-4.5,14.5H29.34Z"/>
        <path class="st0" d="M72.51,63.24c0-7.38,2.55-13.43,7.65-18.17,5.1-4.74,11.66-7.11,19.67-7.11,7.43,0,13.65,2.41,18.67,7.24,5.01,4.83,7.52,10.84,7.52,18.04s-2.53,13.25-7.59,18.04c-5.06,4.78-11.46,7.17-19.2,7.17s-14.08-2.39-19.13-7.17c-5.06-4.78-7.59-10.79-7.59-18.04ZM99.29,54.08c-2.6,0-4.78.88-6.55,2.65-1.77,1.77-2.65,3.95-2.65,6.55s.87,4.77,2.62,6.51,3.92,2.62,6.51,2.62,4.77-.87,6.51-2.62,2.62-3.92,2.62-6.51-.87-4.72-2.62-6.51-3.89-2.69-6.45-2.69h0Z"/>
        <path class="st0" d="M124.87,87.45v-48.41h17.93v15.78h11.01v-15.78h17.93v48.41h-17.93v-16.79h-11.01v16.79h-17.93Z"/>
        <path class="st0" d="M168.98,87.45l17.19-48.41h18.67l17.12,48.41h-19.2l-1.41-6.24h-11.68l-1.41,6.24h-19.28ZM194.43,57.5l-2.62,11.55h7.45l-2.62-11.55-.67-2.82-.34-3.22-.54,3.36-.67,2.69h0Z"/>
        <path class="st0" d="M218.67,87.45v-48.41h17.52l11.48,19.13c.67,1.12,1.22,2.18,1.65,3.19.42,1.01,1.35,3.64,2.79,7.89-.67-2.73-1.13-4.84-1.38-6.34-.25-1.5-.37-3.1-.37-4.8l-.4-19.07h17.39v48.41h-17.72l-11.15-17.99-3.09-7.18-1.14-3.63c.49,2.24.81,3.76.94,4.57.36,2.01.54,4.03.54,6.04l.33,18.19h-17.39,0Z"/>
      </g>
      <g>
        <line class="st1" x1="99.28" y1="40.11" x2="99.28" y2="86.5"/>
        <line class="st1" x1="76.09" y1="63.31" x2="122.48" y2="63.31"/>
        <circle class="st1" cx="99.28" cy="63.31" r="14.97"/>
      </g>
    </g>
  </g>
</svg>