<?xml version="1.0" encoding="UTF-8"?>
<svg id="Capa_1" xmlns="http://www.w3.org/2000/svg" version="1.1" viewBox="0 0 283.44 113.28">
  <!-- Generator: Adobe Illustrator 29.7.1, SVG Export Plug-In . SVG Version: 2.1.1 Build 8)  -->
  <defs>
    <style>
      .st0 {
        fill: #fff;
      }
    </style>
  </defs>
  <g id="_x3C_Capa_x3E_">
    <g>
      <path class="st0" d="M37.59,43.46h22.35c.54,0,.88.59.61,1.05l-9.38,16.1c-.27.47.07,1.05.61,1.05h8.24c.39,0,.7.31.7.7v6.75c0,.39-.31.7-.7.7h-24.09c-.55,0-.88-.6-.6-1.06l9.68-16.1c.28-.47-.06-1.06-.6-1.06h-6.82c-.39,0-.7-.31-.7-.7v-6.73c0-.39.31-.7.7-.7Z"/>
      <path class="st0" d="M87.33,56.64c0,8.02-6.5,14.51-14.51,14.51s-14.51-6.5-14.51-14.51,6.5-14.51,14.51-14.51,14.51,6.5,14.51,14.51ZM72.82,51.34c-2.93,0-5.3,2.37-5.3,5.3s2.37,5.3,5.3,5.3,5.3-2.37,5.3-5.3-2.37-5.3-5.3-5.3Z"/>
      <path class="st0" d="M115.2,56.64c0,8.02-6.5,14.51-14.51,14.51s-14.51-6.5-14.51-14.51,6.5-14.51,14.51-14.51,14.51,6.5,14.51,14.51ZM100.69,51.34c-2.93,0-5.3,2.37-5.3,5.3s2.37,5.3,5.3,5.3,5.3-2.37,5.3-5.3-2.37-5.3-5.3-5.3Z"/>
      <polygon class="st0" points="142.05 42.51 130.22 42.51 124.09 54.33 124.09 42.99 113.92 42.99 113.92 70.77 124.09 70.77 124.09 59.73 130.22 70.2 142.05 70.2 134.43 57.19 142.05 42.51"/>
      <polygon class="st0" points="179.28 50.16 179.28 42.79 168.55 42.79 161.94 42.79 159.77 42.79 159.77 70.49 161.94 70.49 168.55 70.49 179.28 70.49 179.28 63.12 168.55 63.12 168.55 60.61 179.28 60.61 179.28 53.24 168.55 53.24 168.55 50.16 179.28 50.16"/>
      <polygon class="st0" points="221.86 50.16 221.86 42.79 211.14 42.79 204.52 42.79 202.35 42.79 202.35 70.49 204.52 70.49 211.14 70.49 221.86 70.49 221.86 63.12 211.14 63.12 211.14 60.61 221.86 60.61 221.86 53.24 211.14 53.24 211.14 50.16 221.86 50.16"/>
      <polygon class="st0" points="158.4 50.16 158.4 42.79 147.68 42.79 141.07 42.79 138.9 42.79 138.9 70.49 141.07 70.49 147.68 70.49 158.4 70.49 158.4 63.12 147.68 63.12 147.68 60.61 158.4 60.61 158.4 53.24 147.68 53.24 147.68 50.16 158.4 50.16"/>
      <path class="st0" d="M204.22,51.1v3.69c0,4.59-3.72,8.31-8.31,8.31h-6.11v7.38h-9.16v-27.69h15.26c4.59,0,8.31,3.72,8.31,8.31h.01ZM196.02,53.05h0c0-1.39-1.13-2.52-2.52-2.52h-3.96v5.05h3.96c1.39,0,2.52-1.13,2.52-2.52h0Z"/>
      <path class="st0" d="M242.28,61.37l5.32,9.12h-10.94l-4.41-7.55v7.55h-8.95v-27.69h15.24c5.34,0,9.66,4.33,9.66,9.66h0c0,4.01-2.45,7.45-5.93,8.91h0ZM238.65,53.05h0c0-1.39-1.13-2.52-2.52-2.52h-4.02v5.05h4.02c1.39,0,2.52-1.13,2.52-2.52h0Z"/>
    </g>
  </g>
</svg>